<?xml version="1.0" encoding="UTF-8"?>
<!DOCTYPE svg PUBLIC "-//W3C//DTD SVG 1.1//EN" "http://www.w3.org/Graphics/SVG/1.1/DTD/svg11.dtd">
<!-- Creator: CorelDRAW -->
<svg xmlns="http://www.w3.org/2000/svg" xml:space="preserve" width="10mm" height="10mm" style="shape-rendering:geometricPrecision; text-rendering:geometricPrecision; image-rendering:optimizeQuality; fill-rule:evenodd; clip-rule:evenodd"
viewBox="0 0 0.0716656 0.0716656"
 xmlns:xlink="http://www.w3.org/1999/xlink">
 <defs>
  <style type="text/css">
   <![CDATA[
    .fil1 {fill:black}
    .fil0 {fill:#F8C300}
   ]]>
  </style>
 </defs>
 <g id="图层_x0020_1">
  <metadata id="CorelCorpID_0Corel-Layer"/>
  <g id="_163130088">
   <circle id="_163130184" class="fil0" cx="0.0358324" cy="0.0358331" r="0.0358335"/>
   <path id="_163130112" class="fil1" d="M0.0481435 0.038058l0 0 -0.00697235 0 0 -0.00828025 0.00697235 0 0 0.00828025zm0.000948136 -0.0101729l0 0 -0.00888224 0c-0.000514559,0 -0.00094742,0.000436444 -0.00094742,0.000948853l0 0.0101593c0,0.000536059 0.00043286,0.000958886 0.00094742,0.000958886l0.00888224 -7.16656e-007c0.000534626,0 0.000931653,-0.000421394 0.000931653,-0.00095817l0 -0.0101593c0,-0.000512409 -0.000397028,-0.000948853 -0.000931653,-0.000948853zm0 0.0169439l0 0 -0.00888224 0c-0.000514559,0 -0.00094742,0.000434294 -0.00094742,0.000961036 0,0.000549675 0.00043286,0.00096032 0.00094742,0.00096032l0.00888224 -7.16656e-007c0.000534626,0 0.000931653,-0.000409927 0.000931653,-0.000959603 0,-0.000526742 -0.000397028,-0.000961036 -0.000931653,-0.000961036zm0.00332815 0.00450419l0 0 -0.0285946 0 0 -0.0247992c0.000630658,0.000564009 0.00157521,0.000510976 0.00215284,-6.59324e-005l0 -2.43663e-005 3.94161e-005 0 0.00149495 -0.00152648 0.00153579 0.00152648c0.000626358,0.000654307 0.00161319,0.000654307 0.00224098,2.43663e-005l7.16656e-007 -2.43663e-005 1.28998e-005 0 0.00150713 -0.00152648 0.00153794 0.00152648c0.000623491,0.000654307 0.00162466,0.000654307 0.0022546,2.43663e-005l0 -2.43663e-005 2.0783e-005 0 0.00151358 -0.00152648 0.00154798 0.00152648c0.000601275,0.000654307 0.00158524,0.000654307 0.00220157,2.43663e-005l1.36165e-005 -2.43663e-005 2.22163e-005 0 0.00153794 -0.00152648 0.00151071 0.00152648c0.000638541,0.000654307 0.00160889,0.000654307 0.0022374,2.43663e-005l0.00152433 -0.00155084 0.00153794 0.00152648c0.000583358,0.000600558 0.00153364,0.000654307 0.00214854,9.02987e-005l7.16656e-007 0.0247992zm-0.03175 -0.00911085l0 0 -0.00261221 -0.00872673 0.00261221 -0.000795489 0 0.00952221zm0.0344368 -0.0206182l0 0c-0.000590525,-0.000575475 -0.00161606,-0.000575475 -0.00220229,0l-0.00150785 0.00151 -0.00139748 -0.00139461c-0.000292396,-0.000331812 -0.000716656,-0.000550392 -0.0011918,-0.000550392l-0.000115382 -7.16656e-007c-0.000397028,0 -0.000806238,0.000154798 -0.00112228,0.00046296l-0.00147273 0.00148276 -0.00138171 -0.00139461c-0.000311746,-0.000331812 -0.000730273,-0.000550392 -0.0012262,-0.000550392l-0.000105348 -7.16656e-007c-0.000409927,0 -0.000811255,0.000154798 -0.00110222,0.00046296l-0.00148276 0.00148276 -0.0014068 -0.00139461c-0.000295979,-0.000331812 -0.000731706,-0.000550392 -0.00120398,-0.000550392l-0.000103199 -7.16656e-007c-0.000409211,0 -0.000816272,0.000154798 -0.00112658,0.00046296l-0.00148491 0.00148276 -0.00140465 -0.00139461c-0.000283796,-0.000331812 -0.000716656,-0.000550392 -0.00117818,-0.000550392l-0.000131148 -7.16656e-007c-0.000381261,0 -0.000804088,0.000154798 -0.00112372,0.00046296l-0.00144765 0.00148276 -0.00141683 -0.00139461c-0.000280929,-0.000331812 -0.00072024,-0.000550392 -0.00118033,-0.000550392l-0.000100332 -7.16656e-007c-0.00043716,0 -0.000819138,0.000154798 -0.00113948,0.00046296l-0.0014756 0.00148276 -0.00140393 -0.00139461c-0.000294546,-0.000331812 -0.00072024,-0.000550392 -0.00120542,-0.000550392 -0.000870738,-7.16656e-007 -0.00159599,0.000680107 -0.00159599,0.00158954l0 0.00662549 -0.00506103 0.00154009c-0.000829171,0.000255846 -0.00130288,0.00113805 -0.0010456,0.00195504l0.00619191 0.0204118c0.000153364,0.000693723 0.000795489,0.00120685 0.00151071,0.00120685l0.0317371 0c0.000875754,0 0.00157521,-0.000734573 0.00157521,-0.00158739l0 -0.0301526c0,-0.000425694 -0.000165548,-0.000792622 -0.00047156,-0.00115382zm-0.0190674 0.00828096l0 0 -0.00885716 0c-0.000510976,0 -0.000935237,0.000436444 -0.000935237,0.000948853 0,0.000511693 0.000424261,0.000943836 0.00093452,0.000943836l0.00885787 0c0.000522443,0 0.00095817,-0.000431427 0.00095817,-0.000943836 0,-0.000512409 -0.000435727,-0.000948853 -0.000958886,-0.000948853zm0.0130532 0.0135907l0 0 -0.00888224 0c-0.000514559,0 -0.00094742,0.000381978 -0.00094742,0.00092162 0,0.000515993 0.00043286,0.000946703 0.00094742,0.000946703l0.00888224 0c0.000534626,0 0.000931653,-0.000429994 0.000931653,-0.000946703 0,-0.000539642 -0.000397028,-0.000920903 -0.000931653,-0.000920903zm-0.0130525 -0.00341845l0 0 -0.00885716 0c-0.000510976,0 -0.000935237,0.000422827 -0.000935237,0.000935237 0,0.000536059 0.000424261,0.000958886 0.00093452,0.000958886l0.00885787 -7.16656e-007c0.000522443,0 0.00095817,-0.000421394 0.00095817,-0.00095817 0,-0.000513126 -0.000435727,-0.00093452 -0.000958886,-0.00093452zm7.16656e-007 0.00677025l0 0 -0.00885716 0c-0.000510976,0 -0.000935237,0.000434294 -0.000935237,0.000961036 0,0.000549675 0.000424261,0.00096032 0.00093452,0.00096032l0.00885787 -7.16656e-007c0.000522443,0 0.00095817,-0.000409927 0.00095817,-0.000959603 0,-0.000526742 -0.000435727,-0.000961036 -0.000958886,-0.000961036zm7.16656e-007 -0.0101615l0 0 -0.00885716 0c-0.000510976,0 -0.000935237,0.000422827 -0.000935237,0.00094742 0,0.000536059 0.000424261,0.000946703 0.00093452,0.000946703l0.00885787 0c0.000522443,0 0.00095817,-0.000410644 0.00095817,-0.000946703 0,-0.000524592 -0.000435727,-0.000946703 -0.000958886,-0.000946703zm7.16656e-007 0.00680752l0 0 -0.00885716 0c-0.000510976,0 -0.000935237,0.000381978 -0.000935237,0.00092162 0,0.000515993 0.000424261,0.000946703 0.00093452,0.000946703l0.00885787 0c0.000522443,0 0.00095817,-0.000429994 0.00095817,-0.000946703 0,-0.000539642 -0.000435727,-0.000920903 -0.000958886,-0.000920903zm7.16656e-007 -0.0101966l-0.00885716 0c-0.000510976,0 -0.000935237,0.000430711 -0.000935237,0.00094527 0,0.000508826 0.000424261,0.00093452 0.00093452,0.00093452l0.00885787 0c0.000522443,0 0.00095817,-0.000425694 0.00095817,-0.00093452 0,-0.000514559 -0.000435727,-0.00094527 -0.00095817,-0.00094527z"/>
  </g>
 </g>
</svg>
