<?xml version="1.0" encoding="UTF-8"?>
<!DOCTYPE svg PUBLIC "-//W3C//DTD SVG 1.1//EN" "http://www.w3.org/Graphics/SVG/1.1/DTD/svg11.dtd">
<!-- Creator: CorelDRAW -->
<svg xmlns="http://www.w3.org/2000/svg" xml:space="preserve" width="10.9316mm" height="10.9316mm" style="shape-rendering:geometricPrecision; text-rendering:geometricPrecision; image-rendering:optimizeQuality; fill-rule:evenodd; clip-rule:evenodd"
viewBox="0 0 0.218949 0.218949"
 xmlns:xlink="http://www.w3.org/1999/xlink">
 <defs>
  <style type="text/css">
   <![CDATA[
    .fil0 {fill:#F8C300}
    .fil1 {fill:black;fill-rule:nonzero}
   ]]>
  </style>
 </defs>
 <g id="图层_x0020_1">
  <metadata id="CorelCorpID_0Corel-Layer"/>
  <g id="_163561816">
   <circle id="_163561984" class="fil0" cx="0.109474" cy="0.109474" r="0.109475"/>
   <path id="_163561912" class="fil1" d="M0.109474 0.0286975c0.0223003,0 0.0424975,0.00904308 0.0571146,0.0236622 0.0146192,0.0146171 0.0236622,0.0348144 0.0236622,0.0571146 0,0.0223003 -0.00904308,0.0424975 -0.0236622,0.0571146 -0.0146171,0.0146192 -0.0348144,0.0236622 -0.0571146,0.0236622 -0.0223003,0 -0.0424975,-0.00904308 -0.0571146,-0.0236622 -0.0146192,-0.0146171 -0.0236622,-0.0348144 -0.0236622,-0.0571146 0,-0.0223003 0.00904308,-0.0424975 0.0236622,-0.0571146 0.0146171,-0.0146192 0.0348144,-0.0236622 0.0571146,-0.0236622zm0.049788 0.0309888c-0.0127424,-0.0127424 -0.0303459,-0.0206258 -0.049788,-0.0206258 -0.0194421,0 -0.0370456,0.00788341 -0.049788,0.0206258 -0.0127424,0.0127424 -0.0206258,0.0303459 -0.0206258,0.049788 0,0.0194421 0.00788341,0.0370456 0.0206258,0.049788 0.0127424,0.0127424 0.0303459,0.0206258 0.049788,0.0206258 0.0194421,0 0.0370456,-0.00788341 0.049788,-0.0206258 0.0127424,-0.0127424 0.0206258,-0.0303459 0.0206258,-0.049788 0,-0.0194421 -0.00788341,-0.0370456 -0.0206258,-0.049788z"/>
   <path id="_163561840" class="fil1" d="M0.149102 0.112363l-0.0645534 0.0372699c-0.00159431,0.000923336 -0.00363726,0.000378548 -0.0045606,-0.00121576 -0.00030444,-0.000528765 -0.000450652,-0.0011036 -0.000450652,-0.00167242l-6.00869e-006 0 0 -0.0745398c0,-0.00184667 0.00149817,-0.00334484 0.00334484,-0.00334484 0.000688997,0 0.00132992,0.000208301 0.00186269,0.00056682l0.0643631 0.0371598c0.00159431,0.000923336 0.00213909,0.00296629 0.00121576,0.0045606 -0.00030444,0.000522756 -0.000727052,0.00093335 -0.00121576,0.00121576zm-0.062881 0.0285974l0.0545349 -0.0314856 -0.0545349 -0.0314856 0 0.0629711z"/>
  </g>
 </g>
</svg>
