<?xml version="1.0" encoding="UTF-8"?>
<!DOCTYPE svg PUBLIC "-//W3C//DTD SVG 1.1//EN" "http://www.w3.org/Graphics/SVG/1.1/DTD/svg11.dtd">
<!-- Creator: CorelDRAW -->
<svg xmlns="http://www.w3.org/2000/svg" xml:space="preserve" width="24.6316mm" height="9.0001mm" style="shape-rendering:geometricPrecision; text-rendering:geometricPrecision; image-rendering:optimizeQuality; fill-rule:evenodd; clip-rule:evenodd"
viewBox="0 0 0.34645 0.126589"
 xmlns:xlink="http://www.w3.org/1999/xlink">
 <defs>
  <style type="text/css">
   <![CDATA[
    .fil1 {fill:#4D4948}
    .fil0 {fill:#4D4948;fill-rule:nonzero}
    .fil2 {fill:#383431;fill-rule:nonzero}
   ]]>
  </style>
 </defs>
 <g id="图层_x0020_1">
  <metadata id="CorelCorpID_0Corel-Layer"/>
  <g id="_197808360">
   <g>
    <path id="_164456264" class="fil0" d="M0.243822 0.0707371c0,-0.00621263 0.00513101,-0.013843 0.0115813,-0.0202357 0.00754321,-0.00747569 0.0170823,-0.013407 0.0223427,-0.013407 0.00162313,0 0.00382154,0.000444463 0.00567112,0.00151905 0.00105771,0.000616059 0.00202118,0.0014431 0.00273288,0.00252331l4.21958e-006 -1.40653e-006c0.000732801,0.00110975 0.0011843,0.00244876 0.0011843,0.00403814l-8.43917e-006 0c0,0.000732801 -9.56439e-005,0.00151764 -0.000306623,0.00236015l0.000391015 -0.000116742c0.00208729,-0.00060762 0.0046767,-0.00121665 0.00727597,-0.00137558 0.00276945,-0.00017019 0.00556563,0.000164564 0.00788499,0.0015078 0.00544748,0.00315625 0.00419849,0.00742365 0.00245439,0.0104294 -9.98635e-005,0.000173003 -0.000203947,0.000341786 -0.000306623,0.000504943 0.00430116,0.000969098 0.0118289,0.00341927 0.0118289,0.0122551l0 1.40653e-006c0,0.00684276 -0.00416332,0.0129766 -0.0109189,0.0173594 -0.00649816,0.00421958 -0.0154606,0.0068301 -0.0253681,0.00683151l0 7.03264e-006 -4.21958e-006 0c-0.00990196,0 -0.0188981,-0.00261052 -0.0254385,-0.00682869 -0.00679494,-0.00438274 -0.0110005,-0.0105222 -0.0110005,-0.0173706l0 -1.40653e-006zm0.0143199 -0.0174817c-0.00580474,0.0057541 -0.0104238,0.0124098 -0.0104238,0.0174817l0 1.40653e-006c0,0.00543904 0.00351773,0.0104308 0.00920432,0.014099 0.00594117,0.00383138 0.0141933,0.0062056 0.0233385,0.0062056l4.21958e-006 0 0 7.03264e-006c0.0091368,0 0.0173467,-0.00237281 0.0232541,-0.00620701 0.00565143,-0.00366822 0.0091368,-0.00865999 0.0091368,-0.0141033l0 -1.40653e-006c0,-0.00669788 -0.00715782,-0.00815083 -0.0100539,-0.00873735 -0.00181161,-0.000364291 -0.00294808,-0.000606213 -0.00294808,-0.00231655 0,-0.000751086 0.000379762,-0.00127713 0.000924089,-0.00202681l4.21958e-006 2.81306e-006c0.000305217,-0.000423365 0.00070889,-0.000983163 0.00108443,-0.00163017 0.000873454,-0.00150639 0.00152749,-0.00363165 -0.00103802,-0.00511835 -0.00156406,-0.000904397 -0.00361478,-0.0011196 -0.0057105,-0.000991602 -0.0022617,0.000139246 -0.00455856,0.000682166 -0.00642221,0.00122509 -0.00109709,0.000317875 -0.00209854,0.000655442 -0.00284119,0.000905804 -0.000624498,0.000209573 -0.00113647,0.000382576 -0.00159219,0.000455715 -0.000438837,9.70504e-005 -0.000912836,4.36024e-005 -0.00133901,-0.000185662 -0.00120117,-0.000647003 -0.00141497,-0.00154577 -0.000786249,-0.00268787l0 1.40653e-006 2.25044e-005 -3.93828e-005c0.00106052,-0.00182427 0.00149092,-0.00327721 0.00149092,-0.00442212l-8.43917e-006 0c0,-0.000770777 -0.00020254,-0.00139668 -0.000530261,-0.00189178l4.21958e-006 -2.81306e-006 -4.21958e-006 -5.62611e-006c-0.000347412,-0.000526041 -0.000859388,-0.000956439 -0.0014431,-0.00129541 -0.00120117,-0.000699044 -0.00264849,-0.000987382 -0.00372308,-0.000987382 -0.00431241,0 -0.0127038,0.00542638 -0.0196042,0.0122649z"/>
    <path id="_164456192" class="fil0" d="M0.262 0.0758948c-0.000659661,-0.00350788 0.000417739,-0.00699185 0.00270053,-0.00979084 0.00222372,-0.00272726 0.00560923,-0.00481173 0.00962346,-0.00559376l0 -2.81306e-006 9.84569e-006 -2.81306e-006 0.000104083 -1.68783e-005c0.0039861,-0.000753899 0.00787234,-9.14243e-005 0.0109386,0.0015936 0.00318579,0.00175253 0.00550374,0.00460919 0.00619154,0.00814802l5.62611e-006 2.81306e-005c0.000673727,0.00352335 -0.00040508,0.0070242 -0.00269631,0.00983585 -0.00222935,0.00273288 -0.00562189,0.00481736 -0.00964456,0.00559657 -0.000540107,0.000104083 -0.00110694,0.000184255 -0.00168783,0.000240516 -0.000604807,5.76676e-005 -0.0011646,8.72047e-005 -0.00167939,8.72047e-005l0 -7.03264e-006c-0.00339676,-1.40653e-006 -0.00656567,-0.00100707 -0.00902147,-0.00275398 -0.00247971,-0.00176379 -0.00424771,-0.00428147 -0.00483142,-0.00729425l-1.26587e-005 -6.75133e-005zm0.00533777 -0.00764588c-0.00165689,0.00203103 -0.00244876,0.00451917 -0.00199868,0.00698763 1.68783e-005,6.32937e-005 2.81306e-005,0.000126587 3.51632e-005,0.000189881 0.000430397,0.00206478 0.00168643,0.00381169 0.00344177,0.00506069 0.001896,0.00135027 0.0043743,0.00212948 0.00704952,0.00212948l0 -7.03264e-006c0.000488065,0 0.00094378,-2.10979e-005 0.00136011,-6.04807e-005 0.000426178,-4.07893e-005 0.000886112,-0.000108303 0.00136855,-0.000201133 0.00321392,-0.000623092 0.00590179,-0.00226029 0.00764588,-0.00439962 0.00165548,-0.00203243 0.00245158,-0.00452199 0.0020029,-0.00699185 -1.40653e-005,-5.62611e-005 -2.6724e-005,-0.000113929 -3.37567e-005,-0.000174409 -0.00050635,-0.00244876 -0.00217449,-0.00445729 -0.00447135,-0.00571894 -0.00239813,-0.00131792 -0.0054728,-0.00183271 -0.00865577,-0.00123352 -6.04807e-005,1.40653e-005 -0.000122368,2.6724e-005 -0.000185662,3.51632e-005 -0.00317453,0.000635751 -0.00583006,0.00226451 -0.00755868,0.00438415zm0.0242359 0.00200852c1.68783e-005,9.84569e-005 2.53175e-005,0.000195507 2.53175e-005,0.000291151"/>
    <path id="_164456120" class="fil1" d="M0.271197 0.0719889c-0.00222653,0.00103802 -0.0034038,0.00323501 -0.00262458,0.00490738 0.000780623,0.00166814 0.00321673,0.00218293 0.00544326,0.00114351 0.00222794,-0.00104083 0.0034038,-0.00323642 0.00262317,-0.00490597 -0.000503537,-0.00108584 -0.00171034,-0.00168361 -0.00310421,-0.00168361 -0.000752492,-1.40653e-006 -0.00155843,0.000175816 -0.00233765,0.0005387l0 0z"/>
    <path id="_164205856" class="fil1" d="M0.276923 0.0707371c0,0.00123071 0.000997228,0.00222653 0.00222513,0.00222653 0.00122931,0 0.00222513,-0.000994415 0.00222513,-0.00222513 0,-0.00122931 -0.000995822,-0.00222513 -0.00222513,-0.00222513 -0.0012279,-1.40653e-006 -0.00222513,0.000995822 -0.00222513,0.00222513l0 -1.40653e-006z"/>
    <path id="_164205784" class="fil0" d="M0.302914 0.0438246c-0.000939561,0 -0.00170331,-0.000763745 -0.00170331,-0.00170471 0,-0.000939561 0.000763745,-0.00170331 0.00170331,-0.00170331 0.00289041,0 0.00551078,0.00117304 0.00740537,0.00306764 0.00189459,0.00189459 0.00306764,0.00451495 0.00306764,0.00740537 0,0.000250362 -1.12522e-005,0.000516196 -3.23501e-005,0.000794688 -1.96914e-005,0.000275679 -5.0635e-005,0.000540107 -8.86112e-005,0.000794688 -0.000139246,0.000928308 -0.00100848,0.00156968 -0.00193679,0.00143044 -0.000929715,-0.000139246 -0.00157109,-0.00100848 -0.00143185,-0.00193679 2.81306e-005,-0.000184255 5.0635e-005,-0.000367104 6.32937e-005,-0.000541513 1.12522e-005,-0.000158938 1.82849e-005,-0.000341786 1.82849e-005,-0.000541513 0,-0.00195085 -0.000791875,-0.00371886 -0.002069,-0.00499599 -0.00127713,-0.00127713 -0.00304513,-0.002069 -0.00499599,-0.002069z"/>
    <path id="_164205712" class="fil0" d="M0.299662 0.0356273c-0.00106615,0.000108303 -0.00202118,-0.000668101 -0.00212948,-0.00173425 -0.000109709,-0.00106755 0.000668101,-0.00202118 0.00173425,-0.00213089 0.000350225,-3.51632e-005 0.00070889,-6.32937e-005 0.00107037,-8.15786e-005 0.000428991,-2.10979e-005 0.000787656,-3.23501e-005 0.00108303,-3.23501e-005 0.00581599,0 0.0110848,0.00236156 0.0148979,0.00617325 0.00381169,0.0038131 0.00617184,0.00908195 0.00617184,0.0148993 0,0.000677946 -3.93828e-005,0.00138965 -0.000112522,0.00212808 -7.17329e-005,0.00071311 -0.000180036,0.00141919 -0.000322095,0.0021126 -0.000212386,0.00105068 -0.00123915,0.00172862 -0.00228983,0.00151483 -0.00104927,-0.000213792 -0.00172722,-0.00123915 -0.00151342,-0.00228983 0.000113929,-0.000561205 0.00020254,-0.00113788 0.000260208,-0.00171737 5.34481e-005,-0.000534481 8.15786e-005,-0.00111819 8.15786e-005,-0.00174831 0,-0.00474281 -0.00192272,-0.00903694 -0.00502974,-0.0121454 -0.00310843,-0.00310702 -0.00740396,-0.00503115 -0.012144,-0.00503115 -0.000364291,0 -0.000663881,5.62611e-006 -0.000883299,1.68783e-005l-8.43917e-006 0c-0.000285525,1.26587e-005 -0.000576676,3.65697e-005 -0.000866421,6.61068e-005z"/>
   </g>
   <g>
    <path id="_164457248" class="fil0" d="M0.0908786 0.0840724c0.0019818,-0.00147967 0.00360352,-0.00329549 0.00472312,-0.00532793 0.00110131,-0.00199868 0.00171878,-0.00422099 0.00171878,-0.00655301l0 -1.40653e-006c0,-0.00437993 -0.00216465,-0.00836462 -0.00566268,-0.0112663 -0.00359227,-0.00297903 -0.00857419,-0.00482298 -0.0140807,-0.00482298l0 5.62611e-006 -2.81306e-006 0 -2.81306e-006 0c-0.00551359,0 -0.0104927,0.00184255 -0.0140807,0.00481736 -0.00349803,0.00290167 -0.00566268,0.00688777 -0.00566268,0.0112663l0 1.40653e-006c0,0.00438133 0.00216465,0.00836743 0.00566268,0.0112691 0.00358946,0.00297621 0.00856857,0.00481736 0.0140836,0.00481736 0.00114773,0 0.00225607,-7.7359e-005 0.00331378,-0.000225044 0.00109147,-0.000151905 0.00217168,-0.000382576 0.00322095,-0.000683572l0.00010127 -2.53175e-005c0.00013784,-3.79762e-005 0.000279899,-6.75133e-005 0.000426178,-8.86112e-005l0 -2.81306e-006c0.000192694,-2.81306e-005 0.000386795,-4.36024e-005 0.000572457,-4.36024e-005 0.000360071,0 0.000718736,5.90742e-005 0.00107599,0.00016597l0 -4.21958e-006c0.000323501,9.70504e-005 0.000624498,0.000230671 0.00090721,0.000392421l0.000122368 7.7359e-005 0.00256691 0.00147404 -0.00043743 -0.00162313c-7.59525e-005,-0.000347412 -0.000140653,-0.000687792 -0.000129401,-0.00104786 2.25044e-005,-0.000452902 0.000146279,-0.000887519 0.000346006,-0.00127572 0.000296777,-0.000572457 0.000722955,-0.000919869 0.00121805,-0.00129541zm0.00770496 -0.00368932c-0.00138262,0.00250925 -0.0033827,0.00473156 -0.00582584,0.00652348l0.000940967 0.00349522 -2.81306e-006 1.40653e-006 2.53175e-005 8.57982e-005c7.7359e-005,0.000255988 0.000153312,0.000520415 0.000153312,0.000870641 0,0.000579489 -0.000209573,0.00111538 -0.000556985,0.00153452 -4.64154e-005,6.04807e-005 -9.70504e-005,0.000119555 -0.000153312,0.000174409 -0.000436024,0.000436024 -0.00104083,0.000707483 -0.00170893,0.000707483 -0.000219418,0 -0.000430397,-3.37567e-005 -0.000628718,-9.14243e-005l-1.26587e-005 -2.81306e-006 -0.000126587 -3.79762e-005c-0.000177222,-6.04807e-005 -0.000331941,-0.000139246 -0.000483846,-0.000225044l1.40653e-006 -2.81306e-006 -8.43917e-006 -4.21958e-006 -0.00457262 -0.0026288 -0.000122368 -6.32937e-005c-7.03264e-005,-3.93828e-005 -0.000135027,-7.03264e-005 -0.000188475,-8.57982e-005l1.40653e-006 -5.62611e-006 -8.43917e-006 -1.40653e-006c-1.68783e-005,-5.62611e-006 -5.0635e-005,-8.43917e-006 -9.70504e-005,-8.43917e-006l-6.61068e-005 2.81306e-006 0 -2.81306e-006 -1.40653e-005 2.81306e-006 -3.23501e-005 7.03264e-006 -5.34481e-005 1.68783e-005c-0.00116742,0.000334754 -0.00240376,0.000597774 -0.00368932,0.000776403 -0.0012504,0.000173003 -0.00251487,0.000265834 -0.00377934,0.000265834 -0.00632937,0 -0.0120793,-0.00214214 -0.0162538,-0.00560361 -0.00426319,-0.00353601 -0.00690183,-0.00844761 -0.00690183,-0.0138923l0 -1.40653e-006c0,-0.00544326 0.00263865,-0.0103535 0.00690183,-0.0138895 0.00417457,-0.00346146 0.00992305,-0.0056022 0.016251,-0.0056022l2.81306e-006 0 2.81306e-006 0 0 5.62611e-006c0.00633219,1.40653e-006 0.0120835,0.00213933 0.016251,0.00559657 0.00426319,0.00353601 0.00690183,0.00844479 0.00690183,0.0138895l0 1.40653e-006c0,0.00291855 -0.000770777,0.00569644 -0.00214636,0.00819162z"/>
    <path id="_164457416" class="fil0" d="M0.0535507 0.036709c-0.00664303,0 -0.0126405,0.00221809 -0.0169627,0.00580474 -0.00422099,0.00349803 -0.00683151,0.00830977 -0.00683151,0.0135969 0,0.00281587 0.00074546,0.00549812 0.00207463,0.00791172 0.00140793,0.00255425 0.0034685,0.00482017 0.00599603,0.00664162l0 0c0.000475406,0.00033616 0.000867828,0.000782029 0.00113366,0.00129541 2.6724e-005,5.0635e-005 5.0635e-005,0.000104083 7.31394e-005,0.000156125 0.000215199,0.000466967 0.000337567,0.000984569 0.000337567,0.00152327 0,0.000199727 -2.6724e-005,0.0004093 -6.47003e-005,0.000623092 -2.95371e-005,0.000160344 -6.47003e-005,0.000296777 -9.98635e-005,0.000421958l4.21958e-006 1.40653e-006 -0.000585116 0.00217168 0.00343052 -0.00197055 2.81306e-006 -1.40653e-006 -2.81306e-006 -5.62611e-006c0.000326314,-0.000187068 0.000682166,-0.000344599 0.00107037,-0.000459935l-1.40653e-006 -1.40653e-006c0.000406487,-0.000122368 0.000827038,-0.000189881 0.00126447,-0.000189881 0.000216605,0 0.00044165,1.82849e-005 0.000666694,5.0635e-005l8.43917e-006 1.40653e-006 0 -1.40653e-006c0.000188475,2.81306e-005 0.000395234,7.7359e-005 0.000613246,0.000142059l1.40653e-006 -2.81306e-006c0.00126025,0.000358665 0.00256129,0.000638564 0.00388202,0.000821412 0.000938154,0.000129401 0.00190444,0.000215199 0.00289745,0.000251768l-6.18872e-005 -0.000348819c-0.000161751,-0.000981756 -0.000247549,-0.00196633 -0.000247549,-0.00294808 0,-0.00598478 0.00290026,-0.0113816 0.0075854,-0.0152679 0.0043307,-0.00359087 0.0102058,-0.00588913 0.0167053,-0.00612965 -0.00128275,-0.00367244 -0.00386373,-0.00691027 -0.00730972,-0.00934919 -0.00417176,-0.00295371 -0.00961221,-0.00473859 -0.0155801,-0.00473859zm-0.0194424 0.00280602c0.00499177,-0.00413941 0.0118683,-0.0067021 0.0194424,-0.0067021 0.00677665,0 0.0130019,0.00205916 0.0178165,0.00546999 0.00496786,0.00351491 0.00844339,0.00847574 0.00951657,0.0141201l-1.40653e-006 0c2.6724e-005,0.000140653 3.65697e-005,0.000285525 3.09436e-005,0.000433211 -4.07893e-005,0.00107177 -0.00094378,0.00190585 -0.00201555,0.00186365l-0.000697638 -2.6724e-005 -0.000625905 -1.40653e-006c-0.00601572,0 -0.0114463,0.00200852 -0.0153593,0.00525338 -0.00381028,0.00316047 -0.00616903,0.00750101 -0.00616903,0.0122691 0,0.000807347 6.47003e-005,0.00158375 0.000187068,0.00232499 0.000129401,0.000779216 0.000323501,0.00154577 0.000572457,0.00228983 5.76676e-005,0.000173003 9.14243e-005,0.000357258 9.84569e-005,0.000547139 3.65697e-005,0.00107177 -0.000800314,0.00197195 -0.00187209,0.00200852l-0.00070467 2.53175e-005 0 0 -2.25044e-005 0 -0.000753899 1.68783e-005c-0.00151764,0 -0.00303107,-0.000108303 -0.00452058,-0.000316469 -0.0015303,-0.000212386 -0.00300856,-0.000527448 -0.0044165,-0.000929715l1.40653e-006 -2.81306e-006 -3.93828e-005 -1.26587e-005 -9.00178e-005 -1.54718e-005 -9.56439e-005 -5.62611e-006c-5.62611e-005,0 -0.000109709,8.43917e-006 -0.000154718,2.10979e-005l0 -1.40653e-006 -7.03264e-006 1.40653e-006c-6.18872e-005,1.82849e-005 -0.000144872,5.90742e-005 -0.00023911,0.000112522l-2.81306e-006 -4.21958e-006 -0.00558813 0.00320829 -2.95371e-005 1.82849e-005c-0.000142059,8.29851e-005 -0.000291151,0.000160344 -0.000458528,0.000229264l-5.0635e-005 1.96914e-005 -1.26587e-005 5.62611e-006 -3.37567e-005 1.26587e-005c-0.000293964,0.00010549 -0.000594961,0.000167377 -0.000919869,0.000167377 -0.000769371,0 -0.00146701,-0.000315062 -0.00197758,-0.000821412 -0.00051057,-0.000507757 -0.000829851,-0.00120961 -0.000829851,-0.00198039 0,-0.000438837 9.28308e-005,-0.000739834 0.000178629,-0.0010338l2.81306e-006 1.40653e-006 9.84569e-006 -3.51632e-005 1.54718e-005 -5.90742e-005 0.00114632 -0.00425897c-0.00294527,-0.00214917 -0.00535465,-0.00481876 -0.00701576,-0.00783295 -0.00164282,-0.00298043 -0.00256269,-0.00629562 -0.00256269,-0.00978381 0,-0.00650238 0.00315203,-0.0123704 0.00824788,-0.0165956z"/>
    <path id="_164457848" class="fil1" d="M0.0415362 0.0492791c0,0.00188615 0.00153593,0.00341505 0.00343193,0.00341505 0.001896,0 0.00343193,-0.0015289 0.00343193,-0.00341505 0,-0.00188615 -0.00153593,-0.00341646 -0.00343193,-0.00341646 -0.001896,0 -0.00343193,0.0015303 -0.00343193,0.00341646zm0.0403294 0.0172201c0,0.0015725 0.00128135,0.00284681 0.00285947,0.00284681 0.00157953,0 0.00285947,-0.00127431 0.00285947,-0.00284681 0,-0.00157109 -0.00127994,-0.00284681 -0.00285947,-0.00284681 -0.00157812,0 -0.00285947,0.00127431 -0.00285947,0.00284681zm-0.014303 0c0,0.0015725 0.00128275,0.00284681 0.00286228,0.00284681 0.00157953,0 0.00286088,-0.00127431 0.00286088,-0.00284681 0,-0.00157109 -0.00128135,-0.00284681 -0.00286088,-0.00284681 -0.00157953,0 -0.00286228,0.00127431 -0.00286228,0.00284681zm-0.00886394 -0.0172201c0,0.00188615 0.00153593,0.00341505 0.00343193,0.00341505 0.00189459,0 0.00343052,-0.0015289 0.00343052,-0.00341505 0,-0.00188615 -0.00153593,-0.00341646 -0.00343052,-0.00341646 -0.001896,0 -0.00343193,0.0015303 -0.00343193,0.00341646z"/>
   </g>
   <path id="_221598576" class="fil2" d="M0.22302 0.0632909c0,0.0166069 0.00673164,0.0316427 0.0176139,0.0425236 0.0108795,0.0108823 0.0259167,0.0176154 0.0425207,0.0176154 0.0166069,0 0.0316427,-0.00673305 0.0425236,-0.0176139 0.0108809,-0.0108823 0.0176125,-0.0259167 0.0176125,-0.0425236 0,-0.0166041 -0.00673164,-0.0316412 -0.0176125,-0.0425207 -0.0108809,-0.0108823 -0.0259167,-0.0176125 -0.0425236,-0.0176125l-4.21958e-006 0c-0.0166027,0 -0.031637,0.00673164 -0.0425165,0.0176125 -0.0108851,0.0108823 -0.0176182,0.0259181 -0.0176182,0.0425165l4.21958e-006 0 0 2.81306e-006zm0.015379 0.0447571c-0.0114519,-0.0114534 -0.0185366,-0.0272782 -0.0185366,-0.0447557l0 -1.40653e-006 0 -2.81306e-006 2.81306e-006 0c1.40653e-006,-0.0174761 0.00708468,-0.033301 0.0185338,-0.0447515 0.0114534,-0.0114505 0.0272754,-0.0185366 0.0447515,-0.0185366l4.21958e-006 0c0.0174803,0 0.0333038,0.00708468 0.0447571,0.0185366 0.0114519,0.0114534 0.018538,0.0272782 0.018538,0.0447557 0,0.0174775 -0.00708609,0.0333038 -0.018538,0.0447571 -0.0114534,0.0114519 -0.0272768,0.0185394 -0.0447571,0.0185394 -0.0174761,0 -0.0333024,-0.00708609 -0.0447557,-0.0185408z"/>
   <path id="_164205568" class="fil2" d="M0.00315765 0.0632909c0,0.0166069 0.00673305,0.0316427 0.0176139,0.0425236 0.0108809,0.0108823 0.0259167,0.0176154 0.0425207,0.0176154 0.0166069,0 0.0316427,-0.00673305 0.042525,-0.0176139 0.0108795,-0.0108823 0.0176125,-0.0259167 0.0176125,-0.0425236 0,-0.0166041 -0.00673305,-0.0316412 -0.0176125,-0.0425207 -0.0108823,-0.0108823 -0.0259181,-0.0176125 -0.042525,-0.0176125l-4.21958e-006 0c-0.0166012,0 -0.0316356,0.00673164 -0.0425165,0.0176125 -0.0108837,0.0108823 -0.0176168,0.0259181 -0.0176168,0.0425165l2.81306e-006 0 0 2.81306e-006zm0.0153804 0.0447571c-0.0114519,-0.0114534 -0.018538,-0.0272782 -0.018538,-0.0447557l0 -1.40653e-006 0 -2.81306e-006 2.81306e-006 0c1.40653e-006,-0.0174761 0.00708468,-0.033301 0.0185352,-0.0447515 0.0114519,-0.0114505 0.0272754,-0.0185366 0.0447501,-0.0185366l4.21958e-006 0c0.0174803,0 0.0333052,0.00708468 0.0447585,0.0185366 0.0114519,0.0114534 0.0185366,0.0272782 0.0185366,0.0447557 0,0.0174775 -0.00708468,0.0333038 -0.0185366,0.0447571 -0.0114534,0.0114519 -0.0272782,0.0185394 -0.0447585,0.0185394 -0.0174761,0 -0.0333024,-0.00708609 -0.0447543,-0.0185408z"/>
  </g>
 </g>
</svg>
