<?xml version="1.0" encoding="UTF-8"?>
<!DOCTYPE svg PUBLIC "-//W3C//DTD SVG 1.1//EN" "http://www.w3.org/Graphics/SVG/1.1/DTD/svg11.dtd">
<!-- Creator: CorelDRAW -->
<svg xmlns="http://www.w3.org/2000/svg" xml:space="preserve" width="18mm" height="23.0252mm" style="shape-rendering:geometricPrecision; text-rendering:geometricPrecision; image-rendering:optimizeQuality; fill-rule:evenodd; clip-rule:evenodd"
viewBox="0 0 0.253616 0.32442"
 xmlns:xlink="http://www.w3.org/1999/xlink">
 <defs>
  <style type="text/css">
   <![CDATA[
    .fil2 {fill:white}
    .fil1 {fill:#F8C300}
    .fil0 {fill:black;fill-rule:nonzero}
   ]]>
  </style>
 </defs>
 <g id="图层_x0020_1">
  <metadata id="CorelCorpID_0Corel-Layer"/>
  <g id="_194890616">
   <path id="_194891072" class="fil0" d="M0.0615893 0.30907c0.00214588,-0.00142448 0.00406491,-0.0030124 0.00573877,-0.00475953 -0.0016316,-0.00347736 -0.00262634,-0.0079861 -0.00297717,-0.0135248l-0.018321 0 0 0.0055387c0,0.00679128 -0.00168091,0.0122736 -0.00503147,0.0164386 -0.000586135,-0.00117368 -0.00131599,-0.00224028 -0.00218251,-0.00319134 0.00279823,-0.00307017 0.00419453,-0.00750704 0.00419453,-0.0132909l0 -0.00817913 0.0211981 0c-8.59477e-005,-0.00170346 -0.000136671,-0.00334914 -0.000150761,-0.00494552l0.00310539 0c0,0.00159637 3.66335e-005,0.00324206 0.000108491,0.00494552l0.0122229 0 0 0.00268411 -0.0120806 0c0.000294477,0.00430725 0.00103137,0.00792128 0.00220505,0.0108421 0.0018824,-0.00249108 0.00337028,-0.00526113 0.00446506,-0.00832425l0.00284896 0.00142448c-0.00161751,0.00366476 -0.00357176,0.00692091 -0.00584726,0.00976986 0.000501597,0.000815799 0.00105251,0.00153861 0.00165273,0.00218251 0.000673492,0.000701672 0.00130331,0.00104405 0.00188944,0.00104405 0.000529776,0 0.00096656,-0.000443829 0.00129626,-0.00133853 0.000421285,-0.00117368 0.000843979,-0.00274047 0.00125963,-0.00469472 0.000729851,0.000387469 0.00175982,0.000838343 0.00310539,0.00133853 -0.000643904,0.00249108 -0.00120186,0.00432275 -0.00168232,0.00549643 -0.000808754,0.00195425 -0.00199652,0.0029349 -0.00356331,0.0029349 -0.00128076,0 -0.00265593,-0.000673492 -0.00410858,-0.00201202 -0.000750986,-0.000700263 -0.00144561,-0.00150197 -0.00207543,-0.00241076 -0.00150902,0.00156679 -0.00313357,0.00298422 -0.0048807,0.00425794 -0.000672083,-0.000758031 -0.00147379,-0.00149634 -0.00238963,-0.00222619zm-0.0127104 -0.0098544l0.0129175 0 0 0.00905974 -0.0100629 0 0 0.00117368 -0.00285459 0 0 -0.0102334zm0.000500188 0.0127034l0.00319275 0 0 0.0057895c0,0.00173164 0.000894702,0.00259816 0.0026827,0.00259816l0.00754368 0c0.00215433,0 0.00338578,-0.000808754 0.00369294,-0.00243331 0.00022121,-0.000915837 0.000479053,-0.00241217 0.000758031,-0.0044876 0.000945425,0.000393105 0.00205429,0.000815799 0.00330687,0.00125963 -0.000357881,0.00190353 -0.000722806,0.00345623 -0.00108773,0.0046595 -0.000672083,0.00262634 -0.00267002,0.00393528 -0.00599662,0.00393528l-0.00888925 0c-0.00346327,0 -0.00520336,-0.00171755 -0.00520336,-0.00515264l0 -0.00616851zm-0.00179645 -0.0181138l0.0152592 0 0 0.00251926 -0.0152592 0 0 -0.00251926zm-0.00402827 0.0179067l0.00297717 0.00117368c-0.00142448,0.00360699 -0.00297717,0.00671238 -0.00465245,0.00931054 -0.000701672,-0.000422694 -0.00163864,-0.00095247 -0.00281232,-0.00159637 0.00181758,-0.00262634 0.00331392,-0.00558942 0.0044876,-0.00888784zm0.0153861 -0.00595435l0 -0.00402264 -0.00720693 0 0 0.00402264 0.00720693 0zm0.0132543 0.00859477l0.00234736 -0.00167528c0.0017894,0.00206838 0.00360699,0.00441574 0.00545416,0.00704208l-0.00277005 0.00197539c-0.00133853,-0.00221069 -0.00301944,-0.00465809 -0.00503147,-0.00734219zm-0.0161455 -0.0029349l0.00226846 -0.00171755c0.00184013,0.00195425 0.00349286,0.00382961 0.00494552,0.00561901l-0.00264043 0.00201061c-0.00151043,-0.00217546 -0.00303494,-0.00415085 -0.00457355,-0.00591208zm0.0197962 -0.025456l-0.00205429 0.00206134c-0.00120186,-0.00112437 -0.00251926,-0.00225437 -0.00394373,-0.00339987l0.00184717 -0.00193171c0.00145266,0.0010666 0.00283346,0.00215433 0.00415085,0.00327024zm0.0158736 0.0345172c0.00528086,-0.00292081 0.00939648,-0.00631927 0.0123511,-0.0101911l-0.0107561 0 0 -0.00272638 0.00251221 0 0 -0.0204189 0.00415085 0c0.000601634,-0.00138784 0.00118777,-0.00288418 0.00176122,-0.0044876l0.00297717 0.000838343c-0.000601634,0.00132303 -0.00118918,0.00254039 -0.00176122,0.00364926l0.00650526 0 0 0.031447c0,0.00315611 -0.00153861,0.00475108 -0.00461582,0.00478067 -0.00100883,0 -0.00228959,0 -0.00385779,0 -0.000164851,-0.00105955 -0.000379015,-0.00209656 -0.000629814,-0.0031068 0.0013963,0.000171895 0.00261225,0.000257843 0.00365067,0.000257843 0.00167387,0 0.00251221,-0.000865113 0.00251221,-0.0026052l0 -0.00647567c-0.00286305,0.00432134 -0.00704208,0.0081439 -0.0125385,0.0114719 -0.000780575,-0.00098065 -0.00153156,-0.0017894 -0.00226141,-0.00243331zm0.0189141 -0.0272595l0.00800864 0 0 -0.0100629 0.0029335 0 0 0.0100629 0.00394373 0 0 0.00281232 -0.00394373 0 0 0.0225578c0,0.00315611 -0.00158087,0.00475108 -0.00473699,0.00478067 -0.000922882,0 -0.00218251,0 -0.00377888,0 -0.000164851,-0.00108773 -0.000371971,-0.00215433 -0.000622769,-0.0031857 0.00128076,0.000164851 0.00242626,0.000250798 0.00343509,0.000250798 0.00184717,0 0.00277005,-0.000865113 0.00277005,-0.00259816l0 -0.0218054 -0.00800864 0 0 -0.00281232zm-0.0151789 0.0186633c2.11347e-005,0.00117368 0.000121172,0.00230509 0.000293068,0.00339282 -0.00297013,0.00190353 -0.00541048,0.0035929 -0.00734219,0.00507374l-0.00192607 -0.00251221c0.000924291,-0.000893293 0.00138221,-0.00209656 0.00138221,-0.00360699l0 -0.0141772 -0.00390006 0 0 -0.00284755 0.00683355 0 0 0.017863c0.00153861,-0.00100883 0.00309271,-0.00206838 0.0046595,-0.0031857zm0.00330687 -0.00432134l0.00775784 0 0 -0.00419453 -0.00775784 0 0 0.00419453zm0 -0.00679269l0.00775784 0 0 -0.00415085 -0.00775784 0 0 0.00415085zm0.00775784 -0.0109069l-0.00775784 0 0 0.00415085 0.00775784 0 0 -0.00415085zm-0.0176926 -0.0061192c0.00237695,0.00315611 0.00406631,0.00553306 0.00507514,0.00712944l-0.00302085 0.00196694c-0.00123004,-0.00223182 -0.00282641,-0.00470881 -0.00478067,-0.00742109l0.00272638 -0.00167528zm0.0246121 0.0155594c0.00120327,0.00262634 0.00243331,0.0056176 0.00369294,0.00897379l-0.00289123 0.00129626c-0.00112296,-0.00334914 -0.00225437,-0.00641227 -0.00339987,-0.00918232l0.00259816 -0.00108773z"/>
   <path id="_194888216" class="fil0" d="M0.149315 0.290284l0.00838765 0 0 -0.00721397 0.00314907 0 0 0.00721397 0.00926686 0 0 0.00281232 -0.00926686 0 0 0.00657712 0.00783674 0 0 0.00268411c-0.00151043,0.00493847 -0.00381552,0.0092105 -0.00691386,0.0128175 0.00259816,0.00230368 0.00575427,0.0041579 0.00947539,0.00555279 -0.00078762,0.000894702 -0.00156679,0.00191199 -0.00234736,0.00306312 -0.00366476,-0.00178799 -0.00678424,-0.00387892 -0.00935421,-0.00626855 -0.00291941,0.00276301 -0.00639818,0.00506669 -0.0104405,0.00689836 -0.000701672,-0.00106519 -0.00141039,-0.00204584 -0.00214024,-0.00294054 0.00405786,-0.00174713 0.00747182,-0.00387188 0.0102546,-0.00637 -0.0030913,-0.00360699 -0.00515264,-0.0078142 -0.0061826,-0.0126245l-0.00151043 0 0 -0.00281232 0.00817349 0 0 -0.00657712 -0.00838765 0 0 -0.00281232zm-0.0181561 0.00994035l0.0167316 0 0 0.0108999 -0.00301944 0 0 -0.00108773 -0.0106927 0 0 0.00108773 -0.00301944 0 0 -0.0108999zm-0.000294477 -0.0057895l0.00729992 0 0 -0.00419312 -0.00826507 0 0 -0.00268411 0.00826507 0 0 -0.0044876 0.00306312 0 0 0.0044876 0.00775784 0 0 0.00268411 -0.00775784 0 0 0.00419312 0.00699981 0 0 0.00268411 -0.0173629 0 0 -0.00268411zm-0.00117368 0.025163c0.00312089,-0.000307158 0.00664897,-0.000694627 0.0105927,-0.00115255 0.00133853,-0.00221069 0.00248967,-0.00452282 0.00345623,-0.00694204l0.00306312 0.00121736c-0.00095247,0.00175982 -0.00194721,0.00352808 -0.00297717,0.00530199 0.00168937,-0.00022121 0.00344918,-0.000457918 0.00528226,-0.000693218 -0.000136671,0.000894702 -0.000236709,0.00181758 -0.000294477,0.00277005 -0.00690541,0.00103701 -0.0130246,0.00193876 -0.0183632,0.00272638l-0.00075944 -0.00322797zm0.035519 -0.0171121l-0.0110492 0c0.00108069,0.00401559 0.00285459,0.00745773 0.00532453,0.0103349 0.00266861,-0.00299126 0.00457918,-0.00643481 0.00572468,-0.0103349zm-0.0203386 0.000336746l-0.0106927 0 0 0.00460877 0.0106927 0 0 -0.00460877zm-0.0125385 0.0103123l0.00247558 -0.0013808c0.0011455,0.00159637 0.00222619,0.00332801 0.00322797,0.00520336l-0.00268411 0.00146675c-0.000780575,-0.00162455 -0.0017894,-0.00338578 -0.00301944,-0.00528931zm0.0671999 -0.0213404l0.0036718 0c5.77682e-005,-0.00300676 9.29926e-005,-0.00591208 0.000107082,-0.0087244l0.00306312 0c-5.63592e-005,0.00329983 -0.000114127,0.00620515 -0.000171895,0.0087244l0.00859618 0c-0.000308567,0.0124948 -0.000543866,0.0208106 -0.000708717,0.0249474 -0.000171895,0.00428048 -0.00186126,0.00641931 -0.00507514,0.00641931 -0.000893293,0 -0.00251785,-2.81796e-005 -0.00486521,-8.45388e-005 -0.000164851,-0.00128922 -0.000380424,-0.00247699 -0.000629814,-0.00356472 0.00226846,0.00019303 0.00390006,0.000293068 0.00490888,0.000293068 0.00153861,0 0.00237554,-0.00100883 0.00251221,-0.00301944 0.000250798,-0.00444392 0.000493143,-0.0117298 0.000715762,-0.021849l-0.00551756 0c-4.36784e-005,0.00223887 -7.1858e-005,0.00405786 -0.000101447,0.00545275 -0.000170487,0.0106491 -0.0026827,0.0186507 -0.00754931,0.0239893 -0.000587544,-0.000866522 -0.00130331,-0.0017894 -0.00214024,-0.00277005 0.00427907,-0.00483703 0.00649821,-0.0117298 0.00667011,-0.0206754 5.77682e-005,-0.0020402 0.000100038,-0.00403673 0.000143716,-0.00599662l-0.00362953 0 0 -0.00314202zm-0.0169824 0.00180349l0.0156876 0 0 0.0029335 -0.00918232 0c-4.22694e-005,0.00226141 -9.29926e-005,0.00432275 -0.000149352,0.00616288l0.00807204 0c-0.000250798,0.00718439 -0.000472008,0.0122877 -0.000672083,0.0153072 -0.000308567,0.00321388 -0.00185422,0.00482435 -0.00465245,0.00482435 -0.000780575,0 -0.00196834,-1.40898e-005 -0.00356472,-4.36784e-005 -0.000170487,-0.000922882 -0.000379015,-0.00195285 -0.000629814,-0.00310539 0.00156819,0.000171895 0.00272778,0.000257843 0.00347877,0.000257843 0.00153861,2.11347e-005 0.00237554,-0.000894702 0.00251926,-0.00277005 0.00019303,-0.00259816 0.000379015,-0.00649821 0.000543866,-0.0117016l-0.00521745 0c-0.000128217,0.00259816 -0.000286023,0.00466654 -0.000486098,0.00620515 -0.000501597,0.00464541 -0.00224732,0.00881035 -0.00523859,0.0124962 -0.000557956,-0.000752395 -0.00127372,-0.00158933 -0.00214024,-0.00251221 0.00246149,-0.00296308 0.00394373,-0.00643481 0.00444392,-0.0103997 0.000379015,-0.00243331 0.000629814,-0.00734219 0.000752395,-0.014721l-0.00356472 0 0 -0.0029335zm-0.0012089 -0.0049892l0 0.0154734c0,0.00902451 -0.00127372,0.0156805 -0.00382256,0.0199596 -0.000750986,-0.000729851 -0.00160201,-0.00146675 -0.00255448,-0.00222478 0.00220364,-0.00365771 0.00331392,-0.0096191 0.00331392,-0.017863l0 -0.0182857 0.0206317 0 0 0.00294054 -0.0175686 0z"/>
  </g>
  <path class="fil1" d="M1.40898e-006 0.126807c0,0.0700319 0.0567734,0.126807 0.126808,0.126807 0.0700319,-1.40898e-006 0.126805,-0.0567748 0.126805,-0.126804 0,-0.070039 -0.0567748,-0.126808 -0.126805,-0.126808 -0.0700347,-4.22694e-006 -0.126808,0.0567734 -0.126808,0.126808l0 -2.81796e-006z"/>
  <g id="_178826176">
   <path id="_194872760" class="fil2" d="M0.136141 0.108131l0 0zm-0.000307158 -0.0036253l0 0zm-0.00606566 -0.0244134l0 0zm-0.0230058 0.0323882l0 0.0448309 0.0529734 0c0.00367321,0 0.00489761,-0.00243894 0.00514278,-0.00304058 0.000463554,-0.00189508 0.007438,-0.0305495 0.00840315,-0.0388329 0.000570637,-0.00487507 -0.00407195,-0.005774 -0.00513009,-0.0059149l-0.0286023 -2.81796e-006c-0.00157242,4.08604e-005 -0.00237977,4.36784e-005 -0.00340832,-0.00138925 -0.00106801,-0.00128076 -0.000711535,-0.00236427 -0.000307158,-0.0036253 0.0014442,-0.00467922 0.00479617,-0.0168655 0.00471867,-0.021873 -7.32669e-005,-0.00475671 5.49502e-005,-0.00650949 -0.00375352,-0.00809459 -0.00739432,-0.000245162 -0.00701813,0.00295745 -0.00703081,0.0055542 0.000150761,0.0126202 -0.00530763,0.0222999 -0.0153184,0.028677 -0.00303917,0.00193735 -0.0058219,0.00308144 -0.00768739,0.00371125z"/>
   <path id="_194872880" class="fil0" d="M0.104001 0.106801c0.00143434,-0.00042833 0.00409731,-0.00139207 0.00709139,-0.00330124 0.00198807,-0.00126667 0.00413113,-0.0029659 0.00616006,-0.00522027 0.00192326,-0.00213742 0.00361262,-0.00477926 0.00474403,-0.00802696 0.000994739,-0.00286305 0.00157242,-0.0062136 0.0015217,-0.0101235l0 -3.66335e-005 -1.26808e-005 0c0,-0.000436784 0.000274751,-0.00466654 0.00309975,-0.00758313 0.0015696,-0.00162033 0.00384651,-0.002856 0.00712521,-0.00290954 0.000518504,-7.0449e-006 0.000983468,1.40898e-006 0.00138925,2.53616e-005l1.26808e-005 1.40898e-006 0 -1.40898e-006c0.00360135,0.000226846 0.00648835,0.00156256 0.0085356,0.00386624l7.0449e-006 -5.63592e-006c0.00198525,0.00223464 0.00306453,0.00529917 0.00312653,0.00904706 8.45388e-006,0.000597407 -2.81796e-006,0.00117086 -3.52245e-005,0.0017105 -0.000194439,0.00312793 -0.00109196,0.00750282 -0.00209233,0.0116128 -0.000669265,0.00275174 -0.00137939,0.00536398 -0.00195285,0.00739292l0.0255138 0c0.000195848,0 0.000388878,1.69078e-005 0.000574864,5.21322e-005 0.00182886,0.00022121 0.0119735,0.00194298 0.0106984,0.0128471 -0.00103701,0.00889771 -0.00855391,0.0396332 -0.00857364,0.0397191 -4.93143e-005,0.000201484 -0.000116945,0.000391696 -0.000200075,0.000572046 -0.000590362,0.00146111 -0.00337732,0.00714634 -0.0109985,0.00714634l-0.0553785 0c-0.00127513,0 -0.00216701,-0.000363517 -0.00292786,-0.0012075 -0.000102856,-0.000115536 -0.000197257,-0.000236709 -0.000280387,-0.000362108 -0.000512869,-0.000712944 -0.000660811,-0.00143152 -0.000660811,-0.00231214l0 -0.0483886c0,-0.00102856 0.000343791,-0.00200075 0.000941198,-0.00279823l4.22694e-006 -7.0449e-006 -4.22694e-006 -4.22694e-006c0.000587544,-0.000780575 0.00142307,-0.00137375 0.00241922,-0.00166541l0.00015217 -3.94514e-005zm0.010449 0.00196834c-0.00303917,0.00193735 -0.0058219,0.00308144 -0.00768739,0.00371125l0 0.0448309 0.0529734 0c0.00367321,0 0.00489761,-0.00243894 0.00514278,-0.00304058 0.000463554,-0.00189508 0.007438,-0.0305495 0.00840315,-0.0388329 0.000570637,-0.00487507 -0.00407195,-0.005774 -0.00513009,-0.0059149l-0.0280218 0 -0.000567819 -2.81796e-006 -1.26808e-005 0c-0.00157242,4.08604e-005 -0.00237977,4.36784e-005 -0.00341537,-0.00138362l7.0449e-006 -5.63592e-006 -7.0449e-006 -7.0449e-006c-0.00101306,-0.00140616 -0.00077353,-0.00213742 -0.000305749,-0.00361967l5.63592e-006 1.40898e-006 0.000159215 -0.000512869 1.26808e-005 -4.50873e-005c0.000591771,-0.0020078 0.00165273,-0.00571623 0.0025883,-0.00956274 0.0009257,-0.00380565 0.00175559,-0.00780293 0.00192326,-0.0105096 2.81796e-005,-0.000474826 4.08604e-005,-0.000890475 3.52245e-005,-0.00124272 -3.52245e-005,-0.00218674 -0.000574864,-0.00387188 -0.00155974,-0.00498074l7.0449e-006 -4.22694e-006 -7.0449e-006 -8.45388e-006c-0.000918655,-0.0010356 -0.00235581,-0.0016471 -0.00425371,-0.00176404l0 -1.40898e-006c-0.000335337,-1.97257e-005 -0.000643904,-2.81796e-005 -0.000910201,-2.39527e-005 -0.00132867,2.11347e-005 -0.00218815,0.0004551 -0.00273765,0.00102151 -0.00119481,0.00123427 -0.00131035,0.00303635 -0.00131035,0.00322093l-1.26808e-005 0c5.49502e-005,0.0046764 -0.000650949,0.00872581 -0.00186549,0.0122187 -0.00143716,0.00412549 -0.00356894,0.00746618 -0.00599521,0.0101602 -0.00242204,0.00269115 -0.00502301,0.00474685 -0.00745773,0.00629814z"/>
   <polygon id="_194875328" class="fil2" points="0.0780363,0.110816 0.0917302,0.110816 0.0917302,0.159766 0.0780363,0.159766 "/>
   <path id="_194882840" class="fil0" d="M0.078669 0.106989l0.0122046 0c0.00128781,0 0.00245585,0.000525549 0.00330124,0.00136953 9.15837e-005,9.15837e-005 0.000176122,0.000187394 0.000253616,0.000287432 0.000694627,0.000815799 0.00111591,0.00187112 0.00111591,0.0030124l0 0.0475967c0,0.00128499 -0.000525549,0.00245585 -0.00136953,0.00329983 -0.000845388,0.000843979 -0.00201625,0.00136953 -0.00330124,0.00136953l-0.0122046 0c-0.00128499,0 -0.00245726,-0.000525549 -0.00330124,-0.00136953 -0.000843979,-0.000843979 -0.00136953,-0.00201484 -0.00136953,-0.00329983l0 -0.0475967c0,-0.00127654 0.000526958,-0.00244599 0.00137657,-0.00329278l-7.0449e-006 -7.0449e-006c0.000843979,-0.000843979 0.00201202,-0.00136953 0.00330124,-0.00136953zm0.0106012 0.00627559l-0.00899774 0 0 0.0443857 0.00899774 0 0 -0.0443857z"/>
  </g>
 </g>
</svg>
