<?xml version="1.0" encoding="UTF-8"?>
<!DOCTYPE svg PUBLIC "-//W3C//DTD SVG 1.1//EN" "http://www.w3.org/Graphics/SVG/1.1/DTD/svg11.dtd">
<!-- Creator: CorelDRAW -->
<svg xmlns="http://www.w3.org/2000/svg" xml:space="preserve" width="35mm" height="5.935mm" style="shape-rendering:geometricPrecision; text-rendering:geometricPrecision; image-rendering:optimizeQuality; fill-rule:evenodd; clip-rule:evenodd"
viewBox="0 0 1.25287 0.21245"
 xmlns:xlink="http://www.w3.org/1999/xlink">
 <defs>
  <style type="text/css">
   <![CDATA[
    .fil0 {fill:#1F1A17;fill-rule:nonzero}
   ]]>
  </style>
 </defs>
 <g id="图层_x0020_1">
  <metadata id="CorelCorpID_0Corel-Layer"/>
  <path class="fil0" d="M0.0725625 -7.15924e-006c0.0200316,0 0.0381731,0.00812574 0.0512995,0.0212522 0.01313,0.01313 0.0212558,0.0312716 0.0212558,0.0512995l-2.14777e-005 6.44332e-005 -3.57962e-006 0.000153924 2.14777e-005 0 0 0.134483 0 0.00520477 -0.00520119 0 -0.134701 0 -0.00520477 -3.57962e-006 0 -0.00520119 0 -0.134701c0,-0.020028 0.00812932,-0.0381695 0.0212558,-0.0512995 0.0131265,-0.0131265 0.0312716,-0.0212522 0.0512995,-0.0212522zm0.043947 0.0286083c-0.0112436,-0.0112436 -0.0267863,-0.018206 -0.043947,-0.018206 -0.0171607,0 -0.0327034,0.00696236 -0.043947,0.018206 -0.0112436,0.0112436 -0.0182024,0.0267827 -0.0182024,0.0439434l0 0.1295 0.124299 0 0 -0.129282 2.14777e-005 -6.08536e-005 0 -0.000157503 -1.78981e-005 0c0,-0.0171607 -0.00696236,-0.0326998 -0.018206,-0.0439434z"/>
  <path class="fil0" d="M0.0314971 0.140343l0.0821308 0 0.00297466 0 0 0.00297109 0 0.0258663 0 0.00297109 -0.00297466 0 -0.0821308 0 -0.00297466 0 0 -0.00297109 0 -0.0258663 0 -0.00297109 0.00297466 0zm0.0791597 0.00594217l-0.0761886 0 0 0.0199242 0.0761886 0 0 -0.0199242z"/>
  <path class="fil0" d="M0.0725625 -7.15924e-006l1.10775 0c0.0200316,0 0.0381731,0.00812574 0.0512995,0.0212522 0.01313,0.01313 0.0212558,0.0312716 0.0212558,0.0512995l-2.14777e-005 0 -3.57962e-006 0.134701 -3.57962e-006 0.00520119 -0.00517613 3.57962e-006 -0.134701 0 -1.0404 0 0 -0.010406 1.0404 0 0.129521 0 3.57962e-006 -0.1295 -2.14777e-005 0c0,-0.0171607 -0.00696236,-0.0326998 -0.018206,-0.0439434 -0.0112436,-0.0112436 -0.0267863,-0.018206 -0.043947,-0.018206l-1.10775 0 0 -0.0104024z"/>
 </g>
</svg>
