<?xml version="1.0" encoding="UTF-8"?>
<!DOCTYPE svg PUBLIC "-//W3C//DTD SVG 1.1//EN" "http://www.w3.org/Graphics/SVG/1.1/DTD/svg11.dtd">
<!-- Creator: CorelDRAW -->
<svg xmlns="http://www.w3.org/2000/svg" xml:space="preserve" width="54.9998mm" height="32.2271mm" style="shape-rendering:geometricPrecision; text-rendering:geometricPrecision; image-rendering:optimizeQuality; fill-rule:evenodd; clip-rule:evenodd"
viewBox="0 0 44.1412 25.8645"
 xmlns:xlink="http://www.w3.org/1999/xlink">
 <defs>
  <style type="text/css">
   <![CDATA[
    .fil9 {fill:none}
    .fil8 {fill:#969594}
    .fil1 {fill:white}
    .fil3 {fill:black}
    .fil6 {fill:#41B281}
    .fil4 {fill:#68B92E}
    .fil0 {fill:#E45F63}
    .fil5 {fill:#F8C300}
    .fil7 {fill:#969594;fill-rule:nonzero}
    .fil2 {fill:black;fill-rule:nonzero}
   ]]>
  </style>
 </defs>
 <g id="图层_x0020_1">
  <metadata id="CorelCorpID_0Corel-Layer"/>
  <path class="fil0" d="M12.0718 21.9012c0,2.18885 1.7744,3.96333 3.96317,3.96333 2.18869,-8.0257e-005 3.96301,-1.77448 3.96301,-3.96325 0,-2.18877 -1.7744,-3.96293 -3.96301,-3.96293 -2.18877,-0.000160514 -3.96317,1.77432 -3.96317,3.96293l0 -8.0257e-005z"/>
  <path class="fil1" d="M13.3716 22.3769c0,-0.875524 1.64744,-2.25787 2.27785,-2.25787 0.264286,-8.0257e-005 0.782827,0.197111 0.419985,0.82119 -0.0100321,0.017496 0.119182,-0.0372392 0.307384,-0.091814 0.281542,-0.0821029 0.695507,-0.163805 0.972153,-0.00361156 0.461237,0.267416 0,0.697032 0,0.744785 0,0.0475924 0.926166,0.0475924 0.926166,0.787482 8.0257e-005,0.875203 -1.08957,1.58516 -2.44647,1.58516 -1.35707,0 -2.45707,-0.709793 -2.45707,-1.58516l0 -0.000160514z"/>
  <path class="fil1" d="M14.6478 22.7264c-0.083708,-0.429696 0.266774,-0.859231 0.782345,-0.959392 0.515731,-0.100402 1.00145,0.166854 1.08499,0.59655 0.083387,0.429616 -0.266774,0.859392 -0.782425,0.959553 -0.0734352,0.014045 -0.145987,0.0209471 -0.217095,0.0209471 -0.428572,-8.0257e-005 -0.79623,-0.249037 -0.867899,-0.617658l8.0257e-005 0z"/>
  <g id="_221587272">
   <path id="_221608320" class="fil2" d="M13.2329 22.3769c0,-0.442537 0.365571,-0.986118 0.825042,-1.44158 0.537321,-0.532585 1.21694,-0.955058 1.59158,-0.955058 0.11565,0 0.272232,0.0316213 0.404094,0.108186 0.0752811,0.0439006 0.143901,0.102809 0.194623,0.179776l0.000321028 -0.000160514c0.052167,0.0791334 0.0843501,0.174479 0.0843501,0.287721l-0.000561799 0c0,0.052167 -0.0069021,0.108186 -0.0219102,0.168058l0.0279294 -0.00818621c0.148636,-0.0433388 0.333147,-0.0867578 0.5183,-0.0980741 0.197191,-0.0121188 0.39647,0.0117175 0.561719,0.107384 0.388043,0.22488 0.299038,0.528974 0.1748,0.743019 -0.00714287,0.0123596 -0.0144463,0.0243981 -0.0218299,0.0360354 0.306421,0.069021 0.842618,0.24358 0.842618,0.873036l0 0c0,0.487481 -0.29655,0.92448 -0.777771,1.23668 -0.463003,0.300562 -1.10145,0.486598 -1.80723,0.486598l0 0.000561799 -0.000240771 0c-0.705379,0 -1.34631,-0.185955 -1.81212,-0.486438 -0.48411,-0.31228 -0.78371,-0.7496 -0.78371,-1.2374l0 -0.000160514zm1.02015 -1.24535c-0.413564,0.409953 -0.742618,0.884031 -0.742618,1.24535l0 0.000160514c0,0.387401 0.250643,0.743019 0.6557,1.00434 0.423275,0.272954 1.01108,0.442056 1.6626,0.442056l0.000240771 0 0 0.000561799c0.650884,0 1.2358,-0.169101 1.65658,-0.442216 0.402649,-0.261317 0.650965,-0.616936 0.650965,-1.00474l0 0c0,-0.477208 -0.510033,-0.58074 -0.716294,-0.622473 -0.128973,-0.0260033 -0.209952,-0.0431783 -0.209952,-0.165008 0,-0.0536117 0.0270466,-0.0910114 0.0658107,-0.144463l0.000321028 0.000160514c0.0216694,-0.0301766 0.0504817,-0.0699841 0.0772072,-0.116052 0.0621992,-0.107304 0.108828,-0.258668 -0.073997,-0.364608 -0.111316,-0.0644464 -0.257464,-0.0797755 -0.406742,-0.0706262 -0.161076,0.00987161 -0.32472,0.0485555 -0.457545,0.0872394 -0.0781703,0.0226325 -0.149439,0.0467096 -0.202408,0.0645266 -0.0443821,0.0149278 -0.0808991,0.0272071 -0.113323,0.0324238 -0.0313002,0.0069021 -0.0650082,0.00313002 -0.0954256,-0.0131621 -0.085554,-0.0460675 -0.100803,-0.110113 -0.0560194,-0.191493l0 8.0257e-005 0.00160514 -0.00280899c0.0755218,-0.129936 0.10618,-0.233468 0.10618,-0.315009l-0.000561799 0c0,-0.054976 -0.0144463,-0.0995187 -0.0377208,-0.134832l0.000240771 -8.0257e-005 -0.000240771 -0.000401285c-0.0247994,-0.0375603 -0.0613163,-0.0682184 -0.102809,-0.0923758 -0.0856342,-0.0497593 -0.188684,-0.0703854 -0.26533,-0.0703854 -0.307144,0 -0.904978,0.386598 -1.39647,0.873838z"/>
   <path id="_221611488" class="fil2" d="M14.5278 22.7443c-0.0470306,-0.24984 0.0297753,-0.498075 0.192376,-0.697433 0.158427,-0.194302 0.3996,-0.342778 0.685636,-0.398556l-8.0257e-005 -0.000240771 0.000642056 -0.000160514 0.0074639 -0.0011236c0.283949,-0.0536919 0.560836,-0.00658107 0.779215,0.113483 0.226967,0.1248 0.392136,0.328331 0.441173,0.580419l0.000321028 0.00208668c0.0479937,0.250883 -0.0288925,0.500322 -0.192135,0.700563 -0.158748,0.194784 -0.400482,0.343179 -0.687,0.398797 -0.0384431,0.00738364 -0.0788124,0.0130819 -0.120225,0.0170947 -0.043098,0.00409311 -0.0829857,0.00617979 -0.119583,0.00617979l0 -0.000481542c-0.242055,-8.0257e-005 -0.467818,-0.0717498 -0.642698,-0.196148 -0.176726,-0.125763 -0.302649,-0.305057 -0.344222,-0.519664l-0.000882827 -0.00481542zm0.380258 -0.544704c-0.117978,0.144703 -0.174479,0.321911 -0.142376,0.497834 0.0011236,0.00449439 0.00200642,0.00898878 0.00256822,0.0135634 0.0306582,0.147031 0.120064,0.271429 0.245105,0.360434 0.135073,0.0961479 0.311558,0.151686 0.502248,0.151686l0 -0.000481542c0.0347513,0 0.0671751,-0.00144463 0.0968702,-0.00433388 0.0303371,-0.00288925 0.063082,-0.00770467 0.097432,-0.0142857 0.228973,-0.0443821 0.420386,-0.160996 0.544704,-0.313404 0.117978,-0.144784 0.174639,-0.322152 0.142697,-0.498075 -0.000963084,-0.00409311 -0.00192617,-0.00818621 -0.00248797,-0.0124398 -0.0359551,-0.174479 -0.154896,-0.317497 -0.31846,-0.407385 -0.170787,-0.0939809 -0.389808,-0.130578 -0.616615,-0.0878814 -0.00433388,0.00104334 -0.00866776,0.00184591 -0.0131621,0.00248797 -0.226164,0.0452649 -0.41533,0.161236 -0.538524,0.31228zm1.72649 0.143178c0.00128411,0.0069021 0.00176565,0.0138042 0.00176565,0.0207063"/>
   <path id="_221597736" class="fil3" d="M15.183 22.466c-0.158668,0.073997 -0.242456,0.230418 -0.186999,0.349519 0.0556181,0.118941 0.229134,0.155538 0.387722,0.0815411 0.158748,-0.0741575 0.242537,-0.230578 0.186919,-0.349519 -0.0359551,-0.0773677 -0.12191,-0.119904 -0.221188,-0.119904 -0.0536117,-8.0257e-005 -0.110995,0.0125201 -0.166453,0.0383628l0 0z"/>
   <path id="_221602440" class="fil3" d="M15.591 22.3769c0,0.0876406 0.0709472,0.158588 0.158508,0.158588 0.0874801,0 0.158427,-0.0708669 0.158427,-0.158427 0,-0.0876406 -0.0709472,-0.158588 -0.158427,-0.158588 -0.0875604,-8.0257e-005 -0.158508,0.0709472 -0.158508,0.158588l0 -0.000160514z"/>
   <path id="_221588400" class="fil2" d="M17.4425 20.4597c-0.0670146,0 -0.121429,-0.0544142 -0.121429,-0.121429 0,-0.0670146 0.0544142,-0.121429 0.121429,-0.121429 0.205859,0 0.392537,0.0836278 0.527529,0.21862 0.134912,0.134912 0.21854,0.32167 0.21854,0.527529 0,0.0177368 -0.000882827,0.0367577 -0.00232745,0.0565812 -0.00144463,0.0195827 -0.00369182,0.0384431 -0.0063403,0.0565812 -0.00995187,0.066212 -0.07183,0.111798 -0.138042,0.101926 -0.0661318,-0.00995187 -0.111798,-0.07183 -0.101846,-0.138042 0.00192617,-0.0130819 0.00353131,-0.0260835 0.00441413,-0.0384431 0.00080257,-0.0113965 0.00128411,-0.0243981 0.00128411,-0.0386036 0,-0.138925 -0.0563404,-0.264928 -0.147352,-0.35586 -0.0910114,-0.0910114 -0.216935,-0.147432 -0.35586,-0.147432z"/>
   <path id="_221588544" class="fil2" d="M17.2108 19.8756c-0.0760034,0.00778493 -0.143981,-0.0475924 -0.151766,-0.123516 -0.00778493,-0.0760034 0.0475924,-0.143981 0.123596,-0.151766 0.0249599,-0.00256822 0.0505619,-0.00449439 0.0763244,-0.0057785 0.0304977,-0.00152488 0.0560996,-0.00232745 0.0770467,-0.00232745 0.414367,0 0.789729,0.168138 1.06132,0.439808 0.27159,0.27159 0.439648,0.646871 0.439648,1.06132 0,0.0483147 -0.00272874,0.0990371 -0.0080257,0.151605 -0.00505619,0.0508829 -0.0128411,0.101124 -0.0228732,0.150562 -0.0151686,0.0747995 -0.0882827,0.123034 -0.163082,0.107865 -0.0747995,-0.0151686 -0.123114,-0.088363 -0.107865,-0.163082 0.00818621,-0.0400482 0.014366,-0.0810596 0.0185394,-0.122392 0.00385234,-0.0381221 0.00585876,-0.0796952 0.00585876,-0.124559 0,-0.337882 -0.136999,-0.643822 -0.358428,-0.86517 -0.221349,-0.221349 -0.527369,-0.358428 -0.86509,-0.358428 -0.025923,0 -0.0472714,0.000401285 -0.0629215,0.0011236l-0.000561799 0c-0.020305,0.000963084 -0.0410916,0.00264848 -0.0617176,0.00473516z"/>
  </g>
  <path class="fil4" d="M-0 21.9012c0,2.18885 1.7744,3.96333 3.96317,3.96333 2.18869,-8.0257e-005 3.96301,-1.77448 3.96301,-3.96325 0,-2.18877 -1.7744,-3.96293 -3.96301,-3.96293 -2.18877,-0.000160514 -3.96317,1.77432 -3.96317,3.96293l0 -8.0257e-005z"/>
  <path class="fil1" d="M5.9716 23.4842c0.322071,-0.232264 0.52785,-0.576004 0.52785,-0.957787 8.0257e-005,-0.699841 -0.684111,-1.2671 -1.52793,-1.2671 -0.843822,-8.0257e-005 -1.52785,0.567256 -1.52785,1.2671 8.0257e-005,0.699841 0.68403,1.26718 1.52785,1.26718 0.174479,-8.0257e-005 0.342778,-0.0248797 0.498717,-0.0695026 0.014366,-0.00433388 0.0293741,-0.00666133 0.0450242,-0.00666133 0.0293741,0 0.0559391,0.00890853 0.0811398,0.0233548l0.334511 0.192135c0.00922955,0.00537722 0.0183789,0.00947033 0.0292938,0.00947033 0.0281702,0 0.0508829,-0.0227127 0.0508829,-0.0506422 0,-0.0126003 -0.00489568,-0.0250402 -0.00818621,-0.0370787 -0.00184591,-0.00714287 -0.0430178,-0.160113 -0.0687802,-0.255538 -0.00288925,-0.0107544 -0.00529696,-0.0211076 -0.00529696,-0.0323436 0,-0.034029 0.016854,-0.0642056 0.042777,-0.0825845z"/>
  <path class="fil1" d="M3.26036 19.8604c-1.0126,0 -1.83347,0.68082 -1.83347,1.52063 0,0.458107 0.246951,0.870628 0.633468,1.14928 0.0310595,0.0219904 0.0513645,0.0582666 0.0513645,0.0991174 8.0257e-005,0.0134832 -0.00296951,0.0258428 -0.00650082,0.0387641 -0.0308187,0.114527 -0.0801767,0.298074 -0.0825845,0.306742 -0.00393259,0.014366 -0.00995187,0.0293741 -0.00995187,0.0444624 0,0.0335474 0.0275282,0.0607545 0.0612361,0.0607545 0.0132424,0 0.0240771,-0.00489568 0.0352328,-0.0113162l0.401446 -0.230659c0.0301766,-0.0173355 0.0621992,-0.0279294 0.0973517,-0.0279294 0.0186999,0 0.0369182,0.00280899 0.0538524,0.0080257 0.18732,0.0535314 0.389327,0.0833068 0.598557,0.0833068 0.0337882,0 0.0673356,-0.000882827 0.100642,-0.00240771 -0.0398877,-0.11854 -0.0615571,-0.243419 -0.0615571,-0.372633 0,-0.765893 0.748637,-1.38676 1.67207,-1.38676 0.0335474,0 0.0667738,0.000963084 0.0996792,0.00256822 -0.138122,-0.726406 -0.89615,-1.28195 -1.81084,-1.28195z"/>
  <path class="fil2" d="M3.26036 19.9992c-0.473035,0 -0.900243,0.157946 -1.20811,0.413404 -0.300643,0.249198 -0.486598,0.591815 -0.486598,0.968461 0,0.200562 0.0530499,0.391574 0.147833,0.563484 0.100241,0.181943 0.247031,0.343339 0.426967,0.473115l8.0257e-005 -8.0257e-005c0.0338685,0.0239968 0.0617176,0.0557786 0.0806583,0.0922955 0.00200642,0.00369182 0.00369182,0.00738364 0.0052167,0.0111557 0.0154093,0.0332264 0.0240771,0.0701446 0.0240771,0.108427 0,0.0142857 -0.00184591,0.0292135 -0.00465491,0.0444624 -0.00208668,0.0113965 -0.00457465,0.0211076 -0.00706262,0.0300964l0.000321028 0 -0.0416534 0.154735 0.244302 -0.140369 0.000240771 -8.0257e-005 -0.000240771 -0.000401285c0.0232745,-0.0133227 0.0485555,-0.0246389 0.0761639,-0.0328251l0 -8.0257e-005c0.0288925,-0.00866776 0.0589086,-0.0134832 0.0900484,-0.0134832 0.0154093,0 0.0314607,0.00128411 0.0475121,0.00361156l0.000561799 8.0257e-005 0 -8.0257e-005c0.0134029,0.00200642 0.0281702,0.00545748 0.0436598,0.0101124l8.0257e-005 -0.000240771c0.0898076,0.025602 0.182424,0.0455057 0.276566,0.0585074 0.0667738,0.00922955 0.135634,0.0153291 0.206341,0.0179776l-0.00433388 -0.0247994c-0.0116373,-0.0699841 -0.0176565,-0.140129 -0.0176565,-0.210113 0,-0.426245 0.206582,-0.810596 0.54021,-1.0874 0.308508,-0.255859 0.727048,-0.419503 1.18989,-0.436598 -0.0913325,-0.261638 -0.275201,-0.492136 -0.520627,-0.665892 -0.297111,-0.210434 -0.684592,-0.337481 -1.10979,-0.337481zm-1.38475 0.19984c0.355539,-0.294864 0.845427,-0.477369 1.38475,-0.477369 0.482746,0 0.926166,0.14671 1.2691,0.389567 0.353853,0.250322 0.601366,0.603693 0.67777,1.0057l0 0c0.00184591,0.0100321 0.00256822,0.020305 0.00216694,0.0308989 -0.00296951,0.0763244 -0.0672554,0.135795 -0.14358,0.132745l-0.0496791 -0.00192617 -0.0446229 -0.000160514c-0.428412,0 -0.815251,0.143178 -1.09398,0.374238 -0.271349,0.225121 -0.439327,0.534271 -0.439327,0.873838 0,0.0575443 0.00457465,0.112922 0.0133227,0.16565 0.0091493,0.0555378 0.0229535,0.110113 0.0406903,0.163082 0.00409311,0.0123596 0.00658107,0.0254415 0.00706262,0.0390049 0.00256822,0.0763244 -0.0570627,0.14045 -0.133387,0.143098l-0.0501606 0.00176565 0 0 -0.00160514 0 -0.0537722 0.00120385c-0.107946,0 -0.215811,-0.00778493 -0.321911,-0.0225522 -0.108989,-0.0150883 -0.214366,-0.0375603 -0.314607,-0.066212l8.0257e-005 -0.000240771 -0.00272874 -0.00080257 -0.00642056 -0.0011236 -0.00682184 -0.000401285c-0.00401285,0 -0.00778493,0.000561799 -0.0109952,0.00152488l-8.0257e-005 -0.000160514 -0.000481542 0.000160514c-0.00433388,0.00120385 -0.0102729,0.00417336 -0.0170145,0.00794544l-0.000160514 -0.000321028 -0.398075 0.228572 -0.00208668 0.00128411c-0.0101124,0.00593902 -0.0207866,0.0113965 -0.0325843,0.0162922l-0.00361156 0.00144463 -0.000963084 0.000321028 -0.00240771 0.000882827c-0.0209471,0.00762441 -0.0423757,0.0119583 -0.06557,0.0119583 -0.0547353,0 -0.104495,-0.0223917 -0.140851,-0.0585074 -0.0362762,-0.0361156 -0.0590692,-0.0861158 -0.0590692,-0.141012 0,-0.0313002 0.00658107,-0.0527288 0.0127609,-0.0735957l0.000160514 8.0257e-005 0.000642056 -0.00248797 0.0011236 -0.00425362 0.0817016 -0.303371c-0.209712,-0.15305 -0.381381,-0.343179 -0.49976,-0.557947 -0.116934,-0.2122 -0.182504,-0.448316 -0.182504,-0.696791 0,-0.463163 0.224559,-0.881142 0.587481,-1.18203z"/>
  <path class="fil3" d="M2.40474 20.8944c0,0.13435 0.10939,0.243259 0.244383,0.243259 0.134992,0 0.244383,-0.108909 0.244383,-0.243259 0,-0.13435 -0.10939,-0.243259 -0.244383,-0.243259 -0.134992,0 -0.244383,0.108909 -0.244383,0.243259zm2.87248 1.22657c0,0.111959 0.091172,0.202809 0.203692,0.202809 0.11252,0 0.203692,-0.0908509 0.203692,-0.202809 0,-0.111959 -0.091172,-0.202809 -0.203692,-0.202809 -0.11252,0 -0.203692,0.0907707 -0.203692,0.202809zm-1.0187 0c0,0.111959 0.0913325,0.202809 0.203773,0.202809 0.11252,0 0.203773,-0.0908509 0.203773,-0.202809 0,-0.111959 -0.0912522,-0.202809 -0.203773,-0.202809 -0.11252,0 -0.203773,0.0907707 -0.203773,0.202809zm-0.631382 -1.22657c0,0.13435 0.10939,0.243259 0.244463,0.243259 0.134912,0 0.244302,-0.108909 0.244302,-0.243259 0,-0.13435 -0.10939,-0.243259 -0.244383,-0.243259 -0.134992,0 -0.244383,0.108909 -0.244383,0.243259z"/>
  <path class="fil5" d="M24.1435 21.9012c0,2.18885 1.77432,3.96333 3.96309,3.96333 2.18877,-8.0257e-005 3.96309,-1.77448 3.96309,-3.96325 0,-2.18877 -1.7744,-3.96293 -3.96309,-3.96293 -2.18877,-0.000160514 -3.96309,1.77432 -3.96309,3.96293l0 -8.0257e-005z"/>
  <path class="fil1" d="M26.4294 24.3684c-0.0194222,-0.0156501 -0.0183789,-0.0990371 -0.00433388,-0.222553 0.0500804,-0.440932 0.266855,-1.39414 0.315089,-1.6037 0.00601927,-0.025923 -0.00256822,-0.0514447 -0.0229535,-0.0686197 -0.161638,-0.135715 -0.882907,-0.745828 -1.18853,-1.08339 -0.0934994,-0.103371 -0.148154,-0.18114 -0.135875,-0.211959 0.0145265,-0.0362762 0.139005,-0.071509 0.317497,-0.103772 0.435153,-0.0788124 1.19166,-0.140931 1.45996,-0.161477 0.0619584,-0.00473516 0.0978333,-0.00730339 0.0978333,-0.00730339 0,0 0.0150883,-0.0378813 0.0411718,-0.102167 0.102408,-0.252489 0.375522,-0.913164 0.581141,-1.30105 0.0932586,-0.176004 0.172793,-0.295988 0.216212,-0.295988 0.0383628,0 0.104735,0.0934191 0.183949,0.236196 0.186036,0.335635 0.442858,0.944545 0.572553,1.26052 0.0507224,0.123596 0.0821029,0.202408 0.0821029,0.202488 0,0 0.130097,0.00922955 0.321831,0.0253612 0.30907,0.0260033 0.778413,0.0703051 1.12047,0.123997 0.238604,0.0373998 0.41549,0.0796149 0.432987,0.123194 0.0110755,0.0277689 -0.0323436,0.0939007 -0.109711,0.182585 -0.288363,0.330177 -1.04832,0.973036 -1.21469,1.11276 -0.0203853,0.0170947 -0.0289728,0.0426165 -0.0229535,0.0686197 0.0556984,0.241654 0.335314,1.47223 0.325201,1.76589 -0.0011236,0.0322633 -0.00569825,0.0532104 -0.0144463,0.0603533 -0.00393259,0.00304977 -0.00995187,0.00457465 -0.0182183,0.00465491 -0.161878,0 -1.13227,-0.570868 -1.50931,-0.79631 -0.091493,-0.0547353 -0.148154,-0.0891655 -0.14976,-0.0901286 -0.00152488,0.000882827 -0.0517658,0.031541 -0.13419,0.0808991 -0.281301,0.168459 -0.936519,0.555298 -1.29768,0.724159 -0.107705,0.0502409 -0.189407,0.0813806 -0.227127,0.0813806 -0.00826647,-8.0257e-005 -0.0142857,-0.00160514 -0.0182183,-0.00465491z"/>
  <g id="_221588760">
   <path id="_221588928" class="fil2" d="M26.3168 24.4493c-0.0270466,-0.0365972 -0.0397272,-0.0875604 -0.0403693,-0.150562 -0.000481542,-0.0453452 0.00353131,-0.102649 0.010915,-0.168058 0.0255217,-0.22496 0.0931784,-0.578332 0.160434,-0.901607 0.0596309,-0.286839 0.1187,-0.548717 0.147914,-0.676647 -0.0967097,-0.0814609 -0.291814,-0.247513 -0.510435,-0.441413 -0.241574,-0.214126 -0.502248,-0.454897 -0.659151,-0.628172 -0.051204,-0.0565812 -0.0927771,-0.107625 -0.120546,-0.15 -0.0492778,-0.0748798 -0.0659713,-0.144543 -0.0412521,-0.20618 0.0235956,-0.0589889 0.0851527,-0.101605 0.175281,-0.13106 0.0607545,-0.0198235 0.145827,-0.0390852 0.246228,-0.0572232 0.222151,-0.0402088 0.523837,-0.0760034 0.803373,-0.104174 0.287882,-0.0289728 0.54021,-0.0495186 0.670708,-0.0594704l0.0022472 -0.000160514 0.0097111 -0.000642056 0.00882827 -0.0219102 0.000240771 -0.000561799 -0.000240771 0c0.0613163,-0.151284 0.186357,-0.454415 0.326164,-0.767498 0.088363,-0.197914 0.180418,-0.394062 0.260996,-0.546069 0.051204,-0.0967097 0.1,-0.179374 0.143259,-0.238524 0.0610756,-0.083708 0.126565,-0.131702 0.195426,-0.131702 0.0664528,0 0.128572,0.0434993 0.186678,0.119824 0.0359551,0.0474319 0.0759231,0.111878 0.118138,0.187962 0.094302,0.170145 0.207143,0.410755 0.312762,0.648958l8.0257e-005 0.000240771 0.000481542 -0.000240771c0.101124,0.22793 0.199519,0.463564 0.266293,0.626165l0.000240771 0.000642056 0.000321028 -8.0257e-005 0.0447031 0.109551 0.00264848 0.00714287 0.00248797 0.00609953c0.0585876,0.00433388 0.14061,0.0107544 0.236919,0.0188604 0.17488,0.0146068 0.404736,0.0357946 0.64029,0.0617979 0.168299,0.0185394 0.338524,0.0400482 0.489969,0.0638043 0.132825,0.0207866 0.247593,0.043098 0.328733,0.0661318l0.000481542 0.000160514 8.0257e-005 -0.000160514c0.109711,0.03122 0.184912,0.0772072 0.210996,0.142135 0.0231943,0.0580258 0.0102729,0.123194 -0.0325041,0.192617 -0.0232745,0.0377208 -0.0581061,0.0826647 -0.101525,0.132504 -0.14984,0.171589 -0.415892,0.418701 -0.66509,0.64029 -0.219423,0.195105 -0.429535,0.373677 -0.532264,0.460274 0.0446229,0.195265 0.158668,0.70265 0.237641,1.13154 0.0498396,0.270145 0.0853934,0.510756 0.0813806,0.628493 -0.000882827,0.0261638 -0.00345105,0.048716 -0.00762441,0.0666936l-0.00200642 0.00762441c-0.0100321,0.03748 -0.0289728,0.0677369 -0.0569022,0.0900484l-0.000642056 0.000481542 8.0257e-005 8.0257e-005c-0.0172553,0.0134832 -0.0373195,0.0235153 -0.0589086,0.0289728 -0.00417336,0.00104334 -0.00826647,0.00192617 -0.0125201,0.00256822l-0.00136437 0.000240771c-0.00995187,0.00160514 -0.0203853,0.00264848 -0.0309792,0.00264848 -0.108026,0 -0.413564,-0.150562 -0.740612,-0.3309 -0.307465,-0.169503 -0.648316,-0.371028 -0.839649,-0.485394l-0.0788124 -0.0471911 -0.0632425 0.0379616c-0.170546,0.102087 -0.478492,0.284511 -0.776165,0.450563 -0.195506,0.10915 -0.38724,0.211557 -0.53387,0.280097 -0.0582666,0.0272071 -0.109551,0.0492778 -0.151204,0.0643661 -0.0539327,0.019663 -0.0995187,0.0304977 -0.134511,0.0304977 -0.0154093,0 -0.0302569,-0.00200642 -0.0443019,-0.00545748l-0.000561799 -0.000160514 0 0.000160514c-0.0219102,-0.00553773 -0.0418942,-0.0155699 -0.0589086,-0.0289728 -0.0105137,-0.00826647 -0.0195025,-0.0177368 -0.0269664,-0.0280097zm0.245827 -0.288203l-0.00329054 0.0310595c0.0178973,-0.00786519 0.036838,-0.0164527 0.0567417,-0.0257625 0.139005,-0.0650082 0.325121,-0.164447 0.516614,-0.271269 0.293741,-0.163885 0.599279,-0.344864 0.768702,-0.446309 0.0592297,-0.0354736 0.110353,-0.0665331 0.127849,-0.0772072 0.0432585,-0.029053 0.101284,-0.0323436 0.148877,-0.00369182l0.0695026 0.0420547 -0.000160514 0.000240771 0.0797755 0.0478332c0.185715,0.110995 0.518701,0.307705 0.831061,0.480017 0.198235,0.10923 0.381702,0.20626 0.496309,0.257625 -0.0111557,-0.114125 -0.0380418,-0.279535 -0.0715892,-0.461959 -0.083387,-0.453051 -0.209551,-1.00706 -0.244864,-1.16068 -0.00874801,-0.0381221 -0.00666133,-0.0768059 0.00529696,-0.11244 0.0113162,-0.0337882 0.0309792,-0.0641253 0.0582666,-0.0885235l0.00136437 -0.00120385 0.00080257 -0.000722313 0.00329054 -0.00280899c0.0819424,-0.0688605 0.310916,-0.26236 0.558268,-0.482345 0.244463,-0.217175 0.50289,-0.456823 0.641173,-0.61525l0.0232745 -0.0272874c-0.0699841,-0.0176565 -0.160835,-0.0347513 -0.263644,-0.0508829 -0.139567,-0.0219102 -0.307144,-0.0428572 -0.478091,-0.0617176 -0.22159,-0.0244784 -0.452649,-0.045586 -0.632586,-0.0606743 -0.18748,-0.0157304 -0.310274,-0.0247994 -0.310434,-0.0247994l0 -0.000321028c-0.0548958,-8.0257e-005 -0.106902,-0.0329054 -0.128491,-0.0869183l-0.0345908 -0.0859552 -0.00280899 -0.00650082 -0.0447031 -0.109551 0.000321028 -8.0257e-005c-0.0629215,-0.15313 -0.157785,-0.380017 -0.263805,-0.618942l0.000481542 -0.000160514c-0.101605,-0.229134 -0.210354,-0.460996 -0.301927,-0.626085 -0.0226325,-0.0410113 -0.0439808,-0.0769665 -0.063082,-0.106902 -0.0276084,0.043098 -0.0593099,0.0990371 -0.0936599,0.163965 -0.0797755,0.150402 -0.16878,0.340049 -0.253532,0.529616 -0.130899,0.293179 -0.258187,0.602249 -0.32167,0.75891l-0.000240771 -8.0257e-005 -0.0386036 0.0960676c-0.0178171,0.0505619 -0.0641253,0.0884432 -0.121028,0.0923758l-0.0933389 0.00698236 -0.00401285 0.000321028c-0.137721,0.0104334 -0.397994,0.0314607 -0.664127,0.0583468 -0.274479,0.0276887 -0.568942,0.0625202 -0.781703,0.100963 -0.0573838,0.0103532 -0.108668,0.0211076 -0.151525,0.0320225 0.0141252,0.0170145 0.0301766,0.0353933 0.0479937,0.054976 0.148475,0.164126 0.401606,0.397593 0.637321,0.606582 0.230338,0.204254 0.454977,0.393901 0.537561,0.463324l-8.0257e-005 0 0.000642056 0.000481542c0.0296951,0.0250402 0.0511237,0.057143 0.0631623,0.0927771 0.0119583,0.0357144 0.014045,0.074318 0.00529696,0.11244 -0.0240771,0.104896 -0.0904496,0.395747 -0.15626,0.712361 -0.0656502,0.315731 -0.131621,0.659873 -0.1561,0.875684zm1.54872 -4.81582l0.000882827 0.000642056c0.00184591,-0.000401285 0.00192617,-0.000561799 -0.000882827,-0.000642056zm-0.00481542 -8.0257e-005c-0.00906904,0 -0.00834673,0.000642056 -0.00369182,0.00192617l0.00939007 -0.00120385 -0.000882827 -0.000642056 -0.00481542 -8.0257e-005z"/>
   <path id="_221614368" class="fil3" d="M29.5356 22.7724l-0.0419744 -0.104816c0.0074639,0.0313002 -1.31846,-0.00698236 -1.66461,-0.0898076 -0.00810596,-0.00184591 -0.0139647,-0.0080257 -0.0155699,-0.0162119 -0.00160514,-0.00818621 0.00152488,-0.0161317 0.00842698,-0.0209471l1.3854 -0.988044c0.00706262,-0.00497593 0.0101124,-0.0132424 0.00810596,-0.0216694 -0.00192617,-0.00834673 -0.00834673,-0.0144463 -0.016854,-0.0158909 -0.765812,-0.126886 -1.5724,-0.166774 -2.34447,-0.0726326 -0.110193,0.0134832 -0.121509,0.0390049 -0.00561799,0.0487963 0.540451,0.045907 1.06316,0.0759231 1.59535,0.183146 0.00810596,0.00160514 0.0142857,0.00778493 0.0161317,0.0159711 0.00176565,0.00818621 -0.00120385,0.0162119 -0.00786519,0.0211076l-1.42737 1.0622c-0.00706262,0.00529696 -0.0101124,0.0142055 -0.00754416,0.0227127 0.00256822,0.00850724 0.00987161,0.0142857 0.0187801,0.0147673 0.826567,0.0451044 1.67713,0.0679777 2.49968,-0.0386839z"/>
  </g>
  <path class="fil6" d="M36.215 21.9012c0,2.18885 1.77432,3.96333 3.96309,3.96333 2.18869,-8.0257e-005 3.96309,-1.77448 3.96309,-3.96325 0,-2.18877 -1.77448,-3.96293 -3.96309,-3.96293 -2.18877,-0.000160514 -3.96309,1.77432 -3.96309,3.96293l0 -8.0257e-005z"/>
  <rect class="fil1" x="38.777" y="21.1012" width="2.8022" height="1.13415"/>
  <g id="_221601384">
   <path id="_197808840" class="fil3" d="M38.8209 20.8729l2.75595 0c0.106983,0 0.194302,0.0873196 0.194302,0.194222l0 1.20698c0,0.106983 -0.0873196,0.194302 -0.194302,0.194302l-0.0696631 0 -0.32151 0 -1.92023 0 -0.0813003 0 -0.306903 0 -0.0563404 0c-0.106902,0 -0.194222,-0.0873196 -0.194222,-0.194302l0 -1.20698c0,-0.106902 0.0873196,-0.194222 0.194222,-0.194222zm2.21397 2.65434l0.472312 0 0.545748 0c0.106983,0 0.194222,0.0873196 0.194222,0.194302l0 0.0154896c0,0.106983 -0.0872394,0.194302 -0.194222,0.194302l-3.74961 0c-0.106983,0 -0.194222,-0.0873196 -0.194222,-0.194302l0 -0.0155699c0,-0.106983 0.0872394,-0.194222 0.194222,-0.194222l0.573918 0 0 0 0.929216 0 1.22841 0zm-1.77496 -1.46068l1.87569 0c0.106983,0 0.194222,-0.0872394 0.194222,-0.194222l0 -0.394062c0,-0.106983 -0.0872394,-0.194222 -0.194222,-0.194222l-1.87569 0c-0.106983,0 -0.194302,0.0872394 -0.194222,0.194302l0 0.393982c0,0.106983 0.0873196,0.194222 0.194222,0.194222z"/>
   <path id="_197806656" class="fil3" d="M38.4079 20.0045l3.54054 0c0.106983,0 0.194222,0.0873196 0.194222,0.194302l0 0.0107544c0,0.106902 -0.0872394,0.194222 -0.194222,0.194222l-3.54054 0c-0.106983,0 -0.194302,-0.0873196 -0.194302,-0.194222l0 -0.0107544c0,-0.106983 0.0873196,-0.194302 0.194302,-0.194302z"/>
   <g>
    <path id="_221601648" class="fil3" d="M39.2798 22.5573l0.54639 1.03259c0.0500804,0.0945427 0.0136437,0.212521 -0.0808188,0.262521l-0.00947033 0.00505619c-0.0945427,0.0500001 -0.212601,0.0136437 -0.262601,-0.0808188l-0.54639 -1.03259c-0.0500001,-0.0944625 -0.0137239,-0.212521 0.0808188,-0.262521l0.00955058 -0.00505619c0.0945427,-0.0500001 0.212521,-0.0137239 0.262521,0.0808188z"/>
    <path id="_221586024" class="fil3" d="M41.0765 22.5573l-0.54639 1.03259c-0.0500804,0.0945427 -0.0136437,0.212521 0.0808188,0.262521l0.00947033 0.00505619c0.0945427,0.0500001 0.212601,0.0136437 0.262601,-0.0808188l0.54639 -1.03259c0.0500001,-0.0944625 0.0137239,-0.212521 -0.0808188,-0.262521l-0.00955058 -0.00505619c-0.0945427,-0.0500001 -0.212521,-0.0137239 -0.262521,0.0808188z"/>
   </g>
  </g>
  <g id="_167361584">
   <path id="_221614872" class="fil7" d="M12.2695 3.96285c0,1.03981 0.42151,1.9813 1.10289,2.66261 0.681221,0.681382 1.62272,1.10297 2.66245,1.10297 1.03981,0 1.98122,-0.42167 2.66253,-1.10289 0.681302,-0.681382 1.10281,-1.6228 1.10281,-2.66261 0,-1.03965 -0.42151,-1.98114 -1.10281,-2.66245 -0.681302,-0.681302 -1.62272,-1.10273 -2.66253,-1.10273l-0.000321028 0c-1.03949,0 -1.9809,0.42151 -2.66212,1.10273 -0.681462,0.681462 -1.10313,1.62288 -1.10313,2.6622l0.000240771 0 0 0.000160514zm0.963004 2.80249c-0.717096,-0.717177 -1.16076,-1.70803 -1.16076,-2.80241l0 -8.0257e-005 0 -0.000160514 0.000240771 0c8.0257e-005,-1.0943 0.44358,-2.08508 1.16052,-2.80201 0.717096,-0.717016 1.70787,-1.16068 2.80201,-1.16068l0.000321028 0c1.09446,0 2.08524,0.44358 2.80241,1.16068 0.717096,0.717016 1.16068,1.70795 1.16068,2.80225 0,1.09438 -0.44358,2.08532 -1.16068,2.80249 -0.717177,0.717016 -1.70795,1.16076 -2.80241,1.16076 -1.0943,0 -2.08524,-0.443661 -2.80233,-1.16084z"/>
   <path id="_221605488" class="fil1" d="M13.3715 4.43853c0,-0.875524 1.64752,-2.25795 2.27793,-2.25795 0.264206,0 0.782827,0.197191 0.419985,0.82127 -0.0100321,0.017496 0.119101,-0.0372392 0.307304,-0.091814 0.281622,-0.0821029 0.695587,-0.163805 0.972153,-0.00361156 0.461317,0.267336 0,0.697032 0,0.744785 0,0.0475924 0.926246,0.0475924 0.926246,0.787482 8.0257e-005,0.875203 -1.08957,1.58516 -2.44647,1.58516 -1.35707,0 -2.45715,-0.709793 -2.45715,-1.58516l0 -0.000160514z"/>
   <path id="_221587944" class="fil7" d="M13.2329 4.43853c0,-0.442537 0.36549,-0.986118 0.824962,-1.44158 0.537321,-0.532585 1.21694,-0.955058 1.59166,-0.955058 0.11565,0 0.272232,0.0316213 0.404014,0.108186 0.0753613,0.0438203 0.143981,0.102809 0.194703,0.179776l0.000240771 -0.000160514c0.0522473,0.0791334 0.0843501,0.174479 0.0843501,0.287721l-0.000561799 0c0,0.052167 -0.00682184,0.108106 -0.0218299,0.168058l0.0279294 -0.00826647c0.148636,-0.0432585 0.333147,-0.0866776 0.5183,-0.0979938 0.197191,-0.0121188 0.39647,0.0117175 0.561719,0.107384 0.388043,0.22488 0.299038,0.528974 0.1748,0.743019 -0.00714287,0.0123596 -0.0144463,0.0243981 -0.0218299,0.0360354 0.306421,0.069021 0.842618,0.24358 0.842618,0.873036l0 0c0,0.487481 -0.29655,0.92448 -0.777771,1.23676 -0.463003,0.300482 -1.10145,0.486518 -1.80723,0.486598l0 0.000561799 -0.000240771 0c-0.705459,0 -1.34631,-0.186036 -1.8122,-0.486518 -0.48411,-0.3122 -0.783629,-0.7496 -0.783629,-1.2374l0 -0.000160514zm1.02007 -1.24535c-0.413564,0.409953 -0.742618,0.884031 -0.742618,1.24535l0 0.000160514c0,0.387401 0.250643,0.743019 0.65578,1.00434 0.423275,0.272954 1.01108,0.442056 1.6626,0.442056l0.000240771 0 0 0.000561799c0.650884,0 1.2358,-0.169101 1.65658,-0.442216 0.402649,-0.261317 0.650965,-0.616855 0.650965,-1.00474l0 0c0,-0.477208 -0.510033,-0.58074 -0.716294,-0.622473 -0.129053,-0.0260033 -0.209952,-0.0432585 -0.209952,-0.165008 0,-0.0536117 0.0270466,-0.0910114 0.0658107,-0.144463l0.000240771 0.000160514c0.0217496,-0.0301766 0.0505619,-0.0699841 0.0772875,-0.116052 0.0621992,-0.107304 0.108828,-0.258668 -0.073997,-0.364608 -0.111316,-0.0644464 -0.257545,-0.0797755 -0.406742,-0.0706262 -0.161076,0.00987161 -0.32472,0.0485555 -0.457545,0.0871591 -0.0781703,0.0227127 -0.149519,0.0467898 -0.202408,0.0646069 -0.0444624,0.0149278 -0.0808991,0.0272071 -0.113403,0.0324238 -0.0313002,0.0069021 -0.0650082,0.00313002 -0.0953453,-0.0131621 -0.085554,-0.0460675 -0.100803,-0.110113 -0.0560996,-0.191493l8.0257e-005 8.0257e-005 0.00152488 -0.00280899c0.0755218,-0.129936 0.10626,-0.233468 0.10626,-0.315009l-0.000561799 0c0,-0.054976 -0.0144463,-0.0995187 -0.037801,-0.134832l0.000321028 -8.0257e-005 -0.000321028 -0.000481542c-0.0247192,-0.03748 -0.0612361,-0.0681382 -0.102809,-0.0922955 -0.085554,-0.0497593 -0.188684,-0.0703854 -0.265249,-0.0703854 -0.307224,0 -0.905058,0.386598 -1.39655,0.873838z"/>
   <path id="_221616456" class="fil1" d="M14.6477 4.78805c-0.083708,-0.429696 0.266774,-0.859231 0.782345,-0.959392 0.515812,-0.100402 1.00145,0.166854 1.08507,0.59655 0.083387,0.429616 -0.266855,0.859392 -0.782506,0.959553 -0.0733549,0.014045 -0.145987,0.0209471 -0.217095,0.0209471 -0.428492,-8.0257e-005 -0.79623,-0.249037 -0.867819,-0.617658l0 0z"/>
   <path id="_221587584" class="fil7" d="M14.5278 4.80595c-0.0470306,-0.24984 0.0297753,-0.498075 0.192376,-0.697433 0.158347,-0.194302 0.3996,-0.342778 0.685555,-0.398556l-8.0257e-005 -0.000240771 0.000722313 -0.000160514 0.00738364 -0.0011236c0.283949,-0.0536919 0.560836,-0.00658107 0.779215,0.113483 0.227047,0.1248 0.392136,0.328331 0.441173,0.580499l0.000401285 0.00200642c0.0479937,0.250883 -0.0288925,0.500322 -0.192135,0.700563 -0.158829,0.194784 -0.400482,0.343259 -0.687,0.398797 -0.0384431,0.00738364 -0.0788124,0.0130819 -0.120225,0.0170947 -0.043098,0.00417336 -0.0829857,0.00617979 -0.119663,0.00617979l0 -0.000481542c-0.242055,0 -0.467738,-0.0716695 -0.642698,-0.196148 -0.176646,-0.125682 -0.302569,-0.305057 -0.344222,-0.519664l-0.00080257 -0.00481542zm0.380258 -0.544704c-0.118058,0.144703 -0.174479,0.321911 -0.142376,0.497834 0.0011236,0.00449439 0.00192617,0.00898878 0.00248797,0.0135634 0.0306582,0.147031 0.120064,0.271429 0.245105,0.360434 0.135153,0.0962281 0.311638,0.151686 0.502248,0.151686l0 -0.000481542c0.0348315,0 0.0672554,-0.00144463 0.0968702,-0.00433388 0.0304174,-0.00288925 0.0631623,-0.00770467 0.0975123,-0.0142857 0.228893,-0.0443821 0.420386,-0.160996 0.544624,-0.313404 0.118058,-0.144784 0.174719,-0.322152 0.142697,-0.498075 -0.000963084,-0.00409311 -0.00184591,-0.00818621 -0.00240771,-0.0124398 -0.0360354,-0.174479 -0.154896,-0.317497 -0.31846,-0.407385 -0.170867,-0.0939809 -0.389888,-0.130578 -0.616615,-0.0878814 -0.00433388,0.00104334 -0.00866776,0.00184591 -0.0132424,0.00248797 -0.226164,0.0452649 -0.41533,0.161236 -0.538444,0.31228zm1.72649 0.143178c0.00120385,0.0069021 0.00176565,0.0138042 0.00176565,0.0207063"/>
   <path id="_197817264" class="fil8" d="M15.1829 4.5277c-0.158668,0.073997 -0.242456,0.230418 -0.186919,0.349519 0.0555378,0.118941 0.229134,0.155538 0.387722,0.0815411 0.158748,-0.0741575 0.242537,-0.230578 0.186919,-0.349519 -0.0359551,-0.0773677 -0.12191,-0.119904 -0.221188,-0.119904 -0.0536117,-8.0257e-005 -0.110995,0.0125201 -0.166533,0.0384431l0 -8.0257e-005z"/>
   <path id="_167361344" class="fil8" d="M15.5909 4.43853c0,0.0876406 0.0709472,0.158588 0.158508,0.158588 0.0874801,0 0.158508,-0.0708669 0.158508,-0.158427 0,-0.0876406 -0.0710274,-0.158588 -0.158508,-0.158588 -0.0875604,-8.0257e-005 -0.158508,0.0709472 -0.158508,0.158588l0 -0.000160514z"/>
   <path id="_197808408" class="fil7" d="M17.4425 2.52135c-0.0670146,0 -0.121429,-0.0544142 -0.121429,-0.121429 0,-0.0670146 0.0544142,-0.121429 0.121429,-0.121429 0.205859,0 0.392537,0.0836278 0.527529,0.21862 0.134912,0.134912 0.21854,0.32159 0.21854,0.527529 0,0.0177368 -0.000882827,0.0367577 -0.00232745,0.0565812 -0.00144463,0.0195827 -0.00369182,0.0384431 -0.0063403,0.0565812 -0.00995187,0.066212 -0.07183,0.111798 -0.138042,0.101926 -0.0661318,-0.00995187 -0.111798,-0.07183 -0.101926,-0.138042 0.00200642,-0.0130819 0.00361156,-0.0260835 0.00449439,-0.0384431 0.00080257,-0.0113965 0.00128411,-0.0243981 0.00128411,-0.0386036 0,-0.138925 -0.0564207,-0.264928 -0.147352,-0.35586 -0.0910114,-0.0910917 -0.216935,-0.147432 -0.35586,-0.147432z"/>
   <path id="_197808480" class="fil7" d="M17.2108 1.93732c-0.0760034,0.00778493 -0.143981,-0.0475924 -0.151766,-0.123596 -0.00778493,-0.0759231 0.0475924,-0.143901 0.123596,-0.151686 0.0249599,-0.00256822 0.0505619,-0.00449439 0.0762441,-0.00585876 0.0305779,-0.00152488 0.0561799,-0.0022472 0.077127,-0.0022472 0.414367,0 0.789729,0.168138 1.06132,0.439728 0.27159,0.27167 0.439648,0.646952 0.439648,1.0614 0,0.0483147 -0.00272874,0.0990371 -0.0080257,0.151605 -0.00505619,0.0508027 -0.0128411,0.101124 -0.0228732,0.150562 -0.0151686,0.0747193 -0.088363,0.123034 -0.163082,0.107865 -0.0747995,-0.0151686 -0.123114,-0.088363 -0.107946,-0.163082 0.00818621,-0.0400482 0.0144463,-0.0810596 0.0186196,-0.122392 0.00385234,-0.0381221 0.00585876,-0.0796952 0.00585876,-0.124559 0,-0.337882 -0.136999,-0.643822 -0.358428,-0.86517 -0.221349,-0.221349 -0.527369,-0.358508 -0.86509,-0.358508 -0.025923,0 -0.0472714,0.000481542 -0.0629215,0.00120385l-0.000561799 0c-0.020305,0.000963084 -0.0410916,0.00264848 -0.0617176,0.00473516z"/>
  </g>
  <path class="fil7" d="M0.197753 3.96285c0,1.03981 0.42151,1.9813 1.10281,2.66261 0.681302,0.681382 1.6228,1.10297 2.66245,1.10297 1.03981,0 1.98122,-0.42167 2.66261,-1.10289 0.681221,-0.681382 1.10273,-1.6228 1.10273,-2.66261 0,-1.03965 -0.42151,-1.98114 -1.10273,-2.66245 -0.681382,-0.681302 -1.6228,-1.10273 -2.66261,-1.10273l-0.000240771 0c-1.03957,0 -1.9809,0.42151 -2.6622,1.10273 -0.681462,0.681462 -1.10305,1.62288 -1.10305,2.6622l0.000240771 0 0 0.000160514zm0.963004 2.80249c-0.717096,-0.717177 -1.16076,-1.70803 -1.16076,-2.80241l0 -8.0257e-005 0 -0.000160514 0.000240771 0c0,-1.0943 0.44358,-2.08508 1.16052,-2.80201 0.717016,-0.717016 1.70779,-1.16068 2.80201,-1.16068l0.000240771 0c1.09446,0 2.08532,0.44358 2.80241,1.16068 0.717096,0.717016 1.16076,1.70795 1.16076,2.80225 0,1.09438 -0.443661,2.08532 -1.16076,2.80249 -0.717096,0.717016 -1.70795,1.16076 -2.80241,1.16076 -1.09422,0 -2.08524,-0.443661 -2.80225,-1.16084z"/>
  <path class="fil9" d="M5.97152 5.54592c0.322071,-0.232264 0.527931,-0.576004 0.527931,-0.957787 0,-0.699841 -0.684111,-1.2671 -1.52801,-1.2671 -0.843822,-8.0257e-005 -1.52785,0.567256 -1.52785,1.2671 8.0257e-005,0.699841 0.68403,1.26718 1.52785,1.26718 0.174479,0 0.342778,-0.0248797 0.498717,-0.0695026 0.014366,-0.00433388 0.0293741,-0.00666133 0.0450242,-0.00666133 0.0293741,0 0.0559391,0.00890853 0.0811398,0.023435l0.334511 0.192055c0.00930981,0.00537722 0.0183789,0.00947033 0.0293741,0.00947033 0.0280899,0 0.0508027,-0.0226325 0.0508027,-0.0506422 8.0257e-005,-0.0125201 -0.00489568,-0.0250402 -0.00818621,-0.0369985 -0.00184591,-0.00722313 -0.0430178,-0.160193 -0.0687802,-0.255619 -0.00280899,-0.0107544 -0.00529696,-0.0211076 -0.00529696,-0.0323436 0,-0.034029 0.016854,-0.0642056 0.042777,-0.0825845z"/>
  <path class="fil7" d="M5.91911 5.43436c0.141172,-0.105377 0.256662,-0.234752 0.336437,-0.379535 0.0784913,-0.142296 0.122472,-0.300643 0.122472,-0.466694l0 -0.000160514c0,-0.311959 -0.154254,-0.595828 -0.403372,-0.802409 -0.25594,-0.2122 -0.610756,-0.34366 -1.00297,-0.34366l0 0.000561799 -0.000240771 0 -8.0257e-005 0c-0.392858,0 -0.747433,0.13114 -1.00297,0.343099 -0.249118,0.206662 -0.403372,0.490531 -0.403372,0.80249l0 8.0257e-005c0,0.312039 0.154254,0.595988 0.403372,0.80257 0.255619,0.212039 0.610274,0.343179 1.00305,0.343179 0.0817819,0 0.160755,-0.00553773 0.236116,-0.0159711 0.0776888,-0.0108347 0.154655,-0.0273676 0.229455,-0.0487963l0.00714287 -0.00184591c0.00979135,-0.00256822 0.019984,-0.00473516 0.0303371,-0.00626005l0 -0.000160514c0.0137239,-0.00200642 0.0275282,-0.00313002 0.0407706,-0.00313002 0.025602,0 0.051204,0.00425362 0.0766454,0.011878l8.0257e-005 -0.000321028c0.0230338,0.00682184 0.0444624,0.0164527 0.0645266,0.0279294l0.00874801 0.00545748 0.182825 0.105056 -0.0311397 -0.11557c-0.00537722,-0.0248797 -0.00995187,-0.049037 -0.00922955,-0.0747193 0.00160514,-0.0322633 0.0104334,-0.0632425 0.0246389,-0.0908509 0.0211878,-0.0407706 0.051525,-0.0654897 0.0867578,-0.0922153zm0.548878 -0.262842c-0.0985556,0.178732 -0.241012,0.337079 -0.415009,0.464688l0.0670146 0.248957 -0.000240771 8.0257e-005 0.00184591 0.00609953c0.00545748,0.0182183 0.0108347,0.0370787 0.0108347,0.0620387 0,0.0413324 -0.0148475,0.0794544 -0.0395667,0.10931 -0.00337079,0.00425362 -0.00698236,0.00842698 -0.010915,0.0124398 -0.0310595,0.0310595 -0.0741575,0.0504014 -0.12175,0.0504014 -0.0156501,0 -0.0306582,-0.00240771 -0.0447834,-0.00650082l-0.000963084 -0.000240771 -0.00890853 -0.00272874c-0.0126003,-0.00425362 -0.0237561,-0.00995187 -0.0345105,-0.0160514l8.0257e-005 -0.000160514 -0.000561799 -0.000321028 -0.325763 -0.187159 -0.00866776 -0.00457465c-0.00497593,-0.00280899 -0.00955058,-0.00505619 -0.0134029,-0.00617979l8.0257e-005 -0.000321028 -0.000561799 -0.000160514c-0.00128411,-0.000321028 -0.00361156,-0.000561799 -0.00698236,-0.000561799l-0.00465491 0.000160514 0 -8.0257e-005 -0.000963084 8.0257e-005 -0.00240771 0.000561799 -0.00377208 0.00120385c-0.0832265,0.0238363 -0.171268,0.0426165 -0.262761,0.0552971 -0.0890853,0.0123596 -0.179214,0.0189407 -0.269262,0.0189407 -0.450804,0 -0.860355,-0.152569 -1.15763,-0.399118 -0.303692,-0.251846 -0.491654,-0.601687 -0.491654,-0.989489l0 -8.0257e-005c0,-0.387802 0.187962,-0.737482 0.491654,-0.989408 0.297272,-0.246469 0.706743,-0.399038 1.15755,-0.399038l8.0257e-005 0 0.000240771 0 0 0.000481542c0.451044,8.0257e-005 0.860676,0.152328 1.15755,0.398556 0.303612,0.251846 0.491574,0.601606 0.491574,0.989328l0 0.000160514c0,0.207785 -0.0548958,0.405699 -0.152809,0.583388z"/>
  <path class="fil9" d="M3.26028 1.92207c-1.0126,0 -1.83355,0.68074 -1.83355,1.52063 0,0.458107 0.246951,0.870628 0.633549,1.14928 0.0310595,0.0219904 0.0513645,0.0582666 0.0513645,0.0991174 0,0.0134832 -0.00296951,0.0258428 -0.00658107,0.0388444 -0.0307384,0.114446 -0.0800965,0.297994 -0.0825042,0.306662 -0.00393259,0.014366 -0.00995187,0.0293741 -0.00995187,0.0444624 0,0.0335474 0.0274479,0.0607545 0.0612361,0.0607545 0.0132424,0 0.0240771,-0.00481542 0.0352328,-0.0113162l0.401365 -0.230578c0.0302569,-0.0174158 0.0622794,-0.0280097 0.097432,-0.0280097 0.0186999,0 0.0369182,0.00280899 0.0538524,0.0080257 0.18732,0.0535314 0.389327,0.0833068 0.598557,0.0833068 0.0337882,0 0.0673356,-0.000882827 0.100642,-0.00240771 -0.0398877,-0.11854 -0.0615571,-0.243419 -0.0615571,-0.372633 0,-0.765893 0.748637,-1.38676 1.67207,-1.38676 0.0335474,-8.0257e-005 0.0667738,0.000963084 0.0996792,0.00256822 -0.138042,-0.726406 -0.89615,-1.28195 -1.81084,-1.28195z"/>
  <path class="fil7" d="M3.26028 2.06084c-0.473035,0 -0.900243,0.157946 -1.20819,0.413404 -0.300562,0.249198 -0.486598,0.591815 -0.486598,0.968461 0,0.200562 0.0531301,0.391574 0.147914,0.563484 0.100241,0.181943 0.247031,0.343339 0.426967,0.473115l8.0257e-005 -8.0257e-005c0.0338685,0.0239968 0.0617176,0.0557786 0.0806583,0.0922955 0.00192617,0.00369182 0.00369182,0.00738364 0.0052167,0.0111557 0.0154093,0.0332264 0.0240771,0.0701446 0.0240771,0.108427 0,0.0142857 -0.00184591,0.0292135 -0.00465491,0.0444624 -0.00208668,0.0113965 -0.00457465,0.0211076 -0.00706262,0.0300964l0.000240771 0 -0.0415731 0.154735 0.244302 -0.140369 0.000240771 -8.0257e-005 -0.000240771 -0.000401285c0.0232745,-0.0133227 0.0485555,-0.0246389 0.0761639,-0.0328251l-8.0257e-005 -8.0257e-005c0.0289728,-0.00866776 0.0589889,-0.0134832 0.0901286,-0.0134832 0.0154093,0 0.0314607,0.00128411 0.0475121,0.00361156l0.000561799 8.0257e-005 0 -8.0257e-005c0.0134029,0.00200642 0.0281702,0.00545748 0.0436598,0.0101124l8.0257e-005 -0.000240771c0.0898076,0.025602 0.182424,0.0455057 0.276566,0.0585074 0.0667738,0.00922955 0.135634,0.0153291 0.206341,0.0179776l-0.00433388 -0.0247994c-0.0116373,-0.0699841 -0.0176565,-0.140129 -0.0176565,-0.210113 0,-0.426245 0.206582,-0.810596 0.54021,-1.0874 0.308508,-0.255859 0.727048,-0.419503 1.18989,-0.436598 -0.0913325,-0.261638 -0.275201,-0.492136 -0.520627,-0.665892 -0.297111,-0.210434 -0.684592,-0.337481 -1.10979,-0.337481zm-1.38475 0.19984c0.355539,-0.294944 0.845347,-0.477369 1.38475,-0.477369 0.482746,0 0.926166,0.14663 1.2691,0.389567 0.353853,0.250322 0.601366,0.603693 0.677851,1.0057l-8.0257e-005 0c0.00184591,0.0100321 0.00264848,0.020305 0.00216694,0.0308989 -0.00296951,0.0763244 -0.0672554,0.135715 -0.14358,0.132745l-0.0496791 -0.00192617 -0.0446229 -0.000160514c-0.428412,0 -0.815251,0.143178 -1.09398,0.374238 -0.271349,0.225121 -0.439327,0.534271 -0.439327,0.873838 0,0.0575443 0.00457465,0.112922 0.0133227,0.165731 0.0091493,0.0554576 0.0229535,0.110032 0.0406903,0.163002 0.00409311,0.0123596 0.00658107,0.0254415 0.00706262,0.0390852 0.00256822,0.0762441 -0.0570627,0.140369 -0.133387,0.143018l-0.0501606 0.00176565 0 0 -0.00160514 0 -0.0537722 0.00120385c-0.108026,0 -0.215811,-0.00778493 -0.321911,-0.0225522 -0.108989,-0.0150883 -0.214366,-0.0375603 -0.314607,-0.0661318l8.0257e-005 -0.000321028 -0.00272874 -0.00080257 -0.00642056 -0.0011236 -0.00682184 -0.000401285c-0.00401285,0 -0.00778493,0.000561799 -0.0109952,0.00152488l-8.0257e-005 -0.000160514 -0.000481542 0.000160514c-0.00433388,0.00120385 -0.0102729,0.00417336 -0.0170145,0.00794544l-0.000160514 -0.000321028 -0.398075 0.228572 -0.00208668 0.00136437c-0.0101926,0.00585876 -0.0207866,0.0113162 -0.0326646,0.0162119l-0.00361156 0.00144463 -0.000882827 0.000321028 -0.00240771 0.000963084c-0.0209471,0.00754416 -0.0423757,0.011878 -0.06557,0.011878 -0.0547353,0 -0.104495,-0.0223917 -0.140851,-0.0585074 -0.0363564,-0.0361156 -0.0590692,-0.0861158 -0.0590692,-0.141012 0,-0.0313002 0.00658107,-0.0527288 0.0127609,-0.0735957l0.000160514 8.0257e-005 0.000642056 -0.00248797 0.0011236 -0.00425362 0.0816214 -0.303371c-0.209712,-0.15305 -0.381301,-0.343179 -0.49968,-0.557947 -0.116934,-0.2122 -0.182504,-0.448396 -0.182504,-0.696791 0,-0.463163 0.224559,-0.881142 0.587481,-1.18203z"/>
  <path class="fil8" d="M2.40466 2.95611c0,0.13427 0.10939,0.243259 0.244383,0.243259 0.134992,0 0.244383,-0.108989 0.244383,-0.243259 0,-0.13435 -0.10939,-0.243339 -0.244383,-0.243339 -0.134992,0 -0.244383,0.108989 -0.244383,0.243339zm2.87248 1.22657c0,0.111959 0.0912522,0.202809 0.203692,0.202809 0.11252,0 0.203692,-0.0908509 0.203692,-0.202809 0,-0.111959 -0.091172,-0.202809 -0.203692,-0.202809 -0.11244,0 -0.203692,0.0907707 -0.203692,0.202809zm-1.0187 0c0,0.111959 0.0913325,0.202809 0.203773,0.202809 0.112601,0 0.203773,-0.0908509 0.203773,-0.202809 0,-0.111959 -0.091172,-0.202809 -0.203773,-0.202809 -0.11252,0 -0.203773,0.0907707 -0.203773,0.202809zm-0.631382 -1.22657c0,0.13427 0.10939,0.243259 0.244463,0.243259 0.134912,0 0.244302,-0.108989 0.244302,-0.243259 0,-0.13435 -0.10939,-0.243339 -0.244383,-0.243339 -0.134992,0 -0.244383,0.108989 -0.244383,0.243339z"/>
  <g id="_197807664">
   <path id="_197813712" class="fil7" d="M24.3411 3.96285c0,1.03981 0.42151,1.9813 1.10289,2.66261 0.681302,0.681382 1.6228,1.10297 2.66245,1.10297 1.03981,0 1.98122,-0.42167 2.66253,-1.10289 0.681302,-0.681382 1.10281,-1.6228 1.10281,-2.66261 0,-1.03965 -0.42151,-1.98114 -1.10281,-2.66245 -0.681302,-0.681302 -1.62272,-1.10273 -2.66253,-1.10273l-0.000321028 0c-1.03949,0 -1.98082,0.42151 -2.66212,1.10273 -0.681462,0.681462 -1.10305,1.62288 -1.10305,2.6622l0.000160514 0 0 0.000160514zm0.963004 2.80249c-0.717016,-0.717177 -1.16068,-1.70803 -1.16068,-2.80241l0 -8.0257e-005 0 -0.000160514 0.000160514 0c8.0257e-005,-1.0943 0.44358,-2.08508 1.16052,-2.80201 0.717096,-0.717016 1.70787,-1.16068 2.80201,-1.16068l0.000321028 0c1.09446,0 2.08532,0.44358 2.80241,1.16068 0.717096,0.717016 1.16076,1.70795 1.16076,2.80225 0,1.09438 -0.443661,2.08532 -1.16076,2.80249 -0.717096,0.717016 -1.70795,1.16076 -2.80241,1.16076 -1.0943,0 -2.08524,-0.443661 -2.80233,-1.16084z"/>
   <path id="_221567464" class="fil7" d="M26.3168 6.51101c-0.0270466,-0.0365972 -0.0397272,-0.0875604 -0.0403693,-0.150562 -0.000481542,-0.0453452 0.00345105,-0.102649 0.010915,-0.168058 0.0255217,-0.22496 0.0931784,-0.578332 0.160434,-0.901607 0.0596309,-0.286839 0.1187,-0.548717 0.147914,-0.676647 -0.0967097,-0.0814609 -0.291814,-0.247593 -0.510435,-0.441413 -0.241574,-0.214126 -0.502248,-0.454897 -0.659151,-0.628172 -0.051204,-0.0565812 -0.0927771,-0.107705 -0.120546,-0.15 -0.0492778,-0.0748798 -0.0659713,-0.144543 -0.0413324,-0.20618 0.0236758,-0.0589889 0.0852329,-0.101605 0.175362,-0.13114 0.0607545,-0.0197432 0.145827,-0.0390049 0.246228,-0.057143 0.222151,-0.0402088 0.523837,-0.0760034 0.803373,-0.104174 0.287882,-0.029053 0.54021,-0.0495988 0.670708,-0.0594704l0.0022472 -0.000160514 0.0097111 -0.000722313 0.00882827 -0.0219102 0.000240771 -0.000481542 -0.000240771 -8.0257e-005c0.0613163,-0.151204 0.186357,-0.454415 0.326164,-0.767498 0.088363,-0.197834 0.180418,-0.394062 0.260996,-0.546069 0.051204,-0.0967097 0.1,-0.179294 0.143259,-0.238444 0.0610756,-0.0837883 0.126565,-0.131702 0.195506,-0.131702 0.0663725,0 0.128491,0.0434993 0.186598,0.119824 0.0359551,0.0473516 0.0760034,0.111878 0.118138,0.187882 0.0943822,0.170225 0.207143,0.410836 0.312842,0.649038l8.0257e-005 0.000240771 0.000481542 -0.000240771c0.101044,0.22793 0.199519,0.463484 0.266212,0.626165l0.000321028 0.000642056 0.000240771 -0.000160514 0.0447031 0.109551 0.00272874 0.00722313 0.00240771 0.00601927c0.0585876,0.00441413 0.14061,0.0107544 0.236999,0.0189407 0.1748,0.0146068 0.404736,0.0357946 0.64021,0.0617979 0.168379,0.0185394 0.338524,0.0400482 0.490049,0.0638043 0.132745,0.0207063 0.247593,0.043098 0.328733,0.0661318l0.000481542 0.000160514 0 -0.000160514c0.109792,0.03122 0.184992,0.0772072 0.211076,0.142135 0.0231943,0.0580258 0.0101926,0.123114 -0.0325041,0.192617 -0.0232745,0.0377208 -0.0581863,0.0826647 -0.101605,0.132504 -0.14976,0.171509 -0.415812,0.418701 -0.665009,0.64021 -0.219423,0.195185 -0.429616,0.373757 -0.532345,0.460354 0.0447031,0.195265 0.158748,0.70265 0.237721,1.13154 0.0497593,0.270145 0.0853934,0.510756 0.0813003,0.628493 -0.000882827,0.0261638 -0.00345105,0.048716 -0.00762441,0.0666936l-0.00200642 0.00762441c-0.0100321,0.03748 -0.0289728,0.0678172 -0.056822,0.0900484l-0.000642056 0.000481542 8.0257e-005 8.0257e-005c-0.0173355,0.0134832 -0.0373195,0.0235153 -0.0589086,0.0289728 -0.00417336,0.00104334 -0.00834673,0.00192617 -0.0126003,0.00256822l-0.00136437 0.000240771c-0.00995187,0.0016854 -0.020305,0.00272874 -0.0309792,0.00272874 -0.107946,0 -0.413484,-0.150642 -0.740612,-0.33098 -0.307384,-0.169503 -0.648316,-0.371028 -0.839649,-0.485394l-0.0787321 -0.0471911 -0.0633228 0.0379616c-0.170466,0.102087 -0.478492,0.284511 -0.776165,0.450563 -0.195506,0.10915 -0.38724,0.211557 -0.53387,0.280097 -0.0582666,0.0272071 -0.109551,0.0493581 -0.151204,0.0643661 -0.0539327,0.019663 -0.0995187,0.0305779 -0.134511,0.0305779 -0.0154093,0 -0.0302569,-0.00208668 -0.0443019,-0.00553773l-0.000561799 -8.0257e-005 0 8.0257e-005c-0.0219102,-0.00553773 -0.0418942,-0.0155699 -0.0589086,-0.0289728 -0.0105137,-0.00826647 -0.0195025,-0.0177368 -0.0269664,-0.0280097zm0.245827 -0.288203l-0.00329054 0.0310595c0.0178973,-0.00786519 0.036838,-0.0164527 0.0567417,-0.0257625 0.139005,-0.0650082 0.325121,-0.164447 0.516614,-0.271269 0.293741,-0.163885 0.599279,-0.344864 0.768702,-0.446309 0.0592297,-0.0354736 0.110353,-0.0665331 0.127849,-0.0772072 0.0432585,-0.029053 0.101284,-0.0323436 0.148877,-0.00369182l0.0695026 0.0420547 -0.000160514 0.000240771 0.0797755 0.0478332c0.185715,0.110995 0.518781,0.307705 0.831061,0.480017 0.198315,0.10923 0.381702,0.206341 0.496309,0.257625 -0.0111557,-0.114125 -0.0379616,-0.279535 -0.0715892,-0.461959 -0.083387,-0.453051 -0.209471,-1.00706 -0.244864,-1.16076 -0.00874801,-0.0380418 -0.00666133,-0.0767257 0.00529696,-0.11236 0.0113162,-0.0337882 0.0310595,-0.0641253 0.0583468,-0.0885235l0.00136437 -0.00120385 0.000722313 -0.000722313 0.00329054 -0.00288925c0.0820227,-0.0687802 0.310916,-0.26228 0.558348,-0.482264 0.244383,-0.217256 0.50281,-0.456823 0.641173,-0.61533l0.0231943 -0.0272071c-0.0699841,-0.0177368 -0.160755,-0.0347513 -0.263564,-0.0508829 -0.139647,-0.0219102 -0.307144,-0.0428572 -0.478091,-0.0617176 -0.22167,-0.0244784 -0.452649,-0.045586 -0.632666,-0.0607545 -0.1874,-0.0156501 -0.310193,-0.0247192 -0.310434,-0.0247192l0 -0.000401285c-0.0548958,0 -0.106822,-0.0328251 -0.128491,-0.0869183l-0.0345105 -0.085875 -0.00288925 -0.00650082 -0.0447031 -0.109551 0.000321028 -0.000160514c-0.0628412,-0.15305 -0.157785,-0.379937 -0.263805,-0.618862l0.000481542 -0.000240771c-0.101605,-0.229053 -0.210354,-0.460916 -0.301927,-0.626005 -0.0226325,-0.0410113 -0.0439808,-0.0770467 -0.063082,-0.106902 -0.0275282,0.0430178 -0.0592297,0.0989569 -0.0936599,0.163885 -0.0796952,0.150402 -0.16878,0.340129 -0.253532,0.529696 -0.130899,0.293179 -0.258187,0.602168 -0.32167,0.75891l-0.000240771 -8.0257e-005 -0.0386036 0.0959874c-0.0177368,0.0506422 -0.0641253,0.0885235 -0.121028,0.0924561l-0.0933389 0.0069021 -0.00401285 0.000401285c-0.137721,0.0104334 -0.397994,0.0314607 -0.664127,0.0583468 -0.274479,0.0276887 -0.568942,0.0624399 -0.781703,0.100963 -0.057464,0.0103532 -0.108668,0.0211076 -0.151605,0.0320225 0.0142055,0.0170145 0.0302569,0.0353933 0.0480739,0.054976 0.148475,0.164126 0.401606,0.397513 0.637321,0.606582 0.230338,0.204254 0.454977,0.393901 0.537561,0.463243l0 8.0257e-005 0.000561799 0.000481542c0.0296951,0.0250402 0.0511237,0.057143 0.0631623,0.0927771 0.0119583,0.0357144 0.014045,0.074318 0.00529696,0.11236 -0.0239968,0.104896 -0.0904496,0.395828 -0.15626,0.712441 -0.0656502,0.315731 -0.131621,0.659873 -0.1561,0.875684zm1.54872 -4.8159l0.000882827 0.000642056c0.00184591,-0.000321028 0.00192617,-0.000561799 -0.000882827,-0.000642056zm-0.00473516 0c-0.0091493,0 -0.00842698,0.000561799 -0.00377208,0.00192617l0.00939007 -0.00128411 -0.000882827 -0.000642056 -0.00473516 0z"/>
   <path id="_221567152" class="fil8" d="M29.5355 4.83412l-0.0419744 -0.104816c0.0074639,0.0313002 -1.31846,-0.00698236 -1.66461,-0.0898076 -0.00810596,-0.00184591 -0.0139647,-0.0080257 -0.0154896,-0.0162119 -0.00160514,-0.00818621 0.00152488,-0.0161317 0.00834673,-0.0209471l1.38548 -0.988044c0.00698236,-0.00505619 0.0100321,-0.0132424 0.00810596,-0.0216694 -0.00192617,-0.00842698 -0.00842698,-0.0145265 -0.016854,-0.0158909 -0.765893,-0.126886 -1.57248,-0.166774 -2.34455,-0.0726326 -0.110193,0.0134832 -0.121509,0.0390049 -0.00561799,0.0487963 0.540451,0.045907 1.06316,0.0759231 1.59535,0.183146 0.00810596,0.00160514 0.014366,0.00778493 0.0161317,0.0159711 0.00184591,0.00818621 -0.00120385,0.0162119 -0.00786519,0.0211076l-1.42737 1.0622c-0.00706262,0.00529696 -0.0101124,0.0142055 -0.00754416,0.0227127 0.00256822,0.00850724 0.00987161,0.0142857 0.0187801,0.0147673 0.826647,0.0451044 1.67713,0.0679777 2.49968,-0.0386839z"/>
  </g>
  <g id="_221579032">
   <path id="_197812488" class="fil7" d="M36.4128 3.96285c0,1.03981 0.42151,1.9813 1.10281,2.66261 0.681302,0.681382 1.6228,1.10297 2.66245,1.10297 1.03981,0 1.98122,-0.42167 2.66261,-1.10289 0.681221,-0.681382 1.10273,-1.6228 1.10273,-2.66261 0,-1.03965 -0.42151,-1.98114 -1.10273,-2.66245 -0.681382,-0.681302 -1.6228,-1.10273 -2.66261,-1.10273l-0.000240771 0c-1.03957,0 -1.9809,0.42151 -2.6622,1.10273 -0.681462,0.681462 -1.10305,1.62288 -1.10305,2.6622l0.000240771 0 0 0.000160514zm0.963004 2.80249c-0.717096,-0.717177 -1.16076,-1.70803 -1.16076,-2.80241l0 -8.0257e-005 0 -0.000160514 0.000240771 0c0,-1.0943 0.44358,-2.08508 1.16052,-2.80201 0.717016,-0.717016 1.70779,-1.16068 2.80201,-1.16068l0.000240771 0c1.09446,0 2.08532,0.44358 2.80241,1.16068 0.717096,0.717016 1.16076,1.70795 1.16076,2.80225 0,1.09438 -0.443661,2.08532 -1.16076,2.80249 -0.717096,0.717016 -1.70795,1.16076 -2.80241,1.16076 -1.09422,0 -2.08524,-0.443661 -2.80225,-1.16084z"/>
   <path id="_197810520" class="fil8" d="M38.8205 2.93468l2.75595 0c0.106983,0 0.194302,0.0872394 0.194302,0.194222l0 1.20698c0,0.106983 -0.0873196,0.194302 -0.194302,0.194302l-0.0697433 0 -0.321429 0 -1.92031 0 -0.0813003 0 -0.306823 0 -0.0563404 0c-0.106983,0 -0.194222,-0.0873196 -0.194222,-0.194302l0 -1.20698c0,-0.106983 0.0872394,-0.194222 0.194222,-0.194222zm2.21397 2.65434l0.472232 0 0.545828 0c0.106983,0 0.194222,0.0873196 0.194222,0.194302l0 0.0154896c0,0.106983 -0.0872394,0.194302 -0.194222,0.194302l-3.74961 0c-0.106983,0 -0.194302,-0.0873196 -0.194302,-0.194302l0 -0.0155699c0,-0.106983 0.0873196,-0.194222 0.194302,-0.194222l0.573918 0 0 0 0.929216 0 1.22841 0zm-1.77496 -1.46068l1.87569 0c0.106983,0 0.194222,-0.0872394 0.194222,-0.194222l0 -0.394062c0,-0.106983 -0.0872394,-0.194302 -0.194222,-0.194302l-1.87569 0c-0.107063,0 -0.194302,0.0873196 -0.194222,0.194382l0 0.393982c0,0.106983 0.0872394,0.194222 0.194222,0.194222z"/>
   <path id="_197812872" class="fil8" d="M38.4212 2.0663l3.54062 0c0.106983,0 0.194222,0.0872394 0.194222,0.194222l0 0.0107544c0,0.106983 -0.0872394,0.194302 -0.194222,0.194302l-3.54062 0c-0.106983,0 -0.194222,-0.0873196 -0.194222,-0.194302l0 -0.0107544c0,-0.106983 0.0872394,-0.194222 0.194222,-0.194222z"/>
   <g>
    <path id="_221578888" class="fil8" d="M39.2793 4.61903l0.54639 1.03259c0.0500001,0.0945427 0.0136437,0.212521 -0.0808188,0.262521l-0.00955058 0.00505619c-0.0944625,0.0500001 -0.212521,0.0136437 -0.262521,-0.0808188l-0.54639 -1.03259c-0.0500001,-0.0944625 -0.0137239,-0.212521 0.0808188,-0.262521l0.00955058 -0.00505619c0.0945427,-0.0500001 0.21244,-0.0137239 0.262521,0.0808188z"/>
    <path id="_197817168" class="fil8" d="M41.076 4.61903l-0.54639 1.03259c-0.0500804,0.0945427 -0.0137239,0.212521 0.0808188,0.262521l0.00947033 0.00505619c0.0945427,0.0500001 0.212601,0.0136437 0.262601,-0.0808188l0.54639 -1.03259c0.0500001,-0.0944625 0.0137239,-0.212521 -0.0808188,-0.262521l-0.00955058 -0.00505619c-0.0945427,-0.0500001 -0.212521,-0.0137239 -0.262521,0.0808188z"/>
   </g>
  </g>
  <path class="fil2" d="M5.91911 23.3727c0.141172,-0.105377 0.256662,-0.234752 0.336437,-0.379535 0.0784913,-0.142296 0.122472,-0.300643 0.122472,-0.466694l0 -0.000160514c0,-0.311959 -0.154254,-0.595828 -0.403372,-0.802409 -0.25594,-0.2122 -0.610756,-0.34366 -1.00297,-0.34366l0 0.000561799 -0.000240771 0 -8.0257e-005 0c-0.392858,0 -0.747433,0.13114 -1.00297,0.343099 -0.249118,0.206662 -0.403372,0.490531 -0.403372,0.80249l0 8.0257e-005c0,0.312039 0.154254,0.595988 0.403372,0.80257 0.255619,0.212039 0.610274,0.343179 1.00305,0.343179 0.0817819,0 0.160755,-0.00553773 0.236116,-0.0159711 0.0776888,-0.0108347 0.154655,-0.0273676 0.229455,-0.0487963l0.00714287 -0.00184591c0.00979135,-0.00256822 0.019984,-0.00473516 0.0303371,-0.00626005l0 -0.000160514c0.0137239,-0.00200642 0.0275282,-0.00313002 0.0407706,-0.00313002 0.025602,0 0.051204,0.00425362 0.0766454,0.011878l8.0257e-005 -0.000321028c0.0230338,0.00682184 0.0444624,0.0164527 0.0645266,0.0279294l0.00874801 0.00545748 0.182825 0.105056 -0.0311397 -0.11557c-0.00537722,-0.0248797 -0.00995187,-0.049037 -0.00922955,-0.0747193 0.00160514,-0.0322633 0.0104334,-0.0632425 0.0246389,-0.0908509 0.0211878,-0.0407706 0.051525,-0.0654897 0.0867578,-0.0922153zm0.548878 -0.262842c-0.0985556,0.178732 -0.241012,0.337079 -0.415009,0.464688l0.0670146 0.248957 -0.000240771 8.0257e-005 0.00184591 0.00609953c0.00545748,0.0182183 0.0108347,0.0370787 0.0108347,0.0620387 0,0.0413324 -0.0148475,0.0794544 -0.0395667,0.10931 -0.00337079,0.00425362 -0.00698236,0.00842698 -0.010915,0.0124398 -0.0310595,0.0310595 -0.0741575,0.0504014 -0.12175,0.0504014 -0.0156501,0 -0.0306582,-0.00240771 -0.0447834,-0.00650082l-0.000963084 -0.000240771 -0.00890853 -0.00272874c-0.0126003,-0.00425362 -0.0237561,-0.00995187 -0.0345105,-0.0160514l8.0257e-005 -0.000160514 -0.000561799 -0.000321028 -0.325763 -0.187159 -0.00866776 -0.00457465c-0.00497593,-0.00280899 -0.00955058,-0.00505619 -0.0134029,-0.00617979l8.0257e-005 -0.000321028 -0.000561799 -0.000160514c-0.00128411,-0.000321028 -0.00361156,-0.000561799 -0.00698236,-0.000561799l-0.00465491 0.000160514 0 -8.0257e-005 -0.000963084 8.0257e-005 -0.00240771 0.000561799 -0.00377208 0.00120385c-0.0832265,0.0238363 -0.171268,0.0426165 -0.262761,0.0552971 -0.0890853,0.0123596 -0.179214,0.0189407 -0.269262,0.0189407 -0.450804,0 -0.860355,-0.152569 -1.15763,-0.399118 -0.303692,-0.251846 -0.491654,-0.601687 -0.491654,-0.989489l0 -8.0257e-005c0,-0.387802 0.187962,-0.737482 0.491654,-0.989408 0.297272,-0.246469 0.706743,-0.399038 1.15755,-0.399038l8.0257e-005 0 0.000240771 0 0 0.000481542c0.451044,8.0257e-005 0.860676,0.152328 1.15755,0.398556 0.303612,0.251846 0.491574,0.601606 0.491574,0.989328l0 0.000160514c0,0.207785 -0.0548958,0.405699 -0.152809,0.583388z"/>
 </g>
</svg>
