<?xml version="1.0" encoding="UTF-8"?>
<svg width="40px" height="40px" viewBox="0 0 40 40" version="1.1" xmlns="http://www.w3.org/2000/svg" xmlns:xlink="http://www.w3.org/1999/xlink">
    <!-- Generator: Sketch 50.2 (55047) - http://www.bohemiancoding.com/sketch -->
    <title>beauty</title>
    <desc>Created with Sketch.</desc>
    <defs>
        <rect id="path-1" x="0" y="0" width="40" height="40"></rect>
    </defs>
    <g id="beauty" stroke="none" stroke-width="1" fill="none" fill-rule="evenodd">
        <g id="ic_emotional_radar-copy-2">
            <mask id="mask-2" fill="white">
                <use xlink:href="#path-1"></use>
            </mask>
            <use id="Mask" fill="#D8D8D8" opacity="0" xlink:href="#path-1"></use>
            <path d="M30.6544668,28.3971455 C30.9846439,28.2060637 31.2929661,28.1495469 31.5796244,28.2276908 C31.8663145,28.3059618 32.1138439,28.4622495 32.3223718,28.696681 C32.5308997,28.9312397 32.6959087,29.2178625 32.817558,29.5565176 C32.9391118,29.8952046 33,30.2382169 33,30.5857136 C33,30.9330832 32.9347535,31.2543412 32.804515,31.5496467 C32.6741811,31.8449521 32.4700115,32.0621456 32.1920061,32.2010361 C32.157331,32.3400539 31.9141598,32.4702618 31.4623334,32.5918825 C31.0802072,32.6961061 30.4720565,32.7916471 29.638104,32.8785054 C28.8042787,32.9653318 27.6141904,32.9999988 26.0678392,32.9826017 C25.9636866,32.9999988 25.7377893,33.004356 25.3903382,32.9956416 C25.0428872,32.9869589 24.6432326,32.9435775 24.1915335,32.8654337 C23.7398344,32.7872898 23.2663758,32.6569865 22.7711897,32.4745873 C22.2760989,32.2922198 21.8287581,32.0403912 21.4291035,31.7189742 C21.0294807,31.3977162 20.7081155,30.9851155 20.4649443,30.4814583 C20.221614,29.9776738 20.1260507,29.3611103 20.1782542,28.631577 C20.1260507,28.3710658 20.0435621,28.1018401 19.9305975,27.8239317 C19.8177602,27.5459915 19.7655567,27.2202491 19.7742732,26.846927 C19.7829579,26.4734777 19.9046071,26.0391545 20.1390936,25.5441799 C20.3737074,25.0491099 20.8297647,24.4629516 21.5072657,23.7854824 C21.7678699,23.3512863 21.8634332,22.9691226 21.7939557,22.6391501 C21.7418794,22.3438447 21.5377098,22.0833334 21.181574,21.8574573 C20.8254383,21.6317085 20.1782542,21.5188022 19.2400536,21.5188022 C18.2497768,21.449341 17.4506266,21.2147823 16.8424759,20.8152533 C16.5818717,20.6415685 16.3430269,20.4288595 16.1258144,20.1769037 C15.9086018,19.925075 15.7566357,19.6081425 15.669757,19.2260105 C15.5829101,18.8438468 15.5698672,18.4009363 15.6306282,17.8971836 C15.6915164,17.3935264 15.8695684,16.8115981 16.164975,16.151526 C16.2518218,15.5610105 16.1996501,15.0572579 16.0085234,14.6404271 C15.9216447,14.4667423 15.8088074,14.3060974 15.669757,14.158397 C15.5308338,14.010792 15.3484236,13.8891713 15.1224945,13.7936303 C14.8966927,13.6980894 14.6187191,13.6416999 14.288542,13.6243028 C13.9584921,13.6069057 13.5588693,13.6503825 13.089769,13.7546379 C13.1245396,13.9282909 13.1419408,14.1280872 13.1419408,14.3538043 C13.1419408,14.5448862 13.1332561,14.7880321 13.1158549,15.0833376 C13.0984537,15.3786431 13.0463774,15.7172982 12.9595306,16.0994619 C12.8552825,16.4990228 12.7640456,16.8420351 12.6858834,17.1286261 C12.6077213,17.4152489 12.5034732,17.6714348 12.3731075,17.8971836 C12.2429008,18.1230279 12.0603316,18.3401895 11.825845,18.5485413 C11.5913585,18.7570203 11.2568231,18.9828646 10.8225252,19.2260105 C10.8399264,19.2780746 10.8746015,19.3389486 10.9268051,19.4083779 C11.0136519,19.5299986 11.1353012,19.6341268 11.2916255,19.7209533 C11.4827522,19.8078116 11.7041958,19.8860826 11.9562108,19.955512 C12.2080985,20.0249732 12.3600646,20.1291968 12.4122681,20.2680874 C12.4469432,20.3376758 12.4469432,20.4158196 12.4122681,20.5026461 C12.3774657,20.5895044 12.3383369,20.6806881 12.2949453,20.776229 C12.2514583,20.87177 12.2124567,20.9629537 12.1776543,21.049812 C12.1429792,21.1366385 12.1342945,21.2060997 12.1516639,21.2582592 C12.186339,21.3625146 12.2385426,21.4232613 12.3079883,21.4406584 C12.3774657,21.4579283 12.4122681,21.484008 12.4122681,21.5188022 C12.3948669,21.5188022 12.3774657,21.5274849 12.3600646,21.544882 C12.3253894,21.579549 12.2993036,21.6143432 12.2819024,21.6489783 C12.2298261,21.7532337 12.2167831,21.8313776 12.2429008,21.8835371 C12.2688595,21.9356012 12.2993036,21.979078 12.3341059,22.013745 C12.3687811,22.0485392 12.4122681,22.0876588 12.4643444,22.1310403 C12.5165162,22.1745171 12.5425066,22.2396211 12.5425066,22.3264476 C12.4556279,22.7086113 12.4382267,23.0559809 12.4904303,23.3686834 C12.5251054,23.6291947 12.6249952,23.8810233 12.7901633,24.1241693 C12.9551723,24.3674107 13.2375041,24.5063012 13.6370315,24.5410954 L18.0673347,24.5410954 C18.5016645,25.3748523 18.8057239,26.2345618 18.9794494,27.12051 C19.0489269,27.5025147 19.0880557,27.9020755 19.0967722,28.3188745 C19.1054569,28.7358324 19.0663281,29.1656712 18.9794494,29.6085817 C18.8926026,30.0516194 18.7491939,30.4901727 18.5495098,30.9243687 C18.3496666,31.3585648 18.0673347,31.7842054 17.7025143,32.2010361 C17.1639365,32.5137387 16.573187,32.7307731 15.9303612,32.8523938 C15.3743822,32.9566492 14.7271982,32.9826017 13.988809,32.9305376 C13.2504198,32.8785054 12.4469432,32.6352322 11.5783156,32.2010361 C11.2308645,32.4441503 10.9094039,32.5570883 10.6139973,32.5396912 C10.3534249,32.5396912 10.1015372,32.4138405 9.85836603,32.1618847 C9.61503576,31.9100561 9.42390905,31.4194705 9.28498588,30.6899372 C8.85068796,30.2382169 8.59867301,29.8127035 8.52919553,29.4132698 C8.49442497,29.2394897 8.49875141,29.0658049 8.54223846,28.8921201 C8.58563008,28.7184353 8.69423637,28.5534332 8.8679619,28.3971455 C9.04168743,28.2407306 9.28498588,28.0931574 9.59763458,27.9541078 C9.91041052,27.8152172 10.3187498,27.702311 10.8225252,27.6154527 C11.2568231,27.3375444 11.5088381,27.0422389 11.5783156,26.7296317 C11.6477931,26.4517234 11.5348285,26.1303382 11.2394538,25.7655715 C10.9441744,25.4008049 10.2926639,24.9926886 9.28498588,24.5410954 C8.29470901,23.9330874 7.62579732,23.2122685 7.27834626,22.3785117 C7.12189467,22.0311421 7.03068956,21.6402957 7.00469912,21.2060997 C6.97861325,20.7718718 7.06113368,20.2941989 7.25226039,19.7731446 C7.4433871,19.2520903 7.76036223,18.6875591 8.2035039,18.0795511 C8.64651832,17.4716702 9.2675847,16.8289952 10.0667349,16.151526 C10.2578616,16.0126354 10.4141859,15.8389507 10.5358352,15.6304717 C10.640115,15.4393898 10.7269619,15.2006011 10.7964394,14.9140101 C10.8660123,14.6273872 10.8746015,14.2756605 10.8225252,13.8588615 C10.3534249,12.9729133 10.1015372,12.1304738 10.0667349,11.3315111 C10.0493337,11.0015386 10.0797778,10.6585263 10.1579718,10.3023469 C10.236134,9.94626289 10.3882273,9.60760779 10.6139973,9.28631799 C10.8399264,8.96493278 11.1525751,8.67395273 11.5522297,8.41344147 C11.9518525,8.15293021 12.4730291,7.93576858 13.1158549,7.76208381 C13.567554,7.44947665 14.0192531,7.23231503 14.470984,7.11069434 C14.8706068,7.00647075 15.2918618,6.98048641 15.7348762,7.0325505 C16.1778907,7.08474181 16.5818717,7.32785597 16.9467239,7.76208381 C17.8849245,7.39731715 18.8144404,7.16288564 19.7352398,7.05863025 C20.117366,7.00647075 20.521347,6.98920087 20.9469603,7.00647075 C21.3727007,7.02386785 21.798314,7.08474181 22.2239272,7.18883817 C22.6496359,7.29306176 23.0578479,7.44947665 23.448786,7.65782842 C23.839756,7.86630739 24.2089346,8.15293021 24.5563857,8.51766506 C25.6335094,8.56972915 26.5804265,8.92578135 27.3969779,9.58585347 C27.7444289,9.86379363 28.0788052,10.2242031 28.4002977,10.6670817 C28.7216311,11.1101195 29.0039947,11.6572535 29.2472931,12.3085158 C29.4904643,12.9598734 29.6729064,13.7285264 29.7945556,14.6143474 C29.9160776,15.5002638 29.9508799,16.5249753 29.8988036,17.6888319 C31.0454049,18.817767 31.8793574,19.9294323 32.400534,21.0237004 C32.6264631,21.4926907 32.7914721,21.9834352 32.8957201,22.4957751 C33,23.008274 33.0043582,23.5162567 32.9087949,24.0199139 C32.8132315,24.5236983 32.5873025,25.0188001 32.2311667,25.5050602 C31.875031,25.9914476 31.3494961,26.4430407 30.6544668,26.8598397 C30.2027677,26.912031 29.8119568,27.0336517 29.4817797,27.2246063 C29.1864049,27.3810212 28.917116,27.6110955 28.673913,27.9151154 C28.4307418,28.2191353 28.3264938,28.631577 28.3611371,29.1526314 C28.3438949,29.4479368 28.3785382,29.6997654 28.4654169,29.9082444 C28.5522638,30.0993263 28.7000307,30.2730111 28.9084313,30.4292988 C29.1169274,30.5857136 29.4469773,30.6725401 29.8988036,30.6899372 C30.0029563,30.5683165 30.0812457,30.4640612 30.133322,30.3772347 C30.1680925,30.2904082 30.176809,30.2079071 30.1594078,30.1297633 C30.1420067,30.0516194 30.055128,29.9776738 29.8988036,29.9082444 C29.8119568,29.6650985 29.7858709,29.4392542 29.8205142,29.2307752 C29.8379154,29.0398205 29.9073929,28.8660086 30.0290421,28.7097209 C30.1506913,28.5534332 30.3592192,28.4492096 30.6544668,28.3971455 C30.6370656,28.3971455 30.6414238,28.3927883 30.6675097,28.3841057 C30.6936274,28.375423 30.6892691,28.3797484 30.6544668,28.3971455 Z" id="Fill-1" fill="#8CDFFF" mask="url(#mask-2)"></path>
        </g>
    </g>
</svg>