<?xml version="1.0" encoding="UTF-8"?>
<svg width="27px" height="32px" viewBox="0 0 27 32" version="1.1" xmlns="http://www.w3.org/2000/svg" xmlns:xlink="http://www.w3.org/1999/xlink">
    <!-- Generator: Sketch 50.2 (55047) - http://www.bohemiancoding.com/sketch -->
    <title>Combined Shape Copy 2</title>
    <desc>Created with Sketch.</desc>
    <defs></defs>
    <g id="Marketing2" stroke="none" stroke-width="1" fill="none" fill-rule="evenodd">
        <g id="竞品详情" transform="translate(-2809.000000, -289.000000)" fill="#943F39" fill-rule="nonzero">
            <path d="M2819.63766,297.551953 L2812.99607,304.193546 C2812.07891,305.110697 2810.58916,305.107939 2809.66861,304.187386 C2808.74806,303.266834 2808.7453,301.777081 2809.66245,300.859931 L2820.81251,289.709869 C2821.72966,288.792719 2823.21941,288.795477 2824.13997,289.716029 L2835.33139,300.907452 C2836.25194,301.828005 2836.2547,303.317757 2835.33755,304.234908 C2834.4204,305.152058 2832.93065,305.1493 2832.0101,304.228747 L2825.0256,297.244247 L2825.0256,318.315988 C2825.0256,319.798327 2823.81946,321 2822.33163,321 C2820.84379,321 2819.63766,319.798327 2819.63766,318.315988 L2819.63766,297.551953 Z" id="Combined-Shape-Copy-2" transform="translate(2822.500000, 305.000000) scale(1, -1) translate(-2822.500000, -305.000000) "></path>
        </g>
    </g>
</svg>