<?xml version="1.0" encoding="UTF-8"?>
<svg width="40px" height="40px" viewBox="0 0 40 40" version="1.1" xmlns="http://www.w3.org/2000/svg" xmlns:xlink="http://www.w3.org/1999/xlink">
    <!-- Generator: Sketch 50.2 (55047) - http://www.bohemiancoding.com/sketch -->
    <title>family</title>
    <desc>Created with Sketch.</desc>
    <defs>
        <rect id="path-1" x="0" y="0" width="40" height="40"></rect>
    </defs>
    <g id="family" stroke="none" stroke-width="1" fill="none" fill-rule="evenodd">
        <g id="ic_emotional_radar-copy">
            <mask id="mask-2" fill="white">
                <use xlink:href="#path-1"></use>
            </mask>
            <use id="Mask" fill="#D8D8D8" opacity="0" xlink:href="#path-1"></use>
            <path d="M32.8571551,24.332642 C32.6164018,24.332642 32.3820168,24.2902986 32.1643003,24.2161975 C30.4316719,29.3273541 25.6396437,33 20,33 C14.3604845,33 9.56828537,29.3273541 7.83548599,24.2163704 C7.61798319,24.2902986 7.38355544,24.332642 7.14280219,24.332642 C5.95843983,24.332642 5,23.3616808 5,22.1663858 C5,20.9688872 5.95843983,20.0000864 7.14280219,20.0000864 C7.14280219,12.8198476 12.8996812,7 20,7 L20,8.08321451 C20,9.87719403 18.5623616,11.3327284 16.7858395,11.3327284 C16.4069939,11.3327284 16.0512279,11.2544363 15.7121304,11.1339303 L15.7121304,13.3889781 C16.0595622,13.4608755 16.4195167,13.4990278 16.7858395,13.4990278 C19.3784352,13.4990278 21.5381196,11.6373852 22.0361237,9.16647223 L22.1428022,7.17991644 C28.2218965,8.21236203 32.8571551,13.5582654 32.8571551,20.0000864 C34.0415174,20.0000864 35,20.9688872 35,22.1663858 C35,23.361508 34.0415174,24.332642 32.8571551,24.332642 Z M25.2421209,24.332642 C23.8923128,25.6717751 22.0403122,26.501145 20,26.501145 C17.9596451,26.501145 16.1076444,25.6717751 14.7580073,24.332642 C14.243121,24.8403313 13.8037132,25.4199612 13.4521357,26.0589584 C15.1724123,27.6709475 17.4658295,28.6652408 20,28.6652408 C22.5319907,28.6652408 24.8277586,27.6709475 26.5476933,26.0589584 C26.196244,25.4200909 25.7568362,24.8403313 25.2421209,24.332642 Z M16.7858395,18.9168719 C16.7858395,17.7193733 15.8251772,16.7485417 14.6408148,16.7485417 C13.46047,16.7485417 12.4977989,17.7193733 12.4977989,18.9168719 C12.4977989,20.1141977 13.46047,21.0831281 14.6408148,21.0831281 C15.8251772,21.0831281 16.7858395,20.1141977 16.7858395,18.9168719 Z M25.3591425,16.7485417 C24.1746091,16.7485417 23.2143315,17.7193733 23.2143315,18.9168719 C23.2143315,20.1141977 24.1746091,21.0831281 25.3591425,21.0831281 C26.5394873,21.0831281 27.4977989,20.1141977 27.4977989,18.9168719 C27.4977989,17.7195461 26.5394873,16.7485417 25.3591425,16.7485417 Z" id="Combined-Shape" fill="#8CDFFF" mask="url(#mask-2)"></path>
        </g>
    </g>
</svg>