<?xml version="1.0" encoding="UTF-8"?>
<svg width="40px" height="40px" viewBox="0 0 40 40" version="1.1" xmlns="http://www.w3.org/2000/svg" xmlns:xlink="http://www.w3.org/1999/xlink">
    <!-- Generator: Sketch 50.2 (55047) - http://www.bohemiancoding.com/sketch -->
    <title>food</title>
    <desc>Created with Sketch.</desc>
    <defs>
        <rect id="path-1" x="0" y="0" width="40" height="40"></rect>
    </defs>
    <g id="food" stroke="none" stroke-width="1" fill="none" fill-rule="evenodd">
        <g id="ic_emotional_radar">
            <mask id="mask-2" fill="white">
                <use xlink:href="#path-1"></use>
            </mask>
            <use id="Mask" fill="#D8D8D8" opacity="0" xlink:href="#path-1"></use>
            <path d="M34.7922086,11.830444 C34.5445253,11.4236659 34.1407655,11.1381044 33.6378566,10.9839889 C33.3673568,10.90043 32.9812589,10.8963083 32.7272082,10.9970286 C32.5829948,11.0545455 32.4737261,11.1379545 32.3622591,11.2262347 C32.3031714,11.2863746 32.2439699,11.3459524 32.1841242,11.4049308 C32.0584443,11.5255478 31.933333,11.6457152 31.808108,11.7663323 C30.4948748,13.0417854 29.1818311,14.3173885 27.8668165,15.5925419 C27.559477,15.8924546 27.251531,16.1910558 26.94476,16.4899193 C26.7818992,16.649468 26.5120059,16.8887911 26.230856,16.9201164 C26.2167947,16.8883415 26.1945847,16.8633113 26.1849578,16.8240799 C26.1390596,16.6260491 26.3672239,16.4460415 26.4465887,16.3482439 C26.8093017,15.9575781 27.1712945,15.5666499 27.5331358,15.1764337 C28.5608983,14.0625527 29.5894189,12.9485592 30.6174846,11.8352777 C30.906897,11.5197024 31.1973706,11.2044269 31.4878442,10.8893013 C31.594005,10.758305 31.7300697,10.6507276 31.8217144,10.5050804 C31.880499,10.4097933 31.9244642,10.3063002 31.951715,10.1981233 C32.0852404,9.68043293 31.7952216,9.23547255 31.5792236,8.9696579 C31.4699549,8.83603864 31.315546,8.72685004 31.1624258,8.63815773 C31.0690376,8.58442525 30.9587077,8.54403222 30.8445877,8.51330653 C30.5961464,8.44492315 30.2692499,8.48037009 30.0662898,8.56070652 C29.8587058,8.64269164 29.7198364,8.77338822 29.5608415,8.90030029 C29.5044068,8.95504446 29.4493366,9.01050058 29.3929399,9.0656944 C29.2454669,9.20838149 29.0969706,9.35080628 28.9502557,9.49293131 C27.6596873,10.7454152 26.3693085,11.9981613 25.0793086,13.2504953 C24.8643718,13.4599545 24.6487907,13.6692639 24.433816,13.8781236 C24.3720752,13.9403619 24.3101828,14.0025626 24.2466985,14.0657751 C24.164946,14.1308986 24.0915317,14.2004436 24.0018199,14.2608832 C23.8833791,14.3391963 23.6891363,14.4855554 23.5046719,14.4843939 C23.4470624,14.2980538 23.614964,14.0448667 23.687355,13.9292332 C23.7239295,13.8766623 23.7588742,13.8238291 23.7936674,13.7721575 C23.9018749,13.6629689 24.0106887,13.5543798 24.120109,13.4463528 C24.3560809,13.20658 24.5923939,12.9674443 24.8291238,12.7276715 C25.4401265,12.1045771 26.050826,11.4812204 26.6624351,10.8579761 C26.9953958,10.5186821 27.3274847,10.1776645 27.6596873,9.83762104 C27.7711922,9.72494771 27.8832656,9.61148749 27.9951874,9.4986268 C28.094526,9.39532105 28.194471,9.29197783 28.2942645,9.18863461 C28.367224,9.11444332 28.4388949,9.03920287 28.5108689,8.96456193 C28.5752628,8.89707784 28.64068,8.82914409 28.704657,8.76139771 C28.892684,8.53114242 29.1316122,8.34202957 29.3132719,8.10446756 C29.5313545,7.8181941 29.5657307,7.35757111 29.4071528,6.97788408 C29.1932014,6.46603912 28.7299749,5.98668096 27.9894264,6.00028269 C27.9649802,6.00174404 27.9408373,6.00350514 27.9165806,6.00556601 C27.8649215,6.01377202 27.8141341,6.02164079 27.7621718,6.02943463 C27.6143956,6.06600569 27.4750714,6.11359303 27.3570854,6.18133942 C27.0781717,6.34279915 26.8599375,6.56042693 26.6138839,6.75321187 C26.2258151,7.05664675 25.8807261,7.41070407 25.4956516,7.71676187 C25.3699338,7.83179584 25.2416009,7.94667993 25.1153146,8.0614516 C24.8622872,8.28919638 24.6102832,8.51577957 24.3589235,8.74251265 L24.121284,8.96190154 C24.0172077,9.05996144 23.9115017,9.15760917 23.8062505,9.2553693 C23.6753403,9.38067015 23.5443164,9.50492182 23.4134441,9.6299229 C23.2727934,9.76342975 23.1311193,9.89663684 22.9895968,10.0305559 C22.9453284,10.074621 22.9015148,10.1196978 22.8564883,10.1640252 C22.7729923,10.2454108 22.6890415,10.327396 22.6061519,10.4094935 C22.5413033,10.4607155 22.4888861,10.5252769 22.4302532,10.5827939 C22.3619934,10.6517393 22.2933167,10.7202351 22.2247538,10.7884311 C22.1856778,10.8262012 22.1476251,10.8632219 22.1083976,10.90043 C21.9182859,11.0977114 21.7280606,11.2957422 21.5389723,11.4924615 C21.4644968,11.5729853 21.391234,11.6534716 21.3173649,11.733246 C21.1291862,11.9642132 20.917471,12.1745717 20.7362661,12.4122461 C20.6247613,12.5578934 20.5118162,12.7057139 20.4112647,12.8635015 C20.2841067,13.0681271 20.1718817,13.3030662 20.0716335,13.5287501 C19.9469769,13.8076044 19.8087139,14.0729694 19.7235882,14.4019966 C19.6941012,14.5142577 19.6919029,14.6336757 19.6713227,14.7595761 L19.6713227,14.9407827 C19.6734072,14.9903934 19.675037,15.0410533 19.6772352,15.0906641 C19.6886434,15.1806679 19.7025531,15.2702595 19.7149847,15.3601134 C19.7425387,15.4938825 19.7589499,15.619633 19.8049996,15.734667 C19.9751374,16.1708593 20.2222143,16.4651889 20.4922592,16.7968764 C20.5904229,16.8977091 20.6893068,16.9979797 20.7864471,17.0988124 C20.8213919,17.1311868 20.8555786,17.1645354 20.889917,17.1980714 C20.6555748,17.4350339 20.4229761,17.6739074 20.1895057,17.9101579 C20.1563423,17.9432442 20.123899,17.9745694 20.0892575,18.0069063 C17.0132089,14.9962388 13.9352274,11.9827985 10.8591789,8.97171877 C10.4125151,8.53043048 9.96748105,8.08561998 9.44619012,7.71676187 C9.15734628,7.51269836 8.85826916,7.31833966 8.50650959,7.17475329 C8.24400698,7.06818762 7.81925,6.952704 7.4442192,7.03277814 C7.20172833,7.08531156 7.01161671,7.16946997 6.84523113,7.29492069 C6.64196785,7.44686295 6.49331996,7.65572267 6.37249144,7.89062429 C6.24620517,8.13624242 6.17646725,8.41303588 6.11309671,8.72902332 C6.10468268,8.81468054 6.09520742,8.90030029 6.08614907,8.98532051 C6.08558055,9.02762453 6.08451932,9.06932903 6.08349599,9.11122088 C6.05344047,9.28613246 6.05344047,9.47726871 6.02368815,9.66124811 L6.01110501,9.92792458 C6.00682219,10.0355394 6.0037143,10.1436788 6,10.2518557 L6,10.6089856 C6.00534405,10.758867 6.01110501,10.9081864 6.01584264,11.0576181 C6.0253179,11.1625726 6.03392143,11.2674895 6.04279028,11.372444 C6.08084292,11.5922825 6.09505581,11.8133201 6.14375865,12.0164843 C6.20076182,12.2597418 6.24518184,12.4937816 6.33550002,12.7006179 C6.50131708,13.0785439 6.73167961,13.4087326 6.95878265,13.7282422 C7.29560921,14.199844 7.66188488,14.6348748 8.02103515,15.0823082 L8.51287697,15.6459746 C8.75582265,15.9467491 9.04318835,16.2094912 9.28776377,16.5086545 C9.37660381,16.6042413 9.46570916,16.6988165 9.55572413,16.7942535 C9.68602791,16.9286221 9.8164454,17.0632531 9.9474693,17.1979215 C9.9945803,17.2465206 10.0426767,17.2956817 10.090811,17.3442807 C10.206864,17.4862558 10.3522524,17.6106949 10.4828215,17.7396303 C10.6369651,17.8909731 10.7827704,18.062962 10.9529081,18.1981925 C11.089693,18.3291888 11.2264779,18.460335 11.3633006,18.5909192 C11.4657471,18.6848948 11.5681936,18.7778213 11.6706402,18.8707852 C11.9402303,19.0844786 12.1852605,19.3236144 12.4624308,19.5303008 C12.7112891,19.7163411 12.9581007,19.9085265 13.2701778,20.0301552 C13.4787852,20.1110912 13.7340487,20.119597 13.9833617,20.1613015 C14.0635982,20.1674466 14.1438347,20.173292 14.2236543,20.1800366 C14.3404653,20.1831092 14.4565183,20.1869312 14.5749591,20.1910155 L15.07404,20.1910155 C15.2055187,20.1842708 15.3360878,20.1784254 15.4682866,20.1721304 C15.5136163,20.1702194 15.560083,20.1684583 15.6055642,20.166997 C15.7575853,20.1544069 15.9103644,20.1414047 16.0618549,20.1293767 C16.120033,20.1241309 16.1776046,20.1182855 16.2352142,20.1137141 C16.4554951,20.347042 16.6762686,20.5794706 16.8971559,20.8133605 C14.9283484,22.6122369 12.9601852,24.4115631 10.9918325,26.2108517 C10.0499158,27.0772036 9.10834024,27.9429935 8.16585503,28.8093454 C7.90483056,29.0527528 7.64350287,29.2957105 7.38175828,29.538406 C7.34400884,29.5776374 7.30330312,29.6168689 7.26418925,29.6559504 C6.90014974,29.945896 6.68578145,30.3833998 6.55354471,30.903151 C6.36555555,31.6430405 6.53296445,32.4792288 6.83723401,32.9597485 C6.90860167,33.0749698 6.99403062,33.2024439 7.09928181,33.2855907 C7.16576024,33.3392857 7.22704623,33.3988635 7.2988687,33.4489239 C7.59260177,33.6530998 7.94599109,33.7965363 8.34436894,33.8969569 C8.45098457,33.9241978 8.55669057,33.9341274 8.67126542,33.955523 C8.87248205,33.9937053 9.23534663,34.0187355 9.46244967,33.9821644 C9.61052904,33.9585956 9.75368127,33.94979 9.88883639,33.9152424 C10.2813396,33.8170326 10.5796587,33.6579335 10.85031,33.4432284 C10.938392,33.3731214 11.0257539,33.2792956 11.0959088,33.1914651 C11.1971803,33.0875599 11.296519,32.9836171 11.396464,32.8791123 C11.6291764,32.6363045 11.8626847,32.3934591 12.0968753,32.1500518 C12.6794522,31.5423202 13.2632419,30.9348884 13.8463874,30.3259952 C15.2308366,28.8867591 16.6147932,27.4451999 17.9987876,26.004465 C18.6998053,25.276004 19.4002544,24.5453322 20.1006657,23.8152599 C22.1533861,26.0786938 24.2067129,28.342877 26.2598882,30.6064608 C26.8023279,31.2084594 27.3459804,31.8106079 27.8888749,32.4121943 C28.0781148,32.6232648 28.2671652,32.8337357 28.4563672,33.0452558 C28.5229973,33.121508 28.5898926,33.195999 28.6565226,33.2724011 C28.6988581,33.3266956 28.7458175,33.3873226 28.8001297,33.429889 C29.079233,33.6525378 29.3544324,33.7892296 29.7642564,33.8886384 C29.8998663,33.9224367 30.0379777,33.9209753 30.1915148,33.9449564 C30.3785186,33.9748202 30.6525431,33.9549235 30.8201415,33.9235983 C30.9347543,33.9020903 31.0388305,33.8933222 31.1439301,33.8650696 C31.4894739,33.7709441 31.7846851,33.6405098 32.0408204,33.4613641 C32.1628238,33.376756 32.2969556,33.2838295 32.389472,33.1704068 C32.4578834,33.0875599 32.5326622,33.0108581 32.5951231,32.9220159 C32.7091294,32.7615678 32.7924738,32.5805111 32.8708153,32.38293 C32.9266056,32.2383319 32.9479439,32.0768722 32.9790227,31.9092673 C33.0312883,31.6241554 32.9932356,31.2289557 32.932973,30.9849487 C32.7951648,30.4334602 32.5911435,30.0031132 32.2088736,29.6981046 C32.1146895,29.6083631 32.0217182,29.5179097 31.9272688,29.4281682 C31.7445858,29.250184 31.5602731,29.0724997 31.3763772,28.8941033 C28.5429711,26.1751425 25.7089965,23.4560692 22.8748324,20.7377078 C23.1798221,20.3871353 23.4859867,20.0363004 23.7896499,19.684866 C23.8204634,19.6640699 23.9329537,19.7584952 23.9741142,19.7867479 C24.1550538,19.9111494 24.3406931,20.028544 24.5308047,20.1387443 C24.9043195,20.3581707 25.3153184,20.5174197 25.7818423,20.6463551 C25.9777149,20.7007995 26.2551505,20.7502979 26.4948367,20.6975771 C26.6392018,20.6652402 26.7737505,20.6327534 26.8996198,20.5825431 C27.6004859,20.3058995 28.1368615,19.8467379 28.6847968,19.4181895 C28.820293,19.3021064 28.9554482,19.1862106 29.0906033,19.0708394 C29.2539189,18.9215575 29.416628,18.7721258 29.5796404,18.6222444 C29.656769,18.5490648 29.7338977,18.4764473 29.8122012,18.4034176 C29.9969688,18.2566087 30.1718442,18.0555054 30.3416409,17.8879005 C30.4735744,17.7573538 30.6219191,17.6314534 30.7381237,17.4867055 C30.7872813,17.4372446 30.8358325,17.3865847 30.8843838,17.3378358 C30.9753084,17.243448 31.0660435,17.1490227 31.1571197,17.0550846 C31.3642489,16.8377191 31.57062,16.6199039 31.776688,16.403138 L32.1792729,15.9650721 C32.2923696,15.8402209 32.4063759,15.7137585 32.5189041,15.5878581 C32.8221124,15.2134544 33.1709157,14.8766709 33.4735176,14.5013679 C33.5420806,14.4233547 33.6113637,14.3444796 33.68095,14.2666162 C33.9335226,13.968577 34.1857919,13.6704255 34.4379096,13.372124 C34.5732543,13.2013342 34.7849695,13.0148443 34.8748329,12.8112679 C35.0250726,12.4754961 34.9557895,12.1010924 34.7922086,11.830444 Z" id="Fill-1" fill="#8CDFFF" mask="url(#mask-2)"></path>
        </g>
    </g>
</svg>