<?xml version="1.0" encoding="UTF-8"?>
<svg width="40px" height="40px" viewBox="0 0 40 40" version="1.1" xmlns="http://www.w3.org/2000/svg" xmlns:xlink="http://www.w3.org/1999/xlink">
    <!-- Generator: Sketch 50.2 (55047) - http://www.bohemiancoding.com/sketch -->
    <title>ic_agriculture</title>
    <desc>Created with Sketch.</desc>
    <defs>
        <rect id="path-1" x="0" y="0" width="40" height="40"></rect>
    </defs>
    <g id="ic_agriculture" stroke="none" stroke-width="1" fill="none" fill-rule="evenodd">
        <g>
            <mask id="mask-2" fill="white">
                <use xlink:href="#path-1"></use>
            </mask>
            <use id="Mask" fill="#D8D8D8" opacity="0" xlink:href="#path-1"></use>
            <path d="M19.6761841,14.5407163 C22.6982684,14.5407163 25.1866172,16.796821 25.5501008,19.7064973 C24.0214362,21.5374967 22.7896408,23.6232051 21.9368769,25.8938841 C21.4323223,26.0997852 20.8921124,26.2388082 20.3289682,26.3017818 C18.6449613,24.7015188 16.5760867,23.5103794 14.2760453,22.8572165 C13.9426089,22.1172889 13.7531159,21.3014481 13.7531159,20.4409311 C13.7531159,17.1823806 16.4047406,14.5407163 19.6761841,14.5407163 Z M26.8273088,14.2718417 L30.0413938,15.6504033 C28.9941215,16.3587759 28.0141931,17.1536861 27.10977,18.0299579 C26.0893988,14.9104758 23.1499783,12.6545527 19.6761841,12.6545527 C15.3580154,12.6545527 11.8573657,16.1411609 11.8573657,20.4409311 C11.8573657,21.1203823 11.94696,21.7774499 12.1109653,22.405823 C11.5175459,22.3324069 10.9162387,22.2852335 10.3016176,22.2852335 C9.75625548,22.2852335 9.22138016,22.3270947 8.69261458,22.3902499 L8.30450967,22.0701156 L10.3115574,19.1003261 L9.22603085,15.6871341 L12.5259713,14.2718417 L13.4651377,10.8180596 L17.010653,11.4004852 L19.6761841,9 L22.3424447,11.4004852 L25.8886895,10.8180596 L26.8273088,14.2718417 Z M13.7812481,32 L8,32 C6.8954305,32 6,31.1045695 6,30 L6,24.6752761 C7.21200713,24.267333 8.50220973,24.0271982 9.85186826,24.0271982 C13.4975558,24.0271982 16.7596979,25.635452 18.9833676,28.1709194 C16.9942843,29.089234 15.2317628,30.4009629 13.7812481,32 Z M34,30 C34,31.1045695 33.1045695,32 32,32 L15.9838984,32 C17.8360142,30.2238017 20.1795076,28.9527082 22.8128031,28.4635397 C24.5153216,23.0983955 28.6886804,18.8328589 34,16.9779323 L34,30 Z" id="Combined-Shape" fill="#8CDFFF" mask="url(#mask-2)"></path>
        </g>
    </g>
</svg>