<?xml version="1.0" encoding="UTF-8"?>
<svg width="40px" height="40px" viewBox="0 0 40 40" version="1.1" xmlns="http://www.w3.org/2000/svg" xmlns:xlink="http://www.w3.org/1999/xlink">
    <!-- Generator: Sketch 50.2 (55047) - http://www.bohemiancoding.com/sketch -->
    <title>ic_estate</title>
    <desc>Created with Sketch.</desc>
    <defs>
        <rect id="path-1" x="0" y="0" width="40" height="40"></rect>
    </defs>
    <g id="ic_estate" stroke="none" stroke-width="1" fill="none" fill-rule="evenodd">
        <g>
            <mask id="mask-2" fill="white">
                <use xlink:href="#path-1"></use>
            </mask>
            <use id="Mask" fill="#D8D8D8" opacity="0" xlink:href="#path-1"></use>
            <path d="M31.70338,30.4 L31.70338,20.2533341 C31.70338,19.5499003 31.305947,18.9068402 30.6767767,18.592255 L21.30338,13.9055567 L21.30338,8.50280955 C21.30338,7.98997371 20.8876444,7.57423813 20.3748086,7.57423813 C20.2305872,7.57423813 20.0883482,7.6078318 19.9593661,7.6723564 L9.32963787,12.9899842 C8.70065741,13.304638 8.30338,13.9475958 8.30338,14.6508905 L8.30338,30.4 L7.92857143,30.4 C7.41573559,30.4 7,30.8157356 7,31.3285714 L7,32.0714286 C7,32.5842644 7.41573559,33 7.92857143,33 L32.0714286,33 C32.5842644,33 33,32.5842644 33,32.0714286 L33,31.3285714 C33,30.8157356 32.5842644,30.4 32.0714286,30.4 L31.70338,30.4 Z M13.50338,29.10338 L16.10338,29.10338 L16.10338,26.50338 L13.50338,26.50338 L13.50338,29.10338 Z M13.50338,23.90338 L16.10338,23.90338 L16.10338,21.30338 L13.50338,21.30338 L13.50338,23.90338 Z M13.50338,18.70338 L16.10338,18.70338 L16.10338,16.10338 L13.50338,16.10338 L13.50338,18.70338 Z M23.90338,29.10338 L26.50338,29.10338 L26.50338,26.50338 L23.90338,26.50338 L23.90338,29.10338 Z M23.90338,23.90338 L26.50338,23.90338 L26.50338,21.30338 L23.90338,21.30338 L23.90338,23.90338 Z" id="Fill-1" fill="#8CDFFF" mask="url(#mask-2)"></path>
        </g>
    </g>
</svg>