<?xml version="1.0" encoding="UTF-8"?>
<svg width="40px" height="40px" viewBox="0 0 40 40" version="1.1" xmlns="http://www.w3.org/2000/svg" xmlns:xlink="http://www.w3.org/1999/xlink">
    <!-- Generator: Sketch 50.2 (55047) - http://www.bohemiancoding.com/sketch -->
    <title>ic_finance</title>
    <desc>Created with Sketch.</desc>
    <defs>
        <rect id="path-1" x="0" y="0" width="40" height="40"></rect>
    </defs>
    <g id="ic_finance" stroke="none" stroke-width="1" fill="none" fill-rule="evenodd">
        <g id="ic_estate">
            <g>
                <g>
                    <mask id="mask-2" fill="white">
                        <use xlink:href="#path-1"></use>
                    </mask>
                    <use id="Mask" fill="#D8D8D8" opacity="0" xlink:href="#path-1"></use>
                    <path d="M31.1298013,17.0273871 C32.154983,17.0273871 32.9859294,16.1973897 32.9859294,15.1736821 L32.9859294,13.6156508 C32.9859294,12.873938 32.5432837,12.2035725 31.8606562,11.9116325 L20.7243294,7.14986488 C20.2576889,6.95004504 19.729566,6.95004504 19.2630275,7.14986488 L8.12568108,11.9120059 C7.44274774,12.203844 6.99986408,12.8742095 7.00000003,13.6160581 L7.00000003,15.1736821 C7.00000003,15.6653401 7.19556082,16.1368022 7.54365493,16.4844419 C7.89174905,16.8321155 8.36386147,17.0273871 8.85612814,17.0273871 C9.29370984,17.0273871 9.64873729,17.381951 9.64873729,17.8189615 L9.64873729,27.524938 C9.64873729,27.9619484 9.29370984,28.3164785 8.85612814,28.3164785 C7.83108238,28.3164785 7.00000003,29.1464758 7.00000003,30.1702174 L7.00000003,31.0971208 C7.00000003,32.1208283 7.83108238,32.9508257 8.85612814,32.9508257 L31.1298013,32.9508257 C32.154983,32.9508257 32.9859294,32.1208283 32.9859294,31.0971208 L32.9859294,30.1702174 C32.9859294,29.1464758 32.154983,28.3164785 31.1298013,28.3164785 C30.6920837,28.3164785 30.3371922,27.9620842 30.3371922,27.524938 L30.3371922,17.8189615 C30.3371922,17.381951 30.6922196,17.0273871 31.1298013,17.0273871 Z M26.7599321,28.3170215 L13.2259974,28.3170215 C12.7882798,28.3170215 12.4333883,27.9625933 12.4333883,27.5254811 L12.4333883,17.8189615 C12.4333883,17.381951 12.7883817,17.0273871 13.2259974,17.0273871 L26.7604758,17.0273871 C27.1980575,17.0273871 27.553051,17.381951 27.553051,17.8189615 L27.553051,27.524938 C27.553051,27.9624915 27.1980575,28.3170215 26.7599321,28.3170215 Z M22.4149733,21.3432612 C22.8637453,21.2240482 23.1058119,20.839246 22.9553266,20.4833235 C22.7178744,19.9208771 22.0327803,19.2884701 20.8571024,19.0731778 L20.8571024,18.6791967 C20.8571024,18.3042076 20.473073,18 20.0000049,18 C19.5267486,18 19.1427192,18.3042076 19.1427192,18.6791967 L19.1427192,19.0938862 C18.1270378,19.3400357 17.3676428,20.012255 17.258169,20.8487233 C17.1379126,21.7697413 17.8844533,22.8433296 19.8241406,23.1652979 C20.6350942,23.2993984 21.0884805,23.6164042 21.0365923,24.0119524 C20.9950629,24.3295551 20.6257242,24.6512249 20.0003816,24.6512249 C19.2464485,24.6512249 18.7892012,24.3673152 18.6704045,24.0857189 C18.5204843,23.7297964 18.0343735,23.5378244 17.5857428,23.6570746 C17.1365942,23.7755413 16.8943864,24.1607914 17.0444479,24.5167139 C17.2819001,25.0791602 17.9672296,25.711418 19.1432842,25.9268595 L19.1432842,26.3208033 C19.1432842,26.6956805 19.5271252,27 20.0003816,27 C20.4734497,27 20.8574791,26.6956805 20.8574791,26.3208033 L20.8574791,25.9064496 C21.8733017,25.6601135 22.6327438,24.9880435 22.7419822,24.1516125 C22.862474,23.2304452 22.1153683,22.1569689 20.1760106,21.835038 C19.3652453,21.7007881 18.9117177,21.3839316 18.9635588,20.9883461 C19.0047587,20.6707434 19.3740973,20.3490736 20.0000049,20.3490736 C20.8055908,20.3490736 21.2201787,20.6536916 21.3301704,20.9146169 C21.4806086,21.2705394 21.967096,21.4624741 22.4149733,21.3432612 Z" id="Fill-1" fill="#8CDFFF" mask="url(#mask-2)"></path>
                </g>
            </g>
        </g>
    </g>
</svg>