<?xml version="1.0" encoding="UTF-8"?>
<svg width="40px" height="40px" viewBox="0 0 40 40" version="1.1" xmlns="http://www.w3.org/2000/svg" xmlns:xlink="http://www.w3.org/1999/xlink">
    <!-- Generator: Sketch 50.2 (55047) - http://www.bohemiancoding.com/sketch -->
    <title>ic_industrial</title>
    <desc>Created with Sketch.</desc>
    <defs>
        <rect id="path-1" x="0" y="0" width="40" height="40"></rect>
    </defs>
    <g id="ic_industrial" stroke="none" stroke-width="1" fill="none" fill-rule="evenodd">
        <g>
            <mask id="mask-2" fill="white">
                <use xlink:href="#path-1"></use>
            </mask>
            <use id="Mask" fill="#D8D8D8" opacity="0" xlink:href="#path-1"></use>
            <path d="M31.5536327,15.8569433 L27.5733079,18.3719534 C26.931625,18.7356258 26.1269406,18.2848439 26.1269406,17.5613402 L26.1269406,17.5560017 C26.1269406,16.8328561 25.3218553,16.3818464 24.6805733,16.7453886 L20.0160028,19.6484851 C19.3741863,20.0120273 18.5696355,19.5613756 18.5696355,18.8377418 L18.5696355,18.4449352 C18.5696355,17.7218222 17.7644165,17.2706497 17.1231346,17.6341919 L12.0960118,20.7426598 C11.4537943,21.1071135 10.6491433,20.6564618 10.6491433,19.9329256 L10.6491433,13.222239 C10.6461365,12.303032 9.8820438,11.5585323 8.93861261,11.5556026 L8.7104973,11.5556026 C7.76709952,11.5585323 7.00300679,12.303032 7,13.222239 L7,30.222198 C7,31.2000314 7.82098792,32 8.82455496,32 L31.175445,32 C32.1790121,32 33,31.2000314 33,30.222198 L33,16.6675564 C33,15.9444109 32.1949481,15.4934011 31.5536327,15.8569433 Z M16.2021541,23.7848842 C16.2021541,24.0302947 15.9979261,24.2293184 15.7460571,24.2293184 L13.9215022,24.2293184 C13.8005289,24.2293184 13.6845001,24.1825085 13.5989068,24.0992401 C13.5134136,24.015809 13.4653718,23.902788 13.4653718,23.7848842 L13.4653718,22.2005395 C13.4653718,22.042206 13.5515331,21.8959818 13.6920839,21.816522 L15.5166389,20.7822107 C15.6577242,20.7022301 15.8319177,20.7017418 15.973404,20.7810714 C16.1148569,20.8603032 16.2021541,21.0071459 16.2021541,21.1662282 L16.2021541,23.7848842 Z M23.6715272,23.7848842 C23.6715272,23.902788 23.6234854,24.015809 23.537892,24.0992401 C23.4523989,24.1825085 23.3363701,24.2293184 23.2153968,24.2293184 L21.3908419,24.2293184 C21.2698686,24.2293184 21.1538398,24.1825085 21.0682465,24.0992401 C20.9827533,24.015809 20.9346113,23.902788 20.9346113,23.7848842 L20.9346113,21.348455 C20.9346113,21.1902516 21.0208728,21.0440275 21.1614236,20.9644375 L22.9859786,19.9302564 C23.127064,19.8502758 23.3011572,19.8497875 23.4427437,19.9289868 C23.5841966,20.0083489 23.6715272,20.1552241 23.6715272,20.3142738 L23.6715272,23.7848842 Z M31.1408669,23.7848842 C31.1408669,23.902788 31.0928251,24.015809 31.0072317,24.0992401 C30.9217386,24.1825085 30.8057432,24.2293184 30.68477,24.2293184 L28.8601816,24.2293184 C28.608179,24.2293184 28.403951,24.0302947 28.403951,23.7848842 L28.403951,20.1240392 C28.403951,19.9657382 28.4902125,19.819514 28.6306297,19.7400543 L30.4551847,18.7057429 C30.59627,18.6257623 30.7704969,18.6253717 30.9119498,18.7046036 C31.0535697,18.7838355 31.1407333,18.9308083 31.1408669,19.0897604 L31.1408669,23.7848842 Z M19.667549,14.3333409 C17.6326188,14.3333409 16.2218653,13.5613671 15.0887055,12.9404678 C14.1668564,12.4355192 13.4385111,12.0368858 12.5212056,12.0368858 C12.1136182,12.037016 11.7371344,11.8251668 11.5334075,11.4813512 C11.329714,11.1376332 11.329714,10.7139347 11.5334075,10.3701191 C11.7371344,10.0264012 12.1136182,9.81455193 12.5212056,9.81468214 C14.0350253,9.81468214 15.1389524,10.4186869 16.2058291,11.0036161 C17.2463128,11.5728878 18.2298012,12.1111372 19.667549,12.1111372 C20.3768179,12.1111372 20.9793791,11.6790728 21.9030656,10.9742215 C23.0562039,10.0946956 24.4915797,9 26.7089888,9 C29.3641868,9 31.246706,10.4333028 32.1324402,11.2875358 C32.567523,11.7212929 32.5651844,12.4147835 32.1273287,12.8457411 C31.6895063,13.2767964 30.9777317,13.2860738 30.5282831,12.8667047 C29.7504928,12.1164758 28.4564028,11.2222037 26.7093563,11.2222037 C25.2785241,11.2222037 24.3219298,11.9519573 23.3093758,12.7240287 C22.3200075,13.4781964 21.1992758,14.3333409 19.667549,14.3333409 Z" id="Combined-Shape" fill="#8CDFFF" mask="url(#mask-2)"></path>
        </g>
    </g>
</svg>