<?xml version="1.0" encoding="UTF-8"?>
<svg width="40px" height="40px" viewBox="0 0 40 40" version="1.1" xmlns="http://www.w3.org/2000/svg" xmlns:xlink="http://www.w3.org/1999/xlink">
    <!-- Generator: Sketch 50.2 (55047) - http://www.bohemiancoding.com/sketch -->
    <title>ic_media</title>
    <desc>Created with Sketch.</desc>
    <defs>
        <rect id="path-1" x="0" y="0" width="40" height="40"></rect>
    </defs>
    <g id="ic_media" stroke="none" stroke-width="1" fill="none" fill-rule="evenodd">
        <g id="ic_estate">
            <g>
                <mask id="mask-2" fill="white">
                    <use xlink:href="#path-1"></use>
                </mask>
                <use id="Mask" fill="#D8D8D8" opacity="0" xlink:href="#path-1"></use>
                <path d="M24.1568418,19.9586929 L24.0589852,19.9586929 C26.0028321,18.9672032 27.322463,17.0460038 27.322463,14.8379832 C27.322463,11.6136646 24.5114036,9 21.0444513,9 C17.7797924,9 15.0956513,11.3203003 14.7960918,14.2836498 C14.0032418,13.1594878 12.6386895,12.4143551 11.0857632,12.4143551 C8.630109,12.4143551 6.64391378,14.2630966 6.64391378,16.5456224 C6.64391378,17.9644334 7.41449291,19.2156076 8.58514555,19.9586929 L8.4785577,19.9586929 C7.10919696,19.9586929 6,20.9904861 6,22.2636185 L6,29.6957168 C6,30.9682068 7.10919696,32 8.4785577,32 L24.1568418,32 C25.5248528,32 26.6352308,30.9682068 26.6352308,29.6957168 L26.6352308,22.2636185 C26.6352308,20.9904861 25.5248528,19.9586929 24.1568418,19.9586929 Z M13.5562646,19.9586929 C14.4873371,19.3734896 15.1744006,18.4789049 15.4211934,17.4234274 C15.9969028,18.5039942 16.9286502,19.3850909 18.065517,19.9586929 L13.5562646,19.9586929 Z M16.6630452,14.8379832 C16.6630452,12.5882542 18.6245654,10.7658063 21.0431437,10.7658063 C23.462186,10.7658063 25.4222299,12.5882542 25.4256886,14.8379832 C25.4222299,17.0878728 23.462186,18.9113645 21.0431437,18.9113645 C18.6245654,18.9113645 16.6630452,17.0878728 16.6630452,14.8379832 Z M21.0431437,11.6367468 C22.9430395,11.6392357 24.4830589,13.0701297 24.4843664,14.8379832 C24.4830589,16.6064389 22.9430395,18.0356068 21.0431437,18.0387379 C19.1402532,18.0356068 17.6043252,16.6064389 17.5990528,14.8379832 C17.6043252,13.0701297 19.1402532,11.6392357 21.0431437,11.6367468 Z M27.7518092,24.6455381 L34,21.330617 L34,30.8474569 L27.7518092,27.8045843 L27.7518092,24.6455381 Z" id="Combined-Shape" fill="#8CDFFF" mask="url(#mask-2)"></path>
            </g>
        </g>
    </g>
</svg>