<?xml version="1.0" encoding="UTF-8"?>
<svg width="40px" height="40px" viewBox="0 0 40 40" version="1.1" xmlns="http://www.w3.org/2000/svg" xmlns:xlink="http://www.w3.org/1999/xlink">
    <!-- Generator: Sketch 50.2 (55047) - http://www.bohemiancoding.com/sketch -->
    <title>ic_pharmacy</title>
    <desc>Created with Sketch.</desc>
    <defs>
        <rect id="path-1" x="0" y="0" width="40" height="40"></rect>
    </defs>
    <g id="ic_pharmacy" stroke="none" stroke-width="1" fill="none" fill-rule="evenodd">
        <g>
            <mask id="mask-2" fill="white">
                <use xlink:href="#path-1"></use>
            </mask>
            <use id="Mask" fill="#D8D8D8" opacity="0" xlink:href="#path-1"></use>
            <path d="M12.7721047,11.3470016 C12.446155,11.3470016 12.2016822,11.2876589 12.0386434,11.1691473 C11.8757326,11.0505922 11.7593372,10.9083349 11.6893721,10.7423318 C11.5962984,10.5527132 11.549655,10.3393922 11.549655,10.1023256 L11.549655,7.75510078 C11.549655,7.30471318 11.6369302,6.96693333 11.8116085,6.74154419 C11.9863295,6.51637209 12.1783605,6.34459535 12.3878721,6.22604031 C12.6440271,6.10752868 12.9234612,6.04818605 13.2262597,6.04818605 L26.7429147,6.04818605 C27.0457132,6.04818605 27.3251899,6.10752868 27.5811318,6.22604031 C27.790814,6.34459535 27.982845,6.51637209 28.1575659,6.74154419 C28.3321163,6.96693333 28.419562,7.30471318 28.419562,7.75510078 L28.419562,10.1023256 C28.419562,10.3393922 28.3729186,10.5527132 28.2798023,10.7423318 C28.2098798,10.9083349 28.0992829,11.0505922 27.9478837,11.1691473 C27.796655,11.2876589 27.5580233,11.3470016 27.2319031,11.3470016 L12.7721047,11.3470016 Z M30.9691744,31.1907101 C30.9691744,31.7121178 30.8761008,32.1864248 30.6897403,32.6130667 C30.5266589,32.9686884 30.2765155,33.2888434 29.9387558,33.5733581 C29.6011667,33.8577426 29.1180194,34 28.489314,34 L11.5146512,34 C10.8627946,34 10.3738488,33.8577426 10.0477287,33.5733581 C9.72182171,33.2888434 9.4773062,32.9686884 9.31426744,32.6130667 C9.12807752,32.1864248 9.02332171,31.7121178 9,31.1907101 L9,17.8903628 C9,17.1079256 9.13971705,16.5508775 9.4191938,16.219045 C9.6985,15.8869953 9.95465504,15.6024806 10.1874884,15.365414 L12.6673488,13.0183194 L27.790814,13.0183194 L29.7817287,15.365414 C30.014562,15.6024806 30.2707171,15.8869953 30.5499806,16.219045 C30.8294574,16.5508775 30.9691744,17.1079256 30.9691744,17.8903628 L30.9691744,31.1907101 Z M25.5204651,22.0155659 L21.8531589,22.0155659 L21.8531589,18.2459411 L18.1160155,18.2459411 L18.1160155,22.0155659 L14.4487093,22.0155659 L14.4487093,25.8207876 L18.1160155,25.8207876 L18.1160155,29.5548155 L21.8531589,29.5548155 L21.8531589,25.8207876 L25.5204651,25.8207876 L25.5204651,22.0155659 Z" id="药品" fill="#8CDFFF" mask="url(#mask-2)"></path>
        </g>
    </g>
</svg>