<?xml version="1.0" encoding="UTF-8"?>
<svg width="40px" height="40px" viewBox="0 0 40 40" version="1.1" xmlns="http://www.w3.org/2000/svg" xmlns:xlink="http://www.w3.org/1999/xlink">
    <!-- Generator: Sketch 50.2 (55047) - http://www.bohemiancoding.com/sketch -->
    <title>ic_retail</title>
    <desc>Created with Sketch.</desc>
    <defs>
        <rect id="path-1" x="0" y="0" width="40" height="40"></rect>
    </defs>
    <g id="ic_retail" stroke="none" stroke-width="1" fill="none" fill-rule="evenodd">
        <g>
            <mask id="mask-2" fill="white">
                <use xlink:href="#path-1"></use>
            </mask>
            <use id="Mask" fill="#D8D8D8" opacity="0" xlink:href="#path-1"></use>
            <path d="M33.5961046,13.0615887 L31.3768575,8.70984789 C30.8527268,7.68149296 29.7964131,7.0343493 28.6427765,7.0343493 L11.3420706,7.0343493 C10.188434,7.0343493 9.13226667,7.68149296 8.60813595,8.70984789 L6.38874248,13.0615887 C5.15703529,15.8870197 6.98051242,19.2258592 10.0513255,19.4753127 C11.7665725,19.6178 13.4256366,18.8246169 14.3924235,17.4000366 C14.5775895,17.1255352 14.886834,16.9608563 15.2178196,16.9608563 C15.5488052,16.9608563 15.8580497,17.1255352 16.0430693,17.4000366 C16.9021752,18.6623915 18.3503791,19.4913521 19.9924235,19.4913521 C21.6346144,19.4913521 23.0822327,18.6623915 23.9417778,17.4000366 C24.1267974,17.1255352 24.4361882,16.9608563 24.7671739,16.9608563 C25.0980131,16.9608563 25.4074039,17.1255352 25.5924235,17.4000366 C26.5592105,18.8246169 28.2182745,19.6178 29.9335216,19.4753127 C33.004481,19.2258592 34.8279582,15.8870197 33.5961046,13.0615887 Z M30.3769098,21.4387887 C30.0998013,21.4729549 29.8208627,21.4904225 29.5417778,21.490862 C28.0420026,21.4912648 26.5843922,20.993493 25.3979608,20.0754 C25.0273725,19.7848958 24.5063895,19.7848958 24.1356549,20.0754 C22.9494065,20.9932 21.4920889,21.4909718 19.9924235,21.490862 C18.4926118,21.4912648 17.0350013,20.993493 15.8487529,20.0754 C15.4780183,19.7848958 14.9570353,19.7848958 14.5864471,20.0754 C13.1744418,21.167693 11.3885542,21.6580676 9.61708758,21.4397775 C9.33372026,21.404 9.04863268,21.4919972 8.83458824,21.6811014 C8.62058039,21.8703521 8.49818562,22.1425465 8.49862484,22.4282169 L8.49862484,30.9364423 C8.49862484,32.055907 9.38163137,32.9634169 10.4710693,32.9634169 L29.5143268,32.9634169 C30.6036549,32.9634169 31.4868078,32.055907 31.4868078,30.9364423 L31.4868078,22.4312197 C31.4862222,21.8347211 30.9675085,21.3628028 30.3769098,21.4387887 Z M26.2295059,28.9886028 L13.7547556,28.9886028 C13.2051503,28.9886028 12.7553569,28.5385831 12.7553569,27.9885549 C12.7553569,27.4385634 13.2051503,26.9886535 13.7547556,26.9886535 L26.2295059,26.9886535 C26.7792575,26.9886535 27.229051,27.4385634 27.229051,27.9885549 C27.229051,28.5385831 26.7792575,28.9886028 26.2295059,28.9886028 Z" id="Fill-1" fill="#8CDFFF" mask="url(#mask-2)"></path>
        </g>
    </g>
</svg>