<?xml version="1.0" encoding="UTF-8"?>
<svg width="40px" height="40px" viewBox="0 0 40 40" version="1.1" xmlns="http://www.w3.org/2000/svg" xmlns:xlink="http://www.w3.org/1999/xlink">
    <!-- Generator: Sketch 50.2 (55047) - http://www.bohemiancoding.com/sketch -->
    <title>ic_telegraphy</title>
    <desc>Created with Sketch.</desc>
    <defs>
        <rect id="path-1" x="0" y="0" width="40" height="40"></rect>
    </defs>
    <g id="ic_telegraphy" stroke="none" stroke-width="1" fill="none" fill-rule="evenodd">
        <g id="ic_estate">
            <g>
                <mask id="mask-2" fill="white">
                    <use xlink:href="#path-1"></use>
                </mask>
                <use id="Mask" fill="#D8D8D8" opacity="0" xlink:href="#path-1"></use>
                <path d="M7,30.8367268 C7,32.032031 7.96937094,33 9.1663244,33 L30.8300818,33 C32.0269252,33 32.9964062,32.032031 32.9964062,30.8367268 L32.9964062,24.8875972 C32.9964062,23.6924394 32.0269252,22.7243239 30.8299351,22.7243239 L24.3309619,22.7243239 L24.3309619,17.0457042 C24.3309619,16.2992845 23.7243075,15.6934845 22.9769817,15.6934845 C22.2295092,15.6934845 21.6230014,16.2992845 21.6230014,17.0457042 L21.6230014,22.7243239 L9.16647109,22.7243239 C7.96951763,22.7243239 7,23.6924394 7,24.8875972 L7,30.8367268 Z M9.70796051,27.8622535 C9.70796051,27.1158338 10.314615,26.5101803 11.0619408,26.5101803 C11.8093766,26.5101803 12.416031,27.1158338 12.416031,27.8622535 C12.416031,28.6085268 11.8093766,29.2141803 11.0619408,29.2141803 C10.314615,29.2141803 9.70796051,28.6085268 9.70796051,27.8622535 Z M14.5822454,27.8622535 C14.5822454,27.1158338 15.1888999,26.5101803 15.9363724,26.5101803 C16.6836615,26.5101803 17.2903159,27.1158338 17.2903159,27.8622535 C17.2903159,28.6085268 16.6836615,29.2141803 15.9363724,29.2141803 C15.1888999,29.2141803 14.5823921,28.6085268 14.5822454,27.8622535 Z M22.9769817,11.3669014 C19.8357123,11.3669014 17.2901693,13.9088225 17.2901693,17.0457042 C17.2901693,17.7919775 17.8968237,18.3977775 18.6441495,18.3977775 C19.391622,18.3977775 19.9982764,17.7919775 19.9982764,17.0457042 C19.9982764,15.4015155 21.3304739,14.0710479 22.9769817,14.0710479 C24.6234528,14.0710479 25.9556502,15.4015155 25.9556502,17.0457042 C25.9556502,17.7919775 26.5623047,18.3977775 27.3096305,18.3977775 C28.057103,18.3977775 28.6636107,17.7919775 28.6636107,17.0457042 C28.6636107,13.9088225 26.1181044,11.3669014 22.976835,11.3669014 L22.9769817,11.3669014 Z M22.9769817,7.04035493 C17.4418787,7.04035493 12.9575205,11.5185437 12.9575205,17.0457042 C12.9575205,17.7919775 13.5640282,18.3977775 14.3115007,18.3977775 C15.0588265,18.3977775 15.665481,17.7919775 15.665481,17.0457042 C15.665481,13.0110901 18.936677,9.74450141 22.9769817,9.74450141 C27.0172496,9.74450141 30.2883357,13.0110901 30.2883357,17.0457042 C30.2883357,17.7919775 30.8949901,18.3977775 31.6423159,18.3977775 C32.3897518,18.3977775 32.9964062,17.7919775 32.9964062,17.0457042 C32.9962595,11.5183972 28.512488,7.04035493 22.976835,7.04035493 L22.9769817,7.04035493 Z" id="网络设备" fill="#8CDFFF" mask="url(#mask-2)"></path>
            </g>
        </g>
    </g>
</svg>