<?xml version="1.0" encoding="UTF-8"?>
<svg width="40px" height="40px" viewBox="0 0 40 40" version="1.1" xmlns="http://www.w3.org/2000/svg" xmlns:xlink="http://www.w3.org/1999/xlink">
    <!-- Generator: Sketch 50.2 (55047) - http://www.bohemiancoding.com/sketch -->
    <title>shopping</title>
    <desc>Created with Sketch.</desc>
    <defs>
        <rect id="path-1" x="0" y="0" width="40" height="40"></rect>
    </defs>
    <g id="shopping" stroke="none" stroke-width="1" fill="none" fill-rule="evenodd">
        <g id="ic_emotional_radar">
            <mask id="mask-2" fill="white">
                <use xlink:href="#path-1"></use>
            </mask>
            <use id="Mask" fill="#D8D8D8" opacity="0" xlink:href="#path-1"></use>
            <path d="M25.2884364,8.01911807 L6.86891636,8.01911807 C6.34747152,8.01911807 6,8.36863727 6,8.89315505 L6,31.2667198 C6,31.616239 6.34747152,31.9658947 6.86891636,31.9658947 L25.2884364,31.9658947 C25.8097455,31.9658947 26.1573527,31.616239 26.1573527,31.0918919 L26.1573527,8.89315505 C26.1573527,8.36863727 25.8097455,8.01911807 25.2884364,8.01911807 Z M18.3376485,20.7791294 C17.6425358,21.1286486 16.947457,21.3034765 16.0786764,21.3034765 C15.7310691,21.3034765 15.3835636,21.3034765 15.0359564,21.1286486 C12.0819055,20.6043016 9.82296727,18.1571892 9.82296727,15.1857297 C9.99677091,14.4865206 10.5180461,13.962037 11.2131588,13.962037 C11.9081018,13.962037 12.4295127,14.4865206 12.4295127,15.1857297 C12.4295127,17.1083243 13.9934061,18.6815363 16.0786764,18.6815363 L16.2523442,18.6815363 C17.1212606,18.6815363 17.990143,18.3318805 18.5114521,17.8075334 C19.2065309,17.1083243 19.7278061,16.234458 19.7278061,15.1857297 C19.7278061,14.4865206 20.2491152,13.962037 20.9441939,13.962037 C21.6393067,13.962037 22.3343855,14.4865206 22.3343855,15.1857297 C22.3343855,17.8075334 20.5965867,19.9050925 18.3376485,20.7791294 Z" id="Fill-1" fill="#8CDFFF" mask="url(#mask-2)"></path>
            <path d="M28.9376,16.5839772 C28.9376,16.0596302 29.2850715,15.7100768 29.8064824,15.7100768 L33.1080388,15.7100768 C33.6293139,15.7100768 33.9769212,16.0596302 33.9769212,16.5839772 L33.9769212,31.0918919 C33.9769212,31.616239 33.6293139,31.9658947 33.1080388,31.9658947 L29.8064824,31.9658947 C29.2850715,31.9658947 28.9376,31.616239 28.9376,31.0918919 L28.9376,16.5839772 Z" id="Fill-4" fill="#8CDFFF" mask="url(#mask-2)"></path>
        </g>
    </g>
</svg>