<?xml version="1.0" encoding="UTF-8"?>
<!DOCTYPE svg PUBLIC "-//W3C//DTD SVG 1.1//EN" "http://www.w3.org/Graphics/SVG/1.1/DTD/svg11.dtd">
<!-- Creator: CorelDRAW -->
<svg xmlns="http://www.w3.org/2000/svg" xml:space="preserve" width="11.6781mm" height="7.281mm" style="shape-rendering:geometricPrecision; text-rendering:geometricPrecision; image-rendering:optimizeQuality; fill-rule:evenodd; clip-rule:evenodd"
viewBox="0 0 0.0928594 0.0578955"
 xmlns:xlink="http://www.w3.org/1999/xlink">
 <defs>
  <style type="text/css">
   <![CDATA[
    .fil1 {fill:white;fill-rule:nonzero}
    .fil0 {fill:#F8C300;fill-rule:nonzero}
   ]]>
  </style>
 </defs>
 <g id="图层_x0020_1">
  <metadata id="CorelCorpID_0Corel-Layer"/>
  <g id="_163561312">
   <path id="_163561408" class="fil0" d="M0.0519239 0.0383553l-0.0053371 -0.00370782c0.00227336,-0.00178116 0.00440041,-0.00615532 0.0053546,-0.00872448 0.000981226,-0.00263913 0.00148536,-0.00564801 0.00148536,-0.00972956l0 -0.0134549 0.0215997 0 0 0.00188055 -0.0163731 0 0 0.0111251c0,0.00915228 -0.00105756,0.015201 -0.00672943,0.0226111zm-0.0519239 -0.00102655l0.00733693 -0.000533551c-0.000292618,-0.000539118 -0.000767328,-0.00142731 -0.0014615,-0.00264072 -0.00112674,-0.00196961 -0.00248249,-0.00425012 -0.00290471,-0.00489579l0.00429227 -0.0020197c0.000294209,0.000516853 0.000816628,0.00126987 0.001479,0.00233061 0.00103768,0.00166268 0.00234254,0.00398215 0.00290471,0.00489659l-0.00405133 0.00231073 0.00484093 -0.00035146c0.0011172,-0.00296753 0.00187896,-0.00626903 0.0029723,-0.00913955l0.00560507 0.00143208c-0.000914432,0.00207218 -0.00199426,0.00490374 -0.00285462,0.0072916l0.00332615 -0.000240933 -0.000445289 -0.000808676 0.00247612 -0.0011657c0.00240456,-0.00159509 0.00491249,-0.00347007 0.00721209,-0.00560587 -0.00276477,-0.00362831 -0.00490454,-0.00773292 -0.00599947,-0.0121866l0.00243 -0.000907276c0.00149728,0.00370226 0.00368238,0.00708725 0.00644556,0.0101375 0.00267491,-0.0030709 0.00476857,-0.00657278 0.0056011,-0.0104714l-0.0147868 0 0 -0.00203402 0.0061267 0 0 -0.00414675 -0.00722561 0 0 -0.00191792 0.00722561 0 0 -0.00666184 0.00616089 0 0 0.00666184 0.00724787 0 0 0.00191792 -0.00724787 0 0 0.00414675 0.00614896 0 0 0.00203163 0 2.38548e-006 0 0c-0.000790388,0.0049769 -0.00305182,0.00956814 -0.00611,0.0135789 0.00283792,0.00252781 0.00611159,0.0047797 0.00974228,0.00674533l-0.00296038 0.00441552c-0.00342872,-0.00204912 -0.0067835,-0.00465804 -0.00972081,-0.00772179 -0.00305898,0.00321006 -0.00657994,0.00592552 -0.0101041,0.00801202l-0.000989972 -0.00179626 -0.0225197 0.00163485 -0.000192428 -0.00230039zm0.00139789 -0.0313563l0 -0.00185272 0.00819729 0 0 -0.00411972 0.00600742 0 0 0.00411972 0.0076208 0 0 0.00185272 -0.0076208 0 0 0.0054031 0.00630084 0 0 0.00207934 -0.019184 0 0 -0.00207934 0.00687574 0 0 -0.0054031 -0.00819729 0zm0.00658709 0.0115823l0 0.00697036 0.00865053 0 0 -0.00697036 -0.00865053 0zm-0.00526793 0.00903618l0 -0.0113413 0.0191864 0 0 0.0113413 -0.0191864 0zm0.0741462 0.0139662l-0.0046485 -0.00302399c0.00607978,-0.00818377 0.006339,-0.0149879 0.00641454,-0.0243032 5.56611e-006,-0.000695764 0,-0.00452843 0,-0.00476141l-0.00307647 0 0 -0.0019704 0.00307647 0 0 -0.00649804 0.00483377 0c0,0.00282122 0,0.00355595 0,0.00649804l0.00939559 0c0,0.00470177 -0.000267173,0.0141204 -0.00052719,0.0267006 -8.90578e-005,0.00434475 -0.00176764,0.00670398 -0.0052886,0.00670398 -0.0019553,0 -0.00390502,0 -0.0058476,0 -0.000232981,-0.00164757 -0.000526395,-0.00311464 -0.000880241,-0.00440915 0.00141459,0 0.00276079,0 0.00405531,0 0.00303273,0.000194019 0.00258904,-0.00198233 0.00266458,-0.00404259 0.000324425,-0.00869744 0.000690993,-0.0191005 0.000690993,-0.0229825l-0.00443539 0c0,0.000819809 1.27225e-005,0.00448231 0,0.00541662 -0.00012643,0.00919839 -0.000100985,0.0193852 -0.00642727,0.026672zm-0.0178847 -0.0299059l0 -0.00174617 0.0153402 0 0 0.00174617 -0.00846367 0 -0.000173345 0.00476539 0.00740372 0 0 0.0179555c0,0.00300808 -0.00146707,0.0060766 -0.0046978,0.00599629 -0.00141379,-3.4987e-005 -0.0029063,-6.5203e-005 -0.00373406,-6.5203e-005 0,-0.00127862 -0.000172549,-0.00427 -0.000706896,-0.00530609l0.00278862 0.000238548c0.00239502,0.000203561 0.00235208,-0.0017239 0.00235208,-0.00343349l0 -0.0136147 -0.00345417 0c-0.000557406,0.00867757 -0.00223917,0.0181622 -0.00564642,0.0225101l-0.00454751 -0.0024801c0.00163962,-0.00189566 0.00384141,-0.00532915 0.00456978,-0.00955224 0.000626585,-0.00363785 0.00144242,-0.00771542 0.00156487,-0.011467l0.000180501 -0.00554703 -0.0027759 0z"/>
   <path id="_163561336" class="fil1" d="M0.00343111 0.0494613l0.00233777 0c0.000181296,-0.000769714 0.000333967,-0.00161099 0.000458011,-0.00252065l0.000939877 0.000120864c-0.00012484,0.000838097 -0.00027751,0.00163803 -0.000458011,0.00239979l0.00610682 0 0 0.000819013 -0.00631674 0c-0.000133587,0.000485047 -0.000279101,0.0009526 -0.000437337,0.00140345l0.00548421 0 0 0.000762557c-0.000486637,0.00120546 -0.00124522,0.00224473 -0.00227336,0.00312179 0.0010353,0.000626585 0.00224314,0.0010679 0.00362036,0.00132076 -0.000330786,0.000369749 -0.000589213,0.000679065 -0.000773689,0.000930336 -0.00117922,-0.000391218 -0.0023656,-0.000962142 -0.00355754,-0.00171516 -0.000958961,0.000630561 -0.00233061,0.00122772 -0.00411336,0.00179229 -0.000207536,-0.000296594 -0.000427795,-0.000567743 -0.000663957,-0.000819013 0.00181296,-0.000471529 0.00316791,-0.000971684 0.00406406,-0.00149728 -0.000970093,-0.000828555 -0.00166029,-0.00187419 -0.00207377,-0.00313372 -0.000807086,0.00201811 -0.0019052,0.00367681 -0.00329355,0.00497451 -0.00020038,-0.000280691 -0.000394399,-0.000531961 -0.000586827,-0.000753015 0.00166188,-0.00149967 0.00288404,-0.0036299 0.00366568,-0.00638751l-0.00306772 0 0 -0.000830146c0.00030216,-0.00069974 0.000577285,-0.00140345 0.00082776,-0.00211115l0.000896144 0.000243319c-0.000258427,0.000648849 -0.000520034,0.00127543 -0.000784822,0.00187896zm0.00714132 0.00298503l-0.00399647 0c0.000332376,0.00102019 0.000989177,0.00189963 0.00197358,0.00263516 0.000954985,-0.000788797 0.00162848,-0.00166586 0.00202288,-0.00263516zm-0.00170164 -0.00474312l0.000484252 -0.000618633c0.000722799,0.000456421 0.00141538,0.000931926 0.00207934,0.00142572l-0.000596369 0.000718823c-0.000641693,-0.000544684 -0.0012977,-0.00105438 -0.00196722,-0.00152591zm0.0258411 0.00134938l0.000861952 0 0 0.00185749c0,0.000945444 -8.0311e-005,0.00177956 -0.000243319,0.00249839l0.000730751 0 0 0.00278385c0,0.000391218 0.000213103,0.000586827 0.000640898,0.000586827l0.000530371 0c0.000443699,0 0.000684632,-0.000199585 0.000729956,-0.000597959 4.37337e-005,-0.000337147 8.11062e-005,-0.000820604 0.000111322,-0.00144719 0.000248885,0.000104166 0.000551045,0.000217078 0.000905686,0.000343509 -5.80466e-005,0.000647259 -0.000118479,0.0011339 -0.00017732,0.00145832 -0.000108937,0.000677475 -0.000592393,0.00101701 -0.00144719,0.00101701l-0.000818218 0c-0.000877855,0 -0.00131519,-0.000416663 -0.00131519,-0.00124919l0 -0.00244829c-0.00015108,0.000522419 -0.000350665,0.00097884 -0.000597959,0.00136608 -0.000626585,0.00100906 -0.00166029,0.00188612 -0.00310589,0.00262959 -0.000191633,-0.000271944 -0.000389628,-0.000515263 -0.000597164,-0.000728365 0.00143685,-0.000694173 0.00243716,-0.00149569 0.00299536,-0.00241092 0.000531961,-0.000824579 0.000795954,-0.00207139 0.000795954,-0.00373486l0 -0.00192428zm-0.00232027 -0.00158157l0.00564801 0 0 0.00663321 -0.000861952 0 0 -0.0058142 -0.00392411 0 0 0.00596926 -0.000861952 0 0 -0.00678827zm-0.00443301 0.00822592c0.000529576,-0.000145514 0.00108619,-0.00030057 0.00166904,-0.000464373l0 -0.0032188 -0.00145832 0 0 -0.000794363 0.00145832 0 0 -0.00256518 -0.00154658 0 0 -0.000796749 0.00397897 0 0 0.000796749 -0.00157044 0 0 0.00256518 0.00141538 0 0 0.000794363 -0.00141538 0 0 0.00296356c0.000523214,-0.000158237 0.00106472,-0.000324425 0.00162451,-0.000497769 1.5108e-005,0.000281486 4.21434e-005,0.000556611 7.71304e-005,0.000830146 -0.00126748,0.000390423 -0.00257472,0.00080152 -0.00392331,0.00123727l-0.000309317 -0.000850025zm0.0322652 -0.00780528c0.00152591,-1.5108e-005 0.00293334,-0.000166188 0.00422229,-0.000452445l0.000288643 0.00085082c-0.00145991,0.000190838 -0.00270195,0.000317268 -0.00372611,0.000375315l0 0.00257472 0.00403543 0 0 0.000753015 -0.00158078 0 0 0.00579194 -0.000819013 0 0 -0.00579194 -0.00163564 0 0 0.000541503c0,0.00226223 -0.000541503,0.0040243 -0.00162451,0.00528462 -0.00017732,-0.000228211 -0.000371339,-0.000464373 -0.000586827,-0.000707691 0.00095101,-0.00103927 0.00142651,-0.00257711 0.00142651,-0.00461112l0 -0.00460874zm-0.00589213 0.00496338l0.00225507 0 0 -0.0010504 0.000795954 0 0 0.0010504 0.0021676 0 0 0.000707691 -0.0021676 0 0 0.00288484c0,0.000780846 -0.000375315,0.00117127 -0.00112674,0.00117127 -0.000316473,0 -0.00067509,-3.18063e-006 -0.00107267,-1.11322e-005 -2.86257e-005,-0.000243319 -6.9974e-005,-0.000522419 -0.000120864,-0.000839687 0.000426205,4.37337e-005 0.000761762,6.59982e-005 0.00100508,6.59982e-005 0.000347484,0 0.000519239,-0.000186862 0.000519239,-0.000563767l0 -0.00270752 -0.00225507 0 0 -0.000707691zm-0.000309317 -0.00206741l0.00177956 0c-0.000313292,-0.000497769 -0.000607501,-0.000923974 -0.000883421,-0.00128259l0.000596369 -0.000419049c0.000243319,0.000294209 0.000556611,0.000710872 0.000939082,0.00124919l-0.0006242 0.000452445 0.00145832 0c0.00040235,-0.000578875 0.000773689,-0.001149 0.00111163,-0.00171277l0.000784822 0.000441313c-0.000357026,0.000460397 -0.000698149,0.000885012 -0.00102257,0.00127146l0.0016746 0 0 0.000707691 -0.0058142 0 0 -0.000707691zm0.000355436 -0.00256359l0.00238627 0c-0.000159032,-0.00030216 -0.000339533,-0.000630561 -0.000541503,-0.000985202l0.000706896 -0.000331581c0.000229006,0.000376905 0.000442108,0.000756196 0.000641693,0.00113946l-0.000369749 0.00017732 0.0023489 0 0 0.000707691 -0.00517251 0 0 -0.000707691zm0.000805496 0.00583487l0.00075222 0.000354641c-0.000397579,0.000832531 -0.000791978,0.00158475 -0.0011824,0.00225427 -0.000215488,-0.000131996 -0.000457216,-0.000263993 -0.000730751,-0.000397579 0.000361002,-0.000560587 0.000749039,-0.00129611 0.00116093,-0.00221134zm0.00318382 5.64563e-005c0.000413482,0.000560587 0.000773689,0.00107585 0.00108301,0.00154738l-0.000706896 0.000486637c-0.000324425,-0.000567743 -0.000667933,-0.00110209 -0.00102894,-0.00160383l0.000652825 -0.000430181zm0.0256009 0.00227733c0.00105199,-0.000501745 0.00200539,-0.00107903 0.00285621,-0.00173583 -0.000306136,-0.00097725 -0.000504131,-0.00215965 -0.000596369,-0.00354879l-0.00288086 0 0 0.00183046c0.000729956,-0.000130406 0.00148695,-0.000267968 0.00226779,-0.000415073 1.35177e-005,0.000331581 2.46499e-005,0.000622609 3.18063e-005,0.000873084 -0.000773689,0.000147104 -0.00153943,0.000295004 -0.0022996,0.000441313l0 0.00259778c0,0.000842073 -0.000399965,0.0012643 -0.00120387,0.00127225 -0.000493793,7.15643e-006 -0.000988382,-3.97579e-006 -0.00148059,-3.41918e-005 -3.81676e-005,-0.000329991 -0.00010019,-0.000643283 -0.000188453,-0.000939082 0.000537527,7.31546e-005 0.00102019,0.000111322 0.00144878,0.000111322 0.000345099,7.15643e-006 0.000518443,-0.000170164 0.000518443,-0.000530371l0 -0.0022996c-0.000729956,0.000143129 -0.00145275,0.000286257 -0.00216601,0.000431771l-0.000222644 -0.00095101c0.000764147,-0.000122454 0.00155851,-0.000254451 0.00238866,-0.000397579l0 -0.00199108 -0.00237673 0 0 -0.000818218 0.00237673 0 0 -0.00166824c-0.000582851,7.79255e-005 -0.00120944,0.000155056 -0.00187896,0.000232186 -5.08902e-005,-0.000280691 -0.000131996,-0.0005749 -0.000243319,-0.000885012 0.00181296,-0.000169369 0.00337147,-0.000389628 0.00467474,-0.000663957l0.000266378 0.000885012c-0.000556611,0.00010019 -0.00119433,0.000203561 -0.00191315,0.000309317l0 0.0017907 0.00282997 0c-5.08902e-005,-0.00090171 -0.000105756,-0.00199267 -0.000164598,-0.00327128l0.000928745 0c2.46499e-005,0.00117843 6.36127e-005,0.00226938 0.000114503,0.00327128l0.004041 0 0 0.000818218 -0.00398931 0c8.42868e-005,0.00113946 0.000235367,0.0021191 0.000452445,0.00294129 0.000812652,-0.000722004 0.00151875,-0.00152591 0.00211115,-0.00241092l0.000795954 0.000530371c-0.000769714,0.00104325 -0.00163962,0.00196961 -0.00260892,0.00278067 0.000205151,0.000522419 0.000452445,0.0009526 0.000741088,0.00128816 0.000375315,0.000442108 0.000703715,0.000662367 0.000982816,0.000662367 0.000155056,0 0.000266378,-0.000120864 0.000332376,-0.000364183 0.000103371,-0.000382471 0.000209127,-0.00100508 0.000320449,-0.00186703 0.000309317,0.000139153 0.000592393,0.000246499 0.00085082,0.000320449 -0.000131996,0.000824579 -0.000265583,0.00146548 -0.000397579,0.0019219 -0.000170164,0.000590803 -0.000530371,0.000888987 -0.00108301,0.000896144 -0.000633741,-7.15643e-006 -0.00123409,-0.000386447 -0.00180183,-0.00113946 -0.000250475,-0.000327605 -0.000471529,-0.000712462 -0.000663957,-0.00115457 -0.000807881,0.000596369 -0.0016754,0.00112276 -0.00260892,0.00157521 -0.000190838,-0.000286257 -0.000379291,-0.000518443 -0.000562177,-0.000695764zm0.00385572 -0.00838972l0.000575695 -0.000586827c0.000648849,0.000494589 0.00131122,0.00104325 0.00199028,0.00164757l-0.000675885 0.000684632c-0.000603525,-0.000611477 -0.00123329,-0.00119433 -0.00189009,-0.00174537z"/>
  </g>
 </g>
</svg>
